<svg xmlns="http://www.w3.org/2000/svg" width="84" height="84" viewBox="0 0 84 84">
    <g fill="none" fill-rule="evenodd" transform="translate(2 2)">
        <circle cx="40" cy="40" r="40" stroke="#FFF" stroke-width="3"/>
        <path fill="#FFF" fill-rule="nonzero" d="M59.122 35.59c.243-2.751-2.322-3.554-3.34-3.554-3.944 0-7.89 0-11.834-.003.568-1.236 1.26-4.512.388-9.027-.344-1.784-1.398-2.971-2.739-2.948-1.08.02-2.113.853-2.221 1.892-.119 1.142-.4 2.77-.665 3.882-.85 3.557-5.394 8.254-8.268 9.892v17.377c1.95 1.102 4.063 1.487 6.321 1.444 3.567-.068 13.756-.008 15.602-.02 1.307-.01 2.61-.632 3.237-2.21.856-2.153-1.351-3.23-1.351-3.23s2.416.119 2.969-2.049c.566-2.224-1.657-3.105-1.657-3.105 1.503-.164 2.466-.555 2.83-1.91.427-1.596-.6-2.795-2.224-3.488.246-.024 2.729-.425 2.952-2.943zm-31.18-2.627h-6.639c-.677 0-1.225.548-1.225 1.225v19.659c0 .677.548 1.225 1.225 1.225h6.638c.677 0 1.226-.548 1.226-1.225V34.188c0-.676-.549-1.225-1.226-1.225z"/>
    </g>
</svg>
