<svg xmlns="http://www.w3.org/2000/svg" width="25" height="20" viewBox="0 0 25 20">
    <path fill="#FFF" fill-rule="nonzero" d="M24.578 2.37c-.906.4-1.875.672-2.896.797A5.06 5.06 0 0 0 23.901.375c-.974.578-2.052 1-3.203 1.224A5.036 5.036 0 0 0 17.016 0a5.044 5.044 0 0 0-5.042 5.047c0 .396.042.781.13 1.15A14.29 14.29 0 0 1 1.708.923a5.051 5.051 0 0 0 1.563 6.74 4.921 4.921 0 0 1-2.287-.63v.062a5.047 5.047 0 0 0 4.047 4.948c-.422.114-.87.177-1.328.177-.323 0-.64-.031-.948-.094A5.05 5.05 0 0 0 7.47 15.63 10.11 10.11 0 0 1 0 17.72 14.125 14.125 0 0 0 7.724 20c9.281 0 14.354-7.693 14.354-14.365 0-.218-.005-.437-.015-.65a10.35 10.35 0 0 0 2.515-2.615z"/>
</svg>
