<?xml version="1.0" standalone="no"?>
<!DOCTYPE svg PUBLIC "-//W3C//DTD SVG 1.1//EN" "http://www.w3.org/Graphics/SVG/1.1/DTD/svg11.dtd" >
<svg xmlns="http://www.w3.org/2000/svg" xmlns:xlink="http://www.w3.org/1999/xlink" version="1.1">
<metadata>
Created by FontForge 20170910 at Tue Oct 11 21:45:03 2016
 By Jimmy Wärting
C 2016 Sharp Type Corporation
</metadata>
<defs>
<font id="SharpGrotesk-Light10" horiz-adv-x="246" >
  <font-face 
    font-family="Sharp Grotesk Light 10"
    font-weight="300"
    font-stretch="condensed"
    units-per-em="1000"
    panose-1="0 0 4 6 0 0 0 0 0 0"
    ascent="800"
    descent="-200"
    x-height="572"
    cap-height="708"
    bbox="-28 -214 852 970"
    underline-thickness="50"
    underline-position="-75"
    unicode-range="U+0020-3009"
  />
<missing-glyph horiz-adv-x="61" 
 />
    <glyph glyph-name=".notdef" horiz-adv-x="61" 
 />
    <glyph glyph-name="A" unicode="A" horiz-adv-x="224" 
d="M161 140h-100l-14 -140h-33l79 708h33l84 -708h-34zM65 170h92l-40 364l-7 146l-8 -146z" />
    <glyph glyph-name="Aacute" unicode="&#xc1;" horiz-adv-x="224" 
d="M157 874h35l-71 -120h-25zM161 140h-100l-14 -140h-33l79 708h33l84 -708h-34zM65 170h92l-40 364l-7 146l-8 -146z" />
    <glyph glyph-name="Abreve" unicode="&#x102;" horiz-adv-x="224" 
d="M109 754c-54 0 -72 29 -75 91h27c3 -46 11 -65 49 -66c35 1 49 20 50 66h26c-1 -62 -25 -91 -77 -91zM161 140h-100l-14 -140h-33l79 708h33l84 -708h-34zM65 170h92l-40 364l-7 146l-8 -146z" />
    <glyph glyph-name="Acircumflex" unicode="&#xc2;" horiz-adv-x="224" 
d="M110 826l-41 -73h-30l60 101h23l58 -101h-31zM161 140h-100l-14 -140h-33l79 708h33l84 -708h-34zM65 170h92l-40 364l-7 146l-8 -146z" />
    <glyph glyph-name="Adieresis" unicode="&#xc4;" horiz-adv-x="224" 
d="M72 758c-13 0 -21 11 -21 32s8 31 21 31c15 0 21 -11 21 -32c0 -20 -6 -31 -21 -31zM146 758c-15 0 -22 11 -22 32s7 31 22 31s21 -11 21 -32c0 -20 -6 -31 -21 -31zM161 140h-100l-14 -140h-33l79 708h33l84 -708h-34zM65 170h92l-40 364l-7 146l-8 -146z" />
    <glyph glyph-name="Agrave" unicode="&#xc0;" horiz-adv-x="224" 
d="M38 860h34l49 -104h-25zM161 140h-100l-14 -140h-33l79 708h33l84 -708h-34zM65 170h92l-40 364l-7 146l-8 -146z" />
    <glyph glyph-name="Amacron" unicode="&#x100;" horiz-adv-x="224" 
d="M44 799h130v-28h-130v28zM161 140h-100l-14 -140h-33l79 708h33l84 -708h-34zM65 170h92l-40 364l-7 146l-8 -146z" />
    <glyph glyph-name="Aogonek" unicode="&#x104;" horiz-adv-x="224" 
d="M273 -81c-9 -42 -35 -61 -75 -61c-44 0 -67 20 -67 63c0 29 16 54 45 81l-15 138h-100l-14 -140h-33l79 708h33l84 -708c-33 -29 -51 -53 -51 -78c0 -23 13 -39 40 -39c24 0 39 12 44 36h30zM65 170h92l-40 364l-7 146l-8 -146z" />
    <glyph glyph-name="Aring" unicode="&#xc5;" horiz-adv-x="224" 
d="M109 752c-38 0 -67 24 -67 66c0 39 28 66 67 66c40 0 68 -26 68 -66c0 -42 -29 -66 -68 -66zM109 777c24 0 40 17 40 41s-16 41 -40 41c-23 0 -39 -17 -39 -41s15 -41 39 -41zM161 140h-100l-14 -140h-33l79 708h33l84 -708h-34zM65 170h92l-40 364l-7 146l-8 -146z" />
    <glyph glyph-name="Aringacute" unicode="&#x1fa;" horiz-adv-x="224" 
d="M158 970h35l-71 -120h-25zM47 0h-33l76 685c-28 7 -48 31 -48 64c0 39 28 66 67 66c40 0 68 -26 68 -66c0 -33 -20 -57 -48 -64l81 -685h-34l-15 140h-100zM109 708c24 0 40 17 40 41s-16 41 -40 41c-23 0 -39 -17 -39 -41s15 -41 39 -41zM65 170h92l-40 364l-7 146
l-8 -146z" />
    <glyph glyph-name="Atilde" unicode="&#xc3;" horiz-adv-x="224" 
d="M24 758c0 50 13 69 44 69c13 0 25 -4 34 -11c19 -16 33 -34 46 -34c16 0 22 9 22 44h26c-1 -46 -14 -71 -46 -71c-13 0 -25 4 -34 12c-19 15 -32 34 -48 34c-15 0 -18 -11 -18 -43h-26zM161 140h-100l-14 -140h-33l79 708h33l84 -708h-34zM65 170h92l-40 364l-7 146
l-8 -146z" />
    <glyph glyph-name="AE" unicode="&#xc6;" horiz-adv-x="317" 
d="M163 140h-99l-20 -140h-32l106 708h177v-32h-142l24 -309h110v-32h-108l23 -303h96v-32h-125zM69 170h92l-25 363l-2 143l-13 -143z" />
    <glyph glyph-name="AEacute" unicode="&#x1fc;" horiz-adv-x="317" 
d="M193 877h35l-71 -120h-25zM163 140h-99l-20 -140h-32l106 708h177v-32h-142l24 -309h110v-32h-108l23 -303h96v-32h-125zM69 170h92l-25 363l-2 143l-13 -143z" />
    <glyph glyph-name="B" unicode="B" horiz-adv-x="256" 
d="M41 0v708h69c76 0 110 -25 110 -100v-145c0 -54 -18 -81 -54 -93c39 -9 57 -37 57 -92v-176c0 -74 -28 -102 -103 -102h-79zM74 680v-296h42c48 0 71 27 71 79v142c0 55 -21 75 -80 75h-33zM74 355v-325h43c55 0 72 17 72 75v173c0 54 -20 77 -72 77h-43z" />
    <glyph glyph-name="C" unicode="C" horiz-adv-x="259" 
d="M131 -6c-60 0 -91 34 -91 101v518c0 64 33 101 92 101c58 0 89 -35 90 -95v-182h-33v181c-1 40 -18 67 -58 67c-42 0 -58 -30 -58 -73v-515c0 -44 16 -72 58 -72s57 27 58 67v205h33v-207c-1 -64 -31 -96 -91 -96z" />
    <glyph glyph-name="Cacute" unicode="&#x106;" horiz-adv-x="259" 
d="M179 881h35l-71 -120h-25zM131 -6c-60 0 -91 34 -91 101v518c0 64 33 101 92 101c58 0 89 -35 90 -95v-182h-33v181c-1 40 -18 67 -58 67c-42 0 -58 -30 -58 -73v-515c0 -44 16 -72 58 -72s57 27 58 67v205h33v-207c-1 -64 -31 -96 -91 -96z" />
    <glyph glyph-name="Ccaron" unicode="&#x10c;" horiz-adv-x="259" 
d="M122 760l-58 102h30l39 -72l41 72h30l-59 -102h-23zM131 -6c-60 0 -91 34 -91 101v518c0 64 33 101 92 101c58 0 89 -35 90 -95v-182h-33v181c-1 40 -18 67 -58 67c-42 0 -58 -30 -58 -73v-515c0 -44 16 -72 58 -72s57 27 58 67v205h33v-207c-1 -64 -31 -96 -91 -96z" />
    <glyph glyph-name="Ccedilla" unicode="&#xc7;" horiz-adv-x="259" 
d="M129 -159c-43 0 -66 19 -71 61h29c3 -27 18 -36 42 -36c27 0 44 8 44 33c0 23 -14 30 -45 30h-11v66c-51 5 -77 38 -77 100v518c0 64 33 101 92 101c58 0 89 -35 90 -95v-182h-33v181c-1 40 -18 67 -58 67c-42 0 -58 -30 -58 -73v-515c0 -44 16 -72 58 -72s57 27 58 67
v205h33v-207c-1 -59 -27 -91 -79 -95v-43c38 -3 59 -19 59 -52c0 -40 -31 -59 -73 -59z" />
    <glyph glyph-name="Ccircumflex" unicode="&#x108;" horiz-adv-x="259" 
d="M136 834l-41 -73h-30l60 101h23l58 -101h-31zM131 -6c-60 0 -91 34 -91 101v518c0 64 33 101 92 101c58 0 89 -35 90 -95v-182h-33v181c-1 40 -18 67 -58 67c-42 0 -58 -30 -58 -73v-515c0 -44 16 -72 58 -72s57 27 58 67v205h33v-207c-1 -64 -31 -96 -91 -96z" />
    <glyph glyph-name="Cdotaccent" unicode="&#x10a;" horiz-adv-x="259" 
d="M132 761c-16 0 -25 12 -25 35c0 24 9 35 25 35c17 0 25 -12 25 -36c0 -23 -8 -34 -25 -34zM131 -6c-60 0 -91 34 -91 101v518c0 64 33 101 92 101c58 0 89 -35 90 -95v-182h-33v181c-1 40 -18 67 -58 67c-42 0 -58 -30 -58 -73v-515c0 -44 16 -72 58 -72s57 27 58 67v205
h33v-207c-1 -64 -31 -96 -91 -96z" />
    <glyph glyph-name="D" unicode="D" horiz-adv-x="265" 
d="M42 708h68c76 0 115 -28 115 -112v-485c0 -83 -43 -111 -119 -111h-64v708zM75 678v-647h31c56 0 86 20 86 82v483c0 62 -29 82 -84 82h-33z" />
    <glyph glyph-name="Eth" unicode="&#xd0;" horiz-adv-x="270" 
d="M47 0v337h-36v32h36v339h67c76 0 116 -28 116 -112v-485c0 -83 -43 -111 -119 -111h-64zM80 337v-306h31c56 0 86 20 86 82v483c0 62 -29 82 -84 82h-33v-309h55v-32h-55z" />
    <glyph glyph-name="Dcaron" unicode="&#x10e;" horiz-adv-x="265" 
d="M119 753l-58 102h30l39 -72l41 72h30l-59 -102h-23zM42 708h68c76 0 115 -28 115 -112v-485c0 -83 -43 -111 -119 -111h-64v708zM75 678v-647h31c56 0 86 20 86 82v483c0 62 -29 82 -84 82h-33z" />
    <glyph glyph-name="Dcroat" unicode="&#x110;" horiz-adv-x="270" 
d="M47 0v337h-36v32h36v339h67c76 0 116 -28 116 -112v-485c0 -83 -43 -111 -119 -111h-64zM80 337v-306h31c56 0 86 20 86 82v483c0 62 -29 82 -84 82h-33v-309h55v-32h-55z" />
    <glyph glyph-name="E" unicode="E" horiz-adv-x="206" 
d="M187 0h-145v708h142v-31h-109v-307h101v-32h-101v-306h112v-32z" />
    <glyph glyph-name="Eacute" unicode="&#xc9;" horiz-adv-x="206" 
d="M163 875h35l-71 -120h-25zM187 0h-145v708h142v-31h-109v-307h101v-32h-101v-306h112v-32z" />
    <glyph glyph-name="Ebreve" unicode="&#x114;" horiz-adv-x="206" 
d="M116 754c-54 0 -72 29 -75 91h27c3 -46 11 -65 49 -66c35 1 49 20 50 66h26c-1 -62 -25 -91 -77 -91zM187 0h-145v708h142v-31h-109v-307h101v-32h-101v-306h112v-32z" />
    <glyph glyph-name="Ecaron" unicode="&#x11a;" horiz-adv-x="206" 
d="M106 754l-58 102h30l39 -72l41 72h30l-59 -102h-23zM187 0h-145v708h142v-31h-109v-307h101v-32h-101v-306h112v-32z" />
    <glyph glyph-name="Ecircumflex" unicode="&#xca;" horiz-adv-x="206" 
d="M115 830l-41 -73h-30l60 101h23l58 -101h-31zM187 0h-145v708h142v-31h-109v-307h101v-32h-101v-306h112v-32z" />
    <glyph glyph-name="Edieresis" unicode="&#xcb;" horiz-adv-x="206" 
d="M79 759c-13 0 -21 11 -21 32s8 31 21 31c15 0 21 -11 21 -32c0 -20 -6 -31 -21 -31zM153 759c-15 0 -22 11 -22 32s7 31 22 31s21 -11 21 -32c0 -20 -6 -31 -21 -31zM187 0h-145v708h142v-31h-109v-307h101v-32h-101v-306h112v-32z" />
    <glyph glyph-name="Edotaccent" unicode="&#x116;" horiz-adv-x="206" 
d="M116 755c-16 0 -25 12 -25 35c0 24 9 35 25 35c17 0 25 -12 25 -36c0 -23 -8 -34 -25 -34zM187 0h-145v708h142v-31h-109v-307h101v-32h-101v-306h112v-32z" />
    <glyph glyph-name="Egrave" unicode="&#xc8;" horiz-adv-x="206" 
d="M46 860h34l49 -104h-25zM187 0h-145v708h142v-31h-109v-307h101v-32h-101v-306h112v-32z" />
    <glyph glyph-name="Emacron" unicode="&#x112;" horiz-adv-x="206" 
d="M51 799h130v-28h-130v28zM187 0h-145v708h142v-31h-109v-307h101v-32h-101v-306h112v-32z" />
    <glyph glyph-name="Eogonek" unicode="&#x118;" horiz-adv-x="206" 
d="M176 -142c-44 0 -67 20 -67 63c0 28 16 54 43 79h-110v708h142v-31h-109v-307h101v-32h-101v-306h112v-31l1 -1c-33 -29 -51 -53 -51 -78c0 -23 13 -39 40 -39c24 0 39 12 44 36h30c-9 -42 -35 -61 -75 -61z" />
    <glyph glyph-name="F" unicode="F" horiz-adv-x="190" 
d="M75 334v-334h-33v708h135v-31h-102v-312h95v-31h-95z" />
    <glyph glyph-name="G" unicode="G" horiz-adv-x="262" 
d="M199 78c-5 -50 -25 -84 -76 -84c-55 0 -83 33 -83 100v519c0 63 34 101 93 101s91 -38 91 -101v-165h-33v164c0 43 -16 73 -58 73s-60 -30 -60 -73v-515c0 -43 13 -72 55 -72c19 0 32 5 41 16c17 21 22 57 22 95v189h-61v31h93v-356h-18z" />
    <glyph glyph-name="Gbreve" unicode="&#x11e;" horiz-adv-x="262" 
d="M133 760c-54 0 -72 29 -75 91h27c3 -46 11 -65 49 -66c35 1 49 20 50 66h26c-1 -62 -25 -91 -77 -91zM199 78c-5 -50 -25 -84 -76 -84c-55 0 -83 33 -83 100v519c0 63 34 101 93 101s91 -38 91 -101v-165h-33v164c0 43 -16 73 -58 73s-60 -30 -60 -73v-515
c0 -43 13 -72 55 -72c19 0 32 5 41 16c17 21 22 57 22 95v189h-61v31h93v-356h-18z" />
    <glyph glyph-name="Gcircumflex" unicode="&#x11c;" horiz-adv-x="262" 
d="M134 830l-41 -73h-30l60 101h23l58 -101h-31zM199 78c-5 -50 -25 -84 -76 -84c-55 0 -83 33 -83 100v519c0 63 34 101 93 101s91 -38 91 -101v-165h-33v164c0 43 -16 73 -58 73s-60 -30 -60 -73v-515c0 -43 13 -72 55 -72c19 0 32 5 41 16c17 21 22 57 22 95v189h-61v31
h93v-356h-18z" />
    <glyph glyph-name="Gdotaccent" unicode="&#x120;" horiz-adv-x="262" 
d="M133 761c-16 0 -25 12 -25 35c0 24 9 35 25 35c17 0 25 -12 25 -36c0 -23 -8 -34 -25 -34zM199 78c-5 -50 -25 -84 -76 -84c-55 0 -83 33 -83 100v519c0 63 34 101 93 101s91 -38 91 -101v-165h-33v164c0 43 -16 73 -58 73s-60 -30 -60 -73v-515c0 -43 13 -72 55 -72
c19 0 32 5 41 16c17 21 22 57 22 95v189h-61v31h93v-356h-18z" />
    <glyph glyph-name="H" unicode="H" horiz-adv-x="265" 
d="M190 335h-115v-335h-33v708h33v-341h115v341h33v-708h-33v335z" />
    <glyph glyph-name="Hbar" unicode="&#x126;" horiz-adv-x="268" 
d="M191 335h-114v-335h-33v524h-32v31h32v153h33v-153h114v153h33v-153h33v-31h-33v-524h-33v335zM191 524h-114v-157h114v157z" />
    <glyph glyph-name="Hcircumflex" unicode="&#x124;" horiz-adv-x="265" 
d="M136 823l-41 -73h-30l60 101h23l58 -101h-31zM190 335h-115v-335h-33v708h33v-341h115v341h33v-708h-33v335z" />
    <glyph glyph-name="I" unicode="I" horiz-adv-x="158" 
d="M13 0v31h50v647h-50v30h132v-30h-49v-647h49v-31h-132z" />
    <glyph glyph-name="IJ" unicode="&#x132;" horiz-adv-x="305" 
d="M13 0v31h50v647h-50v30h132v-30h-49v-647h45v-31h-128zM175 30h25c28 0 33 11 33 55v623h32v-624c0 -67 -15 -84 -65 -84h-25v30z" />
    <glyph glyph-name="Iacute" unicode="&#xcd;" horiz-adv-x="158" 
d="M127 875h35l-71 -120h-25zM13 0v31h50v647h-50v30h132v-30h-49v-647h49v-31h-132z" />
    <glyph glyph-name="Ibreve" unicode="&#x12c;" horiz-adv-x="158" 
d="M80 754c-54 0 -72 29 -75 91h27c3 -46 11 -65 49 -66c35 1 49 20 50 66h26c-1 -62 -25 -91 -77 -91zM13 0v31h50v647h-50v30h132v-30h-49v-647h49v-31h-132z" />
    <glyph glyph-name="Icircumflex" unicode="&#xce;" horiz-adv-x="158" 
d="M84 828l-41 -73h-30l60 101h23l58 -101h-31zM13 0v31h50v647h-50v30h132v-30h-49v-647h49v-31h-132z" />
    <glyph glyph-name="Idieresis" unicode="&#xcf;" horiz-adv-x="158" 
d="M43 759c-13 0 -21 11 -21 32s8 31 21 31c15 0 21 -11 21 -32c0 -20 -6 -31 -21 -31zM117 759c-15 0 -22 11 -22 32s7 31 22 31s21 -11 21 -32c0 -20 -6 -31 -21 -31zM13 0v31h50v647h-50v30h132v-30h-49v-647h49v-31h-132z" />
    <glyph glyph-name="Idotaccent" unicode="&#x130;" horiz-adv-x="158" 
d="M80 755c-16 0 -25 12 -25 35c0 24 9 35 25 35c17 0 25 -12 25 -36c0 -23 -8 -34 -25 -34zM13 0v31h50v647h-50v30h132v-30h-49v-647h49v-31h-132z" />
    <glyph glyph-name="Igrave" unicode="&#xcc;" horiz-adv-x="158" 
d="M10 860h34l49 -104h-25zM13 0v31h50v647h-50v30h132v-30h-49v-647h49v-31h-132z" />
    <glyph glyph-name="Imacron" unicode="&#x12a;" horiz-adv-x="158" 
d="M15 799h130v-28h-130v28zM13 0v31h50v647h-50v30h132v-30h-49v-647h49v-31h-132z" />
    <glyph glyph-name="Iogonek" unicode="&#x12e;" horiz-adv-x="158" 
d="M134 -142c-44 0 -67 20 -67 63c0 28 16 54 43 79h-97v31h50v647h-50v30h132v-30h-49v-647h49v-30l1 -1c-33 -29 -51 -53 -51 -78c0 -23 13 -39 40 -39c24 0 39 12 44 36h30c-9 -42 -35 -61 -75 -61z" />
    <glyph glyph-name="Itilde" unicode="&#x128;" horiz-adv-x="158" 
d="M-5 758c0 50 13 69 44 69c13 0 25 -4 34 -11c19 -16 33 -34 46 -34c16 0 22 9 22 44h26c-1 -46 -14 -71 -46 -71c-13 0 -25 4 -34 12c-19 15 -32 34 -48 34c-15 0 -18 -11 -18 -43h-26zM13 0v31h50v647h-50v30h132v-30h-49v-647h49v-31h-132z" />
    <glyph glyph-name="J" unicode="J" horiz-adv-x="236" 
d="M114 -6c-62 0 -83 35 -83 101v186h33v-184c0 -43 8 -71 50 -71s50 27 50 71v611h33v-613c0 -66 -24 -101 -83 -101z" />
    <glyph glyph-name="Jcircumflex" unicode="&#x134;" horiz-adv-x="236" 
d="M184 828l-41 -73h-30l60 101h23l58 -101h-31zM114 -6c-62 0 -83 35 -83 101v186h33v-184c0 -43 8 -71 50 -71s50 27 50 71v611h33v-613c0 -66 -24 -101 -83 -101z" />
    <glyph glyph-name="K" unicode="K" horiz-adv-x="252" 
d="M126 420l-51 -152v-268h-33v708h33v-318l-7 -92l18 71l113 339h32l-87 -258l97 -450h-34l-73 356z" />
    <glyph glyph-name="L" unicode="L" horiz-adv-x="192" 
d="M42 0v708h33v-676h104v-32h-137z" />
    <glyph glyph-name="Lacute" unicode="&#x139;" horiz-adv-x="192" 
d="M105 875h35l-71 -120h-25zM42 0v708h33v-676h104v-32h-137z" />
    <glyph glyph-name="Lcaron" unicode="&#x13d;" horiz-adv-x="192" 
d="M153 770h29l-31 -113h-22zM42 0v708h33v-676h104v-32h-137z" />
    <glyph glyph-name="Ldot" unicode="&#x13f;" horiz-adv-x="192" 
d="M42 0v708h33v-676h104v-32h-137zM164 265c-16 0 -25 12 -25 35c0 24 9 35 25 35c17 0 25 -12 25 -36c0 -23 -8 -34 -25 -34z" />
    <glyph glyph-name="Lslash" unicode="&#x141;" horiz-adv-x="194" 
d="M44 0v352l-33 -11l-8 29l41 14v324h33v-314l53 18l8 -29l-61 -20v-331h104v-32h-137z" />
    <glyph glyph-name="M" unicode="M" horiz-adv-x="322" 
d="M74 0h-32v708h30l85 -366l6 -29l5 29l82 366h29v-708h-31v432l14 247l-23 -133l-71 -313h-11l-74 313l-21 118l12 -232v-432z" />
    <glyph glyph-name="N" unicode="N" horiz-adv-x="290" 
d="M73 0h-31v708h28l125 -498l31 -148l-10 185v461h31v-708h-27l-127 507l-30 140l10 -180v-467z" />
    <glyph glyph-name="Nacute" unicode="&#x143;" horiz-adv-x="290" 
d="M192 861h35l-71 -120h-25zM73 0h-31v708h28l125 -498l31 -148l-10 185v461h31v-708h-27l-127 507l-30 140l10 -180v-467z" />
    <glyph glyph-name="Ncaron" unicode="&#x147;" horiz-adv-x="290" 
d="M131 741l-58 102h30l39 -72l41 72h30l-59 -102h-23zM73 0h-31v708h28l125 -498l31 -148l-10 185v461h31v-708h-27l-127 507l-30 140l10 -180v-467z" />
    <glyph glyph-name="Eng" unicode="&#x14a;" horiz-adv-x="290" 
d="M164 -112v31h18c27 0 35 15 35 46v47l-124 495l-30 140l10 -180v-467h-31v708h28l125 -498l31 -148l-10 185v461h31v-745c0 -51 -14 -75 -61 -75h-22z" />
    <glyph glyph-name="Ntilde" unicode="&#xd1;" horiz-adv-x="290" 
d="M66 760c0 50 13 69 44 69c13 0 25 -4 34 -11c19 -16 33 -34 46 -34c16 0 22 9 22 44h26c-1 -46 -14 -71 -46 -71c-13 0 -25 4 -34 12c-19 15 -32 34 -48 34c-15 0 -18 -11 -18 -43h-26zM73 0h-31v708h28l125 -498l31 -148l-10 185v461h31v-708h-27l-127 507l-30 140
l10 -180v-467z" />
    <glyph glyph-name="O" unicode="O" horiz-adv-x="268" 
d="M134 -6c-58 0 -94 35 -94 101v518c0 63 35 101 94 101c60 0 94 -38 94 -101v-518c0 -66 -35 -101 -94 -101zM134 25c43 0 61 28 61 72v516c0 43 -18 72 -61 72c-42 0 -61 -29 -61 -72v-516c0 -43 19 -72 61 -72z" />
    <glyph glyph-name="Oacute" unicode="&#xd3;" horiz-adv-x="268" 
d="M187 881h35l-71 -120h-25zM134 -6c-58 0 -94 35 -94 101v518c0 63 35 101 94 101c60 0 94 -38 94 -101v-518c0 -66 -35 -101 -94 -101zM134 25c43 0 61 28 61 72v516c0 43 -18 72 -61 72c-42 0 -61 -29 -61 -72v-516c0 -43 19 -72 61 -72z" />
    <glyph glyph-name="Obreve" unicode="&#x14e;" horiz-adv-x="268" 
d="M134 758c-54 0 -72 29 -75 91h27c3 -46 11 -65 49 -66c35 1 49 20 50 66h26c-1 -62 -25 -91 -77 -91zM134 -6c-58 0 -94 35 -94 101v518c0 63 35 101 94 101c60 0 94 -38 94 -101v-518c0 -66 -35 -101 -94 -101zM134 25c43 0 61 28 61 72v516c0 43 -18 72 -61 72
c-42 0 -61 -29 -61 -72v-516c0 -43 19 -72 61 -72z" />
    <glyph glyph-name="Ocircumflex" unicode="&#xd4;" horiz-adv-x="268" 
d="M136 830l-41 -73h-30l60 101h23l58 -101h-31zM134 -6c-58 0 -94 35 -94 101v518c0 63 35 101 94 101c60 0 94 -38 94 -101v-518c0 -66 -35 -101 -94 -101zM134 25c43 0 61 28 61 72v516c0 43 -18 72 -61 72c-42 0 -61 -29 -61 -72v-516c0 -43 19 -72 61 -72z" />
    <glyph glyph-name="Odieresis" unicode="&#xd6;" horiz-adv-x="268" 
d="M97 763c-13 0 -21 11 -21 32s8 31 21 31c15 0 21 -11 21 -32c0 -20 -6 -31 -21 -31zM171 763c-15 0 -22 11 -22 32s7 31 22 31s21 -11 21 -32c0 -20 -6 -31 -21 -31zM134 -6c-58 0 -94 35 -94 101v518c0 63 35 101 94 101c60 0 94 -38 94 -101v-518
c0 -66 -35 -101 -94 -101zM134 25c43 0 61 28 61 72v516c0 43 -18 72 -61 72c-42 0 -61 -29 -61 -72v-516c0 -43 19 -72 61 -72z" />
    <glyph glyph-name="Ograve" unicode="&#xd2;" horiz-adv-x="268" 
d="M64 864h34l49 -104h-25zM134 -6c-58 0 -94 35 -94 101v518c0 63 35 101 94 101c60 0 94 -38 94 -101v-518c0 -66 -35 -101 -94 -101zM134 25c43 0 61 28 61 72v516c0 43 -18 72 -61 72c-42 0 -61 -29 -61 -72v-516c0 -43 19 -72 61 -72z" />
    <glyph glyph-name="Ohungarumlaut" unicode="&#x150;" horiz-adv-x="268" 
d="M114 759h-24l43 104h35zM178 759h-24l50 104h35zM134 -6c-58 0 -94 35 -94 101v518c0 63 35 101 94 101c60 0 94 -38 94 -101v-518c0 -66 -35 -101 -94 -101zM134 25c43 0 61 28 61 72v516c0 43 -18 72 -61 72c-42 0 -61 -29 -61 -72v-516c0 -43 19 -72 61 -72z" />
    <glyph glyph-name="Omacron" unicode="&#x14c;" horiz-adv-x="268" 
d="M69 803h130v-28h-130v28zM134 -6c-58 0 -94 35 -94 101v518c0 63 35 101 94 101c60 0 94 -38 94 -101v-518c0 -66 -35 -101 -94 -101zM134 25c43 0 61 28 61 72v516c0 43 -18 72 -61 72c-42 0 -61 -29 -61 -72v-516c0 -43 19 -72 61 -72z" />
    <glyph glyph-name="Oslash" unicode="&#xd8;" horiz-adv-x="270" 
d="M135 -6c-12 0 -23 1 -34 4l-10 -88h-27l13 100c-24 16 -37 45 -37 85v518c0 63 33 101 95 101c11 0 20 0 28 -3l11 83h27l-12 -93c28 -16 41 -45 41 -88v-518c0 -66 -35 -101 -95 -101zM72 97c0 -17 3 -32 10 -44l77 628c-7 3 -15 4 -24 4c-42 0 -63 -29 -63 -72v-516z
M135 24c43 0 63 29 63 73v516c0 20 -5 37 -14 50l-79 -633c9 -4 19 -6 30 -6z" />
    <glyph glyph-name="Oslashacute" unicode="&#x1fe;" horiz-adv-x="270" 
d="M181 914h35l-71 -120h-25zM135 -6c-12 0 -23 1 -34 4l-10 -88h-27l13 100c-24 16 -37 45 -37 85v518c0 63 33 101 95 101c11 0 20 0 28 -3l11 83h27l-12 -93c28 -16 41 -45 41 -88v-518c0 -66 -35 -101 -95 -101zM72 97c0 -17 3 -32 10 -44l77 628c-7 3 -15 4 -24 4
c-42 0 -63 -29 -63 -72v-516zM135 24c43 0 63 29 63 73v516c0 20 -5 37 -14 50l-79 -633c9 -4 19 -6 30 -6z" />
    <glyph glyph-name="Otilde" unicode="&#xd5;" horiz-adv-x="268" 
d="M51 762c0 50 13 69 44 69c13 0 25 -4 34 -11c19 -16 33 -34 46 -34c16 0 22 9 22 44h26c-1 -46 -14 -71 -46 -71c-13 0 -25 4 -34 12c-19 15 -32 34 -48 34c-15 0 -18 -11 -18 -43h-26zM134 -6c-58 0 -94 35 -94 101v518c0 63 35 101 94 101c60 0 94 -38 94 -101v-518
c0 -66 -35 -101 -94 -101zM134 25c43 0 61 28 61 72v516c0 43 -18 72 -61 72c-42 0 -61 -29 -61 -72v-516c0 -43 19 -72 61 -72z" />
    <glyph glyph-name="OE" unicode="&#x152;" horiz-adv-x="359" 
d="M195 41c-9 -29 -27 -47 -66 -47c-58 0 -89 35 -89 101v518c0 63 32 101 88 101c36 0 58 -15 67 -46v40h142v-32h-110v-309h102v-32h-102v-303h113v-32h-145v41zM134 25c42 0 59 28 59 72v516c0 43 -17 72 -60 72c-42 0 -60 -29 -60 -72v-516c0 -43 19 -72 61 -72z" />
    <glyph glyph-name="P" unicode="P" horiz-adv-x="250" 
d="M75 225v-225h-33v708h74c75 0 103 -30 103 -105v-266c0 -75 -33 -112 -103 -112h-41zM75 679v-423h38c52 0 73 28 73 82v264c0 59 -18 77 -72 77h-39z" />
    <glyph glyph-name="Thorn" unicode="&#xde;" horiz-adv-x="250" 
d="M75 146v-146h-33v708h33v-118h41c75 0 103 -30 103 -105v-227c0 -75 -33 -112 -103 -112h-41zM75 560v-383h38c52 0 73 28 73 82v225c0 59 -18 76 -72 76h-39z" />
    <glyph glyph-name="Q" unicode="Q" horiz-adv-x="267" 
d="M186 -77l-32 73c-5 -1 -13 -2 -20 -2c-58 0 -94 35 -94 101v518c0 63 35 101 94 101c60 0 94 -38 94 -101v-518c0 -47 -15 -76 -47 -91l45 -81h-40zM134 25c43 0 61 28 61 72v516c0 43 -18 72 -61 72c-42 0 -61 -29 -61 -72v-516c0 -43 19 -72 61 -72z" />
    <glyph glyph-name="R" unicode="R" horiz-adv-x="256" 
d="M75 328v-328h-33v708h69c76 0 109 -26 109 -102v-169c0 -54 -17 -81 -52 -93c38 -9 51 -36 51 -92v-212c0 -17 4 -31 12 -40h-36c-5 8 -9 21 -9 40v210c0 55 -13 78 -67 78h-44zM75 680v-322h42c48 0 71 27 71 79v167c0 56 -20 76 -79 76h-34z" />
    <glyph glyph-name="Racute" unicode="&#x154;" horiz-adv-x="256" 
d="M172 875h35l-71 -120h-25zM75 328v-328h-33v708h69c76 0 109 -26 109 -102v-169c0 -54 -17 -81 -52 -93c38 -9 51 -36 51 -92v-212c0 -17 4 -31 12 -40h-36c-5 8 -9 21 -9 40v210c0 55 -13 78 -67 78h-44zM75 680v-322h42c48 0 71 27 71 79v167c0 56 -20 76 -79 76h-34z
" />
    <glyph glyph-name="Rcaron" unicode="&#x158;" horiz-adv-x="256" 
d="M115 754l-58 102h30l39 -72l41 72h30l-59 -102h-23zM75 328v-328h-33v708h69c76 0 109 -26 109 -102v-169c0 -54 -17 -81 -52 -93c38 -9 51 -36 51 -92v-212c0 -17 4 -31 12 -40h-36c-5 8 -9 21 -9 40v210c0 55 -13 78 -67 78h-44zM75 680v-322h42c48 0 71 27 71 79v167
c0 56 -20 76 -79 76h-34z" />
    <glyph glyph-name="S" unicode="S" horiz-adv-x="244" 
d="M122 -6c-59 0 -88 32 -88 96v188h33v-186c0 -40 15 -67 55 -67c42 0 55 26 55 64v179c0 50 -22 60 -66 87c-40 25 -74 48 -74 107v160c0 56 27 92 85 92c59 0 85 -35 86 -91v-173h-32v170c0 39 -15 65 -54 65c-38 0 -53 -25 -53 -64v-157c0 -46 26 -61 68 -88
c15 -9 28 -18 39 -26c21 -16 34 -37 34 -80v-182c0 -63 -29 -94 -88 -94z" />
    <glyph glyph-name="Sacute" unicode="&#x15a;" horiz-adv-x="244" 
d="M169 881h35l-71 -120h-25zM122 -6c-59 0 -88 32 -88 96v188h33v-186c0 -40 15 -67 55 -67c42 0 55 26 55 64v179c0 50 -22 60 -66 87c-40 25 -74 48 -74 107v160c0 56 27 92 85 92c59 0 85 -35 86 -91v-173h-32v170c0 39 -15 65 -54 65c-38 0 -53 -25 -53 -64v-157
c0 -46 26 -61 68 -88c15 -9 28 -18 39 -26c21 -16 34 -37 34 -80v-182c0 -63 -29 -94 -88 -94z" />
    <glyph glyph-name="Scaron" unicode="&#x160;" horiz-adv-x="244" 
d="M112 760l-58 102h30l39 -72l41 72h30l-59 -102h-23zM122 -6c-59 0 -88 32 -88 96v188h33v-186c0 -40 15 -67 55 -67c42 0 55 26 55 64v179c0 50 -22 60 -66 87c-40 25 -74 48 -74 107v160c0 56 27 92 85 92c59 0 85 -35 86 -91v-173h-32v170c0 39 -15 65 -54 65
c-38 0 -53 -25 -53 -64v-157c0 -46 26 -61 68 -88c15 -9 28 -18 39 -26c21 -16 34 -37 34 -80v-182c0 -63 -29 -94 -88 -94z" />
    <glyph glyph-name="Scircumflex" unicode="&#x15c;" horiz-adv-x="244" 
d="M125 834l-41 -73h-30l60 101h23l58 -101h-31zM122 -6c-59 0 -88 32 -88 96v188h33v-186c0 -40 15 -67 55 -67c42 0 55 26 55 64v179c0 50 -22 60 -66 87c-40 25 -74 48 -74 107v160c0 56 27 92 85 92c59 0 85 -35 86 -91v-173h-32v170c0 39 -15 65 -54 65
c-38 0 -53 -25 -53 -64v-157c0 -46 26 -61 68 -88c15 -9 28 -18 39 -26c21 -16 34 -37 34 -80v-182c0 -63 -29 -94 -88 -94z" />
    <glyph glyph-name="T" unicode="T" horiz-adv-x="186" 
d="M109 677v-677h-33v677h-68v31h169v-31h-68z" />
    <glyph glyph-name="Tbar" unicode="&#x166;" horiz-adv-x="186" 
d="M109 335v-335h-33v335h-45v32h45v310h-68v31h169v-31h-68v-310h45v-32h-45z" />
    <glyph glyph-name="Tcaron" unicode="&#x164;" horiz-adv-x="186" 
d="M83 754l-58 102h30l39 -72l41 72h30l-59 -102h-23zM109 677v-677h-33v677h-68v31h169v-31h-68z" />
    <glyph glyph-name="U" unicode="U" horiz-adv-x="259" 
d="M129 -6c-58 0 -87 33 -87 100v614h33v-612c0 -47 18 -71 54 -71c38 0 55 24 55 71v612h33v-614c0 -67 -29 -100 -88 -100z" />
    <glyph glyph-name="Uacute" unicode="&#xda;" horiz-adv-x="259" 
d="M176 871h35l-71 -120h-25zM129 -6c-58 0 -87 33 -87 100v614h33v-612c0 -47 18 -71 54 -71c38 0 55 24 55 71v612h33v-614c0 -67 -29 -100 -88 -100z" />
    <glyph glyph-name="Ubreve" unicode="&#x16c;" horiz-adv-x="259" 
d="M130 751c-54 0 -72 29 -75 91h27c3 -46 11 -65 49 -66c35 1 49 20 50 66h26c-1 -62 -25 -91 -77 -91zM129 -6c-58 0 -87 33 -87 100v614h33v-612c0 -47 18 -71 54 -71c38 0 55 24 55 71v612h33v-614c0 -67 -29 -100 -88 -100z" />
    <glyph glyph-name="Ucircumflex" unicode="&#xdb;" horiz-adv-x="259" 
d="M132 825l-41 -73h-30l60 101h23l58 -101h-31zM129 -6c-58 0 -87 33 -87 100v614h33v-612c0 -47 18 -71 54 -71c38 0 55 24 55 71v612h33v-614c0 -67 -29 -100 -88 -100z" />
    <glyph glyph-name="Udieresis" unicode="&#xdc;" horiz-adv-x="259" 
d="M93 756c-13 0 -21 11 -21 32s8 31 21 31c15 0 21 -11 21 -32c0 -20 -6 -31 -21 -31zM167 756c-15 0 -22 11 -22 32s7 31 22 31s21 -11 21 -32c0 -20 -6 -31 -21 -31zM129 -6c-58 0 -87 33 -87 100v614h33v-612c0 -47 18 -71 54 -71c38 0 55 24 55 71v612h33v-614
c0 -67 -29 -100 -88 -100z" />
    <glyph glyph-name="Ugrave" unicode="&#xd9;" horiz-adv-x="259" 
d="M60 857h34l49 -104h-25zM129 -6c-58 0 -87 33 -87 100v614h33v-612c0 -47 18 -71 54 -71c38 0 55 24 55 71v612h33v-614c0 -67 -29 -100 -88 -100z" />
    <glyph glyph-name="Uhungarumlaut" unicode="&#x170;" horiz-adv-x="259" 
d="M109 752h-24l43 104h35zM173 752h-24l50 104h35zM129 -6c-58 0 -87 33 -87 100v614h33v-612c0 -47 18 -71 54 -71c38 0 55 24 55 71v612h33v-614c0 -67 -29 -100 -88 -100z" />
    <glyph glyph-name="Umacron" unicode="&#x16a;" horiz-adv-x="259" 
d="M65 796h130v-28h-130v28zM129 -6c-58 0 -87 33 -87 100v614h33v-612c0 -47 18 -71 54 -71c38 0 55 24 55 71v612h33v-614c0 -67 -29 -100 -88 -100z" />
    <glyph glyph-name="Uogonek" unicode="&#x172;" horiz-adv-x="259" 
d="M168 -135c-44 0 -67 20 -67 63c0 21 10 43 30 66h-2c-58 0 -87 33 -87 100v614h33v-612c0 -47 18 -71 54 -71c38 0 55 24 55 71v612h33v-614c0 -44 -12 -74 -39 -89c-32 -28 -49 -51 -49 -76c0 -23 13 -39 40 -39c24 0 39 12 44 36h30c-9 -42 -35 -61 -75 -61z" />
    <glyph glyph-name="Uring" unicode="&#x16e;" horiz-adv-x="259" 
d="M128 754c-38 0 -67 24 -67 66c0 39 28 66 67 66c40 0 68 -26 68 -66c0 -42 -29 -66 -68 -66zM128 779c24 0 40 17 40 41s-16 41 -40 41c-23 0 -39 -17 -39 -41s15 -41 39 -41zM129 -6c-58 0 -87 33 -87 100v614h33v-612c0 -47 18 -71 54 -71c38 0 55 24 55 71v612h33
v-614c0 -67 -29 -100 -88 -100z" />
    <glyph glyph-name="Utilde" unicode="&#x168;" horiz-adv-x="259" 
d="M45 755c0 50 13 69 44 69c13 0 25 -4 34 -11c19 -16 33 -34 46 -34c16 0 22 9 22 44h26c-1 -46 -14 -71 -46 -71c-13 0 -25 4 -34 12c-19 15 -32 34 -48 34c-15 0 -18 -11 -18 -43h-26zM129 -6c-58 0 -87 33 -87 100v614h33v-612c0 -47 18 -71 54 -71c38 0 55 24 55 71
v612h33v-614c0 -67 -29 -100 -88 -100z" />
    <glyph glyph-name="V" unicode="V" horiz-adv-x="226" 
d="M97 0l-82 708h32l57 -519l10 -153l9 155l56 517h33l-81 -708h-34z" />
    <glyph glyph-name="W" unicode="W" horiz-adv-x="349" 
d="M102 0h-30l-48 708h32l32 -544l2 -106l9 104l66 546h22l62 -544l8 -106l3 110l34 540h31l-50 -708h-30l-65 553l-4 104l-5 -104z" />
    <glyph glyph-name="Wacute" unicode="&#x1e82;" horiz-adv-x="349" 
d="M223 875h35l-71 -120h-25zM102 0h-30l-48 708h32l32 -544l2 -106l9 104l66 546h22l62 -544l8 -106l3 110l34 540h31l-50 -708h-30l-65 553l-4 104l-5 -104z" />
    <glyph glyph-name="Wcircumflex" unicode="&#x174;" horiz-adv-x="349" 
d="M178 828l-41 -73h-30l60 101h23l58 -101h-31zM102 0h-30l-48 708h32l32 -544l2 -106l9 104l66 546h22l62 -544l8 -106l3 110l34 540h31l-50 -708h-30l-65 553l-4 104l-5 -104z" />
    <glyph glyph-name="Wdieresis" unicode="&#x1e84;" horiz-adv-x="349" 
d="M139 763c-13 0 -21 11 -21 32s8 31 21 31c15 0 21 -11 21 -32c0 -20 -6 -31 -21 -31zM213 763c-15 0 -22 11 -22 32s7 31 22 31s21 -11 21 -32c0 -20 -6 -31 -21 -31zM102 0h-30l-48 708h32l32 -544l2 -106l9 104l66 546h22l62 -544l8 -106l3 110l34 540h31l-50 -708h-30
l-65 553l-4 104l-5 -104z" />
    <glyph glyph-name="Wgrave" unicode="&#x1e80;" horiz-adv-x="349" 
d="M106 860h34l49 -104h-25zM102 0h-30l-48 708h32l32 -544l2 -106l9 104l66 546h22l62 -544l8 -106l3 110l34 540h31l-50 -708h-30l-65 553l-4 104l-5 -104z" />
    <glyph glyph-name="X" unicode="X" horiz-adv-x="227" 
d="M41 0h-33l85 378l-73 330h32l48 -224l11 -81l12 81l47 224h32l-74 -329l91 -379h-33l-59 259l-16 95l-15 -95z" />
    <glyph glyph-name="Y" unicode="Y" horiz-adv-x="222" 
d="M94 0v250l-80 458h33l52 -307l12 -113l12 113l51 307h33l-80 -458v-250h-33z" />
    <glyph glyph-name="Yacute" unicode="&#xdd;" horiz-adv-x="222" 
d="M158 871h35l-71 -120h-25zM94 0v250l-80 458h33l52 -307l12 -113l12 113l51 307h33l-80 -458v-250h-33z" />
    <glyph glyph-name="Ycircumflex" unicode="&#x176;" horiz-adv-x="222" 
d="M115 824l-41 -73h-30l60 101h23l58 -101h-31zM94 0v250l-80 458h33l52 -307l12 -113l12 113l51 307h33l-80 -458v-250h-33z" />
    <glyph glyph-name="Ydieresis" unicode="&#x178;" horiz-adv-x="222" 
d="M74 755c-13 0 -21 11 -21 32s8 31 21 31c15 0 21 -11 21 -32c0 -20 -6 -31 -21 -31zM148 755c-15 0 -22 11 -22 32s7 31 22 31s21 -11 21 -32c0 -20 -6 -31 -21 -31zM94 0v250l-80 458h33l52 -307l12 -113l12 113l51 307h33l-80 -458v-250h-33z" />
    <glyph glyph-name="Ygrave" unicode="&#x1ef2;" horiz-adv-x="222" 
d="M41 856h34l49 -104h-25zM94 0v250l-80 458h33l52 -307l12 -113l12 113l51 307h33l-80 -458v-250h-33z" />
    <glyph glyph-name="Z" unicode="Z" horiz-adv-x="206" 
d="M16 0v28l135 648h-126v32h159v-27l-133 -649h135v-32h-170z" />
    <glyph glyph-name="Zacute" unicode="&#x179;" horiz-adv-x="206" 
d="M152 875h35l-71 -120h-25zM16 0v28l135 648h-126v32h159v-27l-133 -649h135v-32h-170z" />
    <glyph glyph-name="Zcaron" unicode="&#x17d;" horiz-adv-x="206" 
d="M95 754l-58 102h30l39 -72l41 72h30l-59 -102h-23zM16 0v28l135 648h-126v32h159v-27l-133 -649h135v-32h-170z" />
    <glyph glyph-name="Zdotaccent" unicode="&#x17b;" horiz-adv-x="206" 
d="M105 755c-16 0 -25 12 -25 35c0 24 9 35 25 35c17 0 25 -12 25 -36c0 -23 -8 -34 -25 -34zM16 0v28l135 648h-126v32h159v-27l-133 -649h135v-32h-170z" />
    <glyph glyph-name="uni0122" unicode="&#x122;" horiz-adv-x="262" 
d="M199 78c-5 -50 -25 -84 -76 -84c-55 0 -83 33 -83 100v519c0 63 34 101 93 101s91 -38 91 -101v-165h-33v164c0 43 -16 73 -58 73s-60 -30 -60 -73v-515c0 -43 13 -72 55 -72c19 0 32 5 41 16c17 21 22 57 22 95v189h-61v31h93v-356h-18zM108 -167c15 12 26 30 27 61
c-3 -5 -5 -7 -9 -7c-9 0 -19 6 -19 30c0 21 8 33 24 33c19 0 25 -11 25 -46c0 -43 -13 -72 -40 -89z" />
    <glyph glyph-name="uni0136" unicode="&#x136;" horiz-adv-x="252" 
d="M126 420l-51 -152v-268h-33v708h33v-318l-7 -92l18 71l113 339h32l-87 -258l97 -450h-34l-73 356zM118 -148c15 12 26 30 27 61c-3 -5 -5 -7 -9 -7c-9 0 -19 6 -19 30c0 21 8 33 24 33c19 0 25 -11 25 -46c0 -43 -13 -72 -40 -89z" />
    <glyph glyph-name="uni013B" unicode="&#x13b;" horiz-adv-x="192" 
d="M42 0v708h33v-676h104v-32h-137zM88 -159c15 12 26 30 27 61c-3 -5 -5 -7 -9 -7c-9 0 -19 6 -19 30c0 21 8 33 24 33c19 0 25 -11 25 -46c0 -43 -13 -72 -40 -89z" />
    <glyph glyph-name="uni0145" unicode="&#x145;" horiz-adv-x="290" 
d="M73 0h-31v708h28l125 -498l31 -148l-10 185v461h31v-708h-27l-127 507l-30 140l10 -180v-467zM123 -146c15 12 26 30 27 61c-3 -5 -5 -7 -9 -7c-9 0 -19 6 -19 30c0 21 8 33 24 33c19 0 25 -11 25 -46c0 -43 -13 -72 -40 -89z" />
    <glyph glyph-name="uni0156" unicode="&#x156;" horiz-adv-x="256" 
d="M75 328v-328h-33v708h69c76 0 109 -26 109 -102v-169c0 -54 -17 -81 -52 -93c38 -9 51 -36 51 -92v-212c0 -17 4 -31 12 -40h-36c-5 8 -9 21 -9 40v210c0 55 -13 78 -67 78h-44zM75 680v-322h42c48 0 71 27 71 79v167c0 56 -20 76 -79 76h-34zM110 -156
c15 12 26 30 27 61c-3 -5 -5 -7 -9 -7c-9 0 -19 6 -19 30c0 21 8 33 24 33c19 0 25 -11 25 -46c0 -43 -13 -72 -40 -89z" />
    <glyph glyph-name="uni015E" unicode="&#x15e;" horiz-adv-x="244" 
d="M122 -158c-43 0 -66 19 -71 61h29c3 -27 18 -36 42 -36c27 0 44 8 44 33c0 23 -14 30 -45 30h-11v65c-51 4 -76 35 -76 95v188h33v-186c0 -40 15 -67 55 -67c42 0 55 26 55 64v179c0 50 -22 60 -66 87c-40 25 -74 48 -74 107v160c0 56 27 92 85 92c59 0 85 -35 86 -91
v-173h-32v170c0 39 -15 65 -54 65c-38 0 -53 -25 -53 -64v-157c0 -46 26 -61 68 -88c15 -9 28 -18 39 -26c21 -16 34 -37 34 -80v-182c0 -58 -24 -88 -74 -93v-42c38 -3 59 -19 59 -52c0 -40 -31 -59 -73 -59z" />
    <glyph glyph-name="uni0162" unicode="&#x162;" horiz-adv-x="186" 
d="M109 677v-677h-33v677h-68v31h169v-31h-68zM69 -158c15 12 26 30 27 61c-3 -5 -5 -7 -9 -7c-9 0 -19 6 -19 30c0 21 8 33 24 33c19 0 25 -11 25 -46c0 -43 -13 -72 -40 -89z" />
    <glyph glyph-name="uni0218" unicode="&#x218;" horiz-adv-x="244" 
d="M122 -6c-59 0 -88 32 -88 96v188h33v-186c0 -40 15 -67 55 -67c42 0 55 26 55 64v179c0 50 -22 60 -66 87c-40 25 -74 48 -74 107v160c0 56 27 92 85 92c59 0 85 -35 86 -91v-173h-32v170c0 39 -15 65 -54 65c-38 0 -53 -25 -53 -64v-157c0 -46 26 -61 68 -88
c15 -9 28 -18 39 -26c21 -16 34 -37 34 -80v-182c0 -63 -29 -94 -88 -94zM99 -166c15 12 26 30 27 61c-3 -5 -5 -7 -9 -7c-9 0 -19 6 -19 30c0 21 8 33 24 33c19 0 25 -11 25 -46c0 -43 -13 -72 -40 -89z" />
    <glyph glyph-name="uni0245" unicode="&#x245;" horiz-adv-x="224" 
d="M47 0h-33l79 708h33l84 -708h-34l-59 534l-7 146l-8 -146z" />
    <glyph glyph-name="I.alt" horiz-adv-x="120" 
d="M43 0v708h35l-1 -383v-325h-34z" />
    <glyph glyph-name="Iacute.alt" horiz-adv-x="120" 
d="M108 875h35l-71 -120h-25zM43 0v708h35l-1 -383v-325h-34z" />
    <glyph glyph-name="Ibreve.alt" horiz-adv-x="120" 
d="M61 754c-54 0 -72 29 -75 91h27c3 -46 11 -65 49 -66c35 1 49 20 50 66h26c-1 -62 -25 -91 -77 -91zM43 0v708h35l-1 -383v-325h-34z" />
    <glyph glyph-name="Icircumflex.alt" horiz-adv-x="120" 
d="M65 828l-41 -73h-30l60 101h23l58 -101h-31zM43 0v708h35l-1 -383v-325h-34z" />
    <glyph glyph-name="Idieresis.alt" horiz-adv-x="120" 
d="M24 759c-13 0 -21 11 -21 32s8 31 21 31c15 0 21 -11 21 -32c0 -20 -6 -31 -21 -31zM98 759c-15 0 -22 11 -22 32s7 31 22 31s21 -11 21 -32c0 -20 -6 -31 -21 -31zM43 0v708h35l-1 -383v-325h-34z" />
    <glyph glyph-name="Idotaccent.alt" horiz-adv-x="120" 
d="M61 755c-16 0 -25 12 -25 35c0 24 9 35 25 35c17 0 25 -12 25 -36c0 -23 -8 -34 -25 -34zM43 0v708h35l-1 -383v-325h-34z" />
    <glyph glyph-name="Igrave.alt" horiz-adv-x="120" 
d="M-9 860h34l49 -104h-25zM43 0v708h35l-1 -383v-325h-34z" />
    <glyph glyph-name="Imacron.alt" horiz-adv-x="120" 
d="M-4 799h130v-28h-130v28zM43 0v708h35l-1 -383v-325h-34z" />
    <glyph glyph-name="Iogonek.alt" horiz-adv-x="120" 
d="M140 -81c-9 -42 -35 -61 -75 -61c-44 0 -67 20 -67 63c0 29 17 54 45 81v706h35l-1 -383v-325c-33 -29 -51 -53 -51 -78c0 -23 13 -39 40 -39c24 0 39 12 44 36h30z" />
    <glyph glyph-name="Itilde.alt" horiz-adv-x="120" 
d="M-24 758c0 50 13 69 44 69c13 0 25 -4 34 -11c19 -16 33 -34 46 -34c16 0 22 9 22 44h26c-1 -46 -14 -71 -46 -71c-13 0 -25 4 -34 12c-19 15 -32 34 -48 34c-15 0 -18 -11 -18 -43h-26zM43 0v708h35l-1 -383v-325h-34z" />
    <glyph glyph-name="a" unicode="a" horiz-adv-x="247" 
d="M181 69c-9 -51 -39 -75 -74 -75c-54 0 -75 30 -75 108v88c0 47 10 71 26 88c15 17 36 25 57 34c35 15 63 24 63 64v108c0 38 -13 64 -55 64c-38 0 -55 -24 -55 -66v-119h-32v121c1 56 29 93 87 93c59 0 87 -36 87 -92v-485h-25zM113 25c39 0 65 39 65 93v204
c-9 -17 -29 -25 -49 -33c-17 -7 -33 -14 -45 -29c-12 -13 -19 -32 -19 -70v-82c0 -59 15 -83 48 -83z" />
    <glyph glyph-name="aacute" unicode="&#xe1;" horiz-adv-x="247" 
d="M170 742h35l-71 -120h-25zM181 69c-9 -51 -39 -75 -74 -75c-54 0 -75 30 -75 108v88c0 47 10 71 26 88c15 17 36 25 57 34c35 15 63 24 63 64v108c0 38 -13 64 -55 64c-38 0 -55 -24 -55 -66v-119h-32v121c1 56 29 93 87 93c59 0 87 -36 87 -92v-485h-25zM113 25
c39 0 65 39 65 93v204c-9 -17 -29 -25 -49 -33c-17 -7 -33 -14 -45 -29c-12 -13 -19 -32 -19 -70v-82c0 -59 15 -83 48 -83z" />
    <glyph glyph-name="abreve" unicode="&#x103;" horiz-adv-x="247" 
d="M123 621c-54 0 -72 29 -75 91h27c3 -46 11 -65 49 -66c35 1 49 20 50 66h26c-1 -62 -25 -91 -77 -91zM181 69c-9 -51 -39 -75 -74 -75c-54 0 -75 30 -75 108v88c0 47 10 71 26 88c15 17 36 25 57 34c35 15 63 24 63 64v108c0 38 -13 64 -55 64c-38 0 -55 -24 -55 -66
v-119h-32v121c1 56 29 93 87 93c59 0 87 -36 87 -92v-485h-25zM113 25c39 0 65 39 65 93v204c-9 -17 -29 -25 -49 -33c-17 -7 -33 -14 -45 -29c-12 -13 -19 -32 -19 -70v-82c0 -59 15 -83 48 -83z" />
    <glyph glyph-name="acircumflex" unicode="&#xe2;" horiz-adv-x="247" 
d="M127 695l-41 -73h-30l60 101h23l58 -101h-31zM181 69c-9 -51 -39 -75 -74 -75c-54 0 -75 30 -75 108v88c0 47 10 71 26 88c15 17 36 25 57 34c35 15 63 24 63 64v108c0 38 -13 64 -55 64c-38 0 -55 -24 -55 -66v-119h-32v121c1 56 29 93 87 93c59 0 87 -36 87 -92v-485
h-25zM113 25c39 0 65 39 65 93v204c-9 -17 -29 -25 -49 -33c-17 -7 -33 -14 -45 -29c-12 -13 -19 -32 -19 -70v-82c0 -59 15 -83 48 -83z" />
    <glyph glyph-name="adieresis" unicode="&#xe4;" horiz-adv-x="247" 
d="M86 626c-13 0 -21 11 -21 32s8 31 21 31c15 0 21 -11 21 -32c0 -20 -6 -31 -21 -31zM160 626c-15 0 -22 11 -22 32s7 31 22 31s21 -11 21 -32c0 -20 -6 -31 -21 -31zM181 69c-9 -51 -39 -75 -74 -75c-54 0 -75 30 -75 108v88c0 47 10 71 26 88c15 17 36 25 57 34
c35 15 63 24 63 64v108c0 38 -13 64 -55 64c-38 0 -55 -24 -55 -66v-119h-32v121c1 56 29 93 87 93c59 0 87 -36 87 -92v-485h-25zM113 25c39 0 65 39 65 93v204c-9 -17 -29 -25 -49 -33c-17 -7 -33 -14 -45 -29c-12 -13 -19 -32 -19 -70v-82c0 -59 15 -83 48 -83z" />
    <glyph glyph-name="agrave" unicode="&#xe0;" horiz-adv-x="247" 
d="M53 727h34l49 -104h-25zM181 69c-9 -51 -39 -75 -74 -75c-54 0 -75 30 -75 108v88c0 47 10 71 26 88c15 17 36 25 57 34c35 15 63 24 63 64v108c0 38 -13 64 -55 64c-38 0 -55 -24 -55 -66v-119h-32v121c1 56 29 93 87 93c59 0 87 -36 87 -92v-485h-25zM113 25
c39 0 65 39 65 93v204c-9 -17 -29 -25 -49 -33c-17 -7 -33 -14 -45 -29c-12 -13 -19 -32 -19 -70v-82c0 -59 15 -83 48 -83z" />
    <glyph glyph-name="amacron" unicode="&#x101;" horiz-adv-x="247" 
d="M58 666h130v-28h-130v28zM181 69c-9 -51 -39 -75 -74 -75c-54 0 -75 30 -75 108v88c0 47 10 71 26 88c15 17 36 25 57 34c35 15 63 24 63 64v108c0 38 -13 64 -55 64c-38 0 -55 -24 -55 -66v-119h-32v121c1 56 29 93 87 93c59 0 87 -36 87 -92v-485h-25zM113 25
c39 0 65 39 65 93v204c-9 -17 -29 -25 -49 -33c-17 -7 -33 -14 -45 -29c-12 -13 -19 -32 -19 -70v-82c0 -59 15 -83 48 -83z" />
    <glyph glyph-name="aogonek" unicode="&#x105;" horiz-adv-x="247" 
d="M273 -81c-9 -42 -35 -61 -75 -61c-44 0 -67 20 -67 63c0 31 20 60 53 88l-3 60c-9 -51 -39 -75 -74 -75c-54 0 -75 30 -75 108v88c0 47 10 71 26 88c15 17 36 25 57 34c35 15 63 24 63 64v108c0 38 -13 64 -55 64c-38 0 -55 -24 -55 -66v-119h-32v121c1 56 29 93 87 93
c59 0 87 -36 87 -92v-485c-33 -29 -51 -53 -51 -78c0 -23 13 -39 40 -39c24 0 39 12 44 36h30zM113 25c39 0 65 39 65 93v204c-9 -17 -29 -25 -49 -33c-17 -7 -33 -14 -45 -29c-12 -13 -19 -32 -19 -70v-82c0 -59 15 -83 48 -83z" />
    <glyph glyph-name="aring" unicode="&#xe5;" horiz-adv-x="247" 
d="M122 624c-38 0 -67 24 -67 66c0 39 28 66 67 66c40 0 68 -26 68 -66c0 -42 -29 -66 -68 -66zM122 649c24 0 40 17 40 41s-16 41 -40 41c-23 0 -39 -17 -39 -41s15 -41 39 -41zM181 69c-9 -51 -39 -75 -74 -75c-54 0 -75 30 -75 108v88c0 47 10 71 26 88
c15 17 36 25 57 34c35 15 63 24 63 64v108c0 38 -13 64 -55 64c-38 0 -55 -24 -55 -66v-119h-32v121c1 56 29 93 87 93c59 0 87 -36 87 -92v-485h-25zM113 25c39 0 65 39 65 93v204c-9 -17 -29 -25 -49 -33c-17 -7 -33 -14 -45 -29c-12 -13 -19 -32 -19 -70v-82
c0 -59 15 -83 48 -83z" />
    <glyph glyph-name="aringacute" unicode="&#x1fb;" horiz-adv-x="247" 
d="M168 893h35l-71 -120h-25zM121 608c-38 0 -67 24 -67 66c0 39 28 66 67 66c40 0 68 -26 68 -66c0 -42 -29 -66 -68 -66zM121 633c24 0 40 17 40 41s-16 41 -40 41c-23 0 -39 -17 -39 -41s15 -41 39 -41zM181 69c-9 -51 -39 -75 -74 -75c-54 0 -75 30 -75 108v88
c0 47 10 71 26 88c15 17 36 25 57 34c35 15 63 24 63 64v108c0 38 -13 64 -55 64c-38 0 -55 -24 -55 -66v-119h-32v121c1 56 29 93 87 93c59 0 87 -36 87 -92v-485h-25zM113 25c39 0 65 39 65 93v204c-9 -17 -29 -25 -49 -33c-17 -7 -33 -14 -45 -29
c-12 -13 -19 -32 -19 -70v-82c0 -59 15 -83 48 -83z" />
    <glyph glyph-name="atilde" unicode="&#xe3;" horiz-adv-x="247" 
d="M38 625c0 50 13 69 44 69c13 0 25 -4 34 -11c19 -16 33 -34 46 -34c16 0 22 9 22 44h26c-1 -46 -14 -71 -46 -71c-13 0 -25 4 -34 12c-19 15 -32 34 -48 34c-15 0 -18 -11 -18 -43h-26zM181 69c-9 -51 -39 -75 -74 -75c-54 0 -75 30 -75 108v88c0 47 10 71 26 88
c15 17 36 25 57 34c35 15 63 24 63 64v108c0 38 -13 64 -55 64c-38 0 -55 -24 -55 -66v-119h-32v121c1 56 29 93 87 93c59 0 87 -36 87 -92v-485h-25zM113 25c39 0 65 39 65 93v204c-9 -17 -29 -25 -49 -33c-17 -7 -33 -14 -45 -29c-12 -13 -19 -32 -19 -70v-82
c0 -59 15 -83 48 -83z" />
    <glyph glyph-name="ae" unicode="&#xe6;" horiz-adv-x="389" 
d="M354 87c0 -63 -34 -93 -88 -93c-46 0 -74 22 -82 72c-11 -51 -42 -71 -77 -71c-54 0 -75 29 -75 108v91c0 46 13 71 26 88c16 17 36 25 57 34c35 13 63 24 63 64v104c0 38 -14 64 -54 64c-38 0 -55 -24 -55 -66v-114h-32v115c0 58 29 94 85 94c38 0 61 -15 72 -44
c12 29 37 44 73 44c59 0 87 -33 87 -100v-193h-144v-190c0 -42 17 -70 56 -70s56 29 56 64v142h32v-143zM210 313h112v164c0 43 -17 71 -56 71c-38 0 -56 -25 -56 -71v-164zM114 25c39 0 64 40 64 94v208c-9 -17 -29 -27 -49 -35c-17 -7 -33 -13 -45 -28
c-11 -13 -19 -32 -19 -70v-85c0 -59 16 -84 49 -84z" />
    <glyph glyph-name="aeacute" unicode="&#x1fd;" horiz-adv-x="389" 
d="M242 732h35l-71 -120h-25zM354 87c0 -63 -34 -93 -88 -93c-46 0 -74 22 -82 72c-11 -51 -42 -71 -77 -71c-54 0 -75 29 -75 108v91c0 46 13 71 26 88c16 17 36 25 57 34c35 13 63 24 63 64v104c0 38 -14 64 -54 64c-38 0 -55 -24 -55 -66v-114h-32v115c0 58 29 94 85 94
c38 0 61 -15 72 -44c12 29 37 44 73 44c59 0 87 -33 87 -100v-193h-144v-190c0 -42 17 -70 56 -70s56 29 56 64v142h32v-143zM210 313h112v164c0 43 -17 71 -56 71c-38 0 -56 -25 -56 -71v-164zM114 25c39 0 64 40 64 94v208c-9 -17 -29 -27 -49 -35c-17 -7 -33 -13 -45 -28
c-11 -13 -19 -32 -19 -70v-85c0 -59 16 -84 49 -84z" />
    <glyph glyph-name="b" unicode="b" horiz-adv-x="257" 
d="M137 -6c-36 0 -58 20 -69 62l-3 -56h-25v732h32v-217c9 42 32 62 67 62c56 0 80 -40 80 -127v-325c0 -102 -31 -131 -82 -131zM132 23c35 0 55 26 55 106v322c0 66 -17 97 -55 97c-44 0 -60 -45 -60 -101v-319c0 -63 17 -105 60 -105z" />
    <glyph glyph-name="c" unicode="c" horiz-adv-x="248" 
d="M125 -6c-54 0 -89 30 -89 97v388c0 68 37 98 89 98c54 0 87 -30 88 -93v-144h-33v143c-1 39 -17 65 -55 65s-56 -27 -56 -70v-386c0 -39 18 -68 56 -68s54 25 55 64v162h33v-163c-1 -63 -36 -93 -88 -93z" />
    <glyph glyph-name="cacute" unicode="&#x107;" horiz-adv-x="248" 
d="M172 742h35l-71 -120h-25zM125 -6c-54 0 -89 30 -89 97v388c0 68 37 98 89 98c54 0 87 -30 88 -93v-144h-33v143c-1 39 -17 65 -55 65s-56 -27 -56 -70v-386c0 -39 18 -68 56 -68s54 25 55 64v162h33v-163c-1 -63 -36 -93 -88 -93z" />
    <glyph glyph-name="ccaron" unicode="&#x10d;" horiz-adv-x="248" 
d="M115 621l-58 102h30l39 -72l41 72h30l-59 -102h-23zM125 -6c-54 0 -89 30 -89 97v388c0 68 37 98 89 98c54 0 87 -30 88 -93v-144h-33v143c-1 39 -17 65 -55 65s-56 -27 -56 -70v-386c0 -39 18 -68 56 -68s54 25 55 64v162h33v-163c-1 -63 -36 -93 -88 -93z" />
    <glyph glyph-name="ccedilla" unicode="&#xe7;" horiz-adv-x="248" 
d="M124 -159c-43 0 -66 19 -71 61h29c3 -27 18 -36 42 -36c27 0 44 8 44 33c0 23 -14 30 -45 30h-11v66c-46 4 -76 34 -76 96v388c0 68 37 98 89 98c54 0 87 -30 88 -93v-144h-33v143c-1 39 -17 65 -55 65s-56 -27 -56 -70v-386c0 -39 18 -68 56 -68s54 25 55 64v162h33
v-163c-1 -58 -29 -88 -75 -92v-43c38 -3 59 -19 59 -52c0 -40 -31 -59 -73 -59z" />
    <glyph glyph-name="ccircumflex" unicode="&#x109;" horiz-adv-x="248" 
d="M129 695l-41 -73h-30l60 101h23l58 -101h-31zM125 -6c-54 0 -89 30 -89 97v388c0 68 37 98 89 98c54 0 87 -30 88 -93v-144h-33v143c-1 39 -17 65 -55 65s-56 -27 -56 -70v-386c0 -39 18 -68 56 -68s54 25 55 64v162h33v-163c-1 -63 -36 -93 -88 -93z" />
    <glyph glyph-name="cdotaccent" unicode="&#x10b;" horiz-adv-x="248" 
d="M125 622c-16 0 -25 12 -25 35c0 24 9 35 25 35c17 0 25 -12 25 -36c0 -23 -8 -34 -25 -34zM125 -6c-54 0 -89 30 -89 97v388c0 68 37 98 89 98c54 0 87 -30 88 -93v-144h-33v143c-1 39 -17 65 -55 65s-56 -27 -56 -70v-386c0 -39 18 -68 56 -68s54 25 55 64v162h33v-163
c-1 -63 -36 -93 -88 -93z" />
    <glyph glyph-name="d" unicode="d" horiz-adv-x="255" 
d="M187 62c-9 -43 -31 -68 -70 -68c-52 0 -81 29 -81 131v325c0 86 27 127 82 127c34 0 56 -19 65 -58v213h33v-732h-25zM123 23c44 0 60 42 60 104v321c0 55 -15 100 -59 100c-39 0 -55 -31 -55 -97v-322c0 -78 21 -106 54 -106z" />
    <glyph glyph-name="eth" unicode="&#xf0;" horiz-adv-x="250" 
d="M125 -6c-54 0 -89 31 -89 99v385c0 67 34 99 81 99c34 0 54 -14 65 -43c-7 51 -23 94 -52 133l-44 -44h-35l63 64c-20 23 -44 42 -75 61h45c19 -12 34 -26 49 -42l42 42h35l-61 -61c43 -56 64 -131 64 -219l1 -375c0 -66 -35 -99 -89 -99zM125 24c39 0 56 28 56 70v377
c0 48 -17 77 -56 77c-38 0 -56 -27 -56 -70v-384c0 -42 18 -70 56 -70z" />
    <glyph glyph-name="dcaron" unicode="&#x10f;" horiz-adv-x="255" 
d="M274 752h29l-31 -113h-22zM187 62c-9 -43 -31 -68 -70 -68c-52 0 -81 29 -81 131v325c0 86 27 127 82 127c34 0 56 -19 65 -58v213h33v-732h-25zM123 23c44 0 60 42 60 104v321c0 55 -15 100 -59 100c-39 0 -55 -31 -55 -97v-322c0 -78 21 -106 54 -106z" />
    <glyph glyph-name="dcroat" unicode="&#x111;" horiz-adv-x="255" 
d="M187 62c-9 -43 -31 -68 -70 -68c-52 0 -81 29 -81 131v325c0 86 27 127 82 127c34 0 56 -19 65 -58v121h-56v28h56v64h33v-64h35v-28h-35v-640h-25zM123 23c44 0 60 42 60 104v321c0 55 -15 100 -59 100c-39 0 -55 -31 -55 -97v-322c0 -78 21 -106 54 -106z" />
    <glyph glyph-name="e" unicode="e" horiz-adv-x="248" 
d="M213 87c0 -63 -36 -93 -88 -93c-54 0 -89 29 -89 99v384c0 71 35 100 89 100c59 0 88 -33 88 -100v-193h-144v-190c0 -42 17 -70 56 -70s55 29 55 64v141h33v-142zM69 313h111v164c0 43 -16 71 -55 71c-38 0 -56 -25 -56 -71v-164z" />
    <glyph glyph-name="eacute" unicode="&#xe9;" horiz-adv-x="248" 
d="M171 741h35l-71 -120h-25zM213 87c0 -63 -36 -93 -88 -93c-54 0 -89 29 -89 99v384c0 71 35 100 89 100c59 0 88 -33 88 -100v-193h-144v-190c0 -42 17 -70 56 -70s55 29 55 64v141h33v-142zM69 313h111v164c0 43 -16 71 -55 71c-38 0 -56 -25 -56 -71v-164z" />
    <glyph glyph-name="ebreve" unicode="&#x115;" horiz-adv-x="248" 
d="M124 620c-54 0 -72 29 -75 91h27c3 -46 11 -65 49 -66c35 1 49 20 50 66h26c-1 -62 -25 -91 -77 -91zM213 87c0 -63 -36 -93 -88 -93c-54 0 -89 29 -89 99v384c0 71 35 100 89 100c59 0 88 -33 88 -100v-193h-144v-190c0 -42 17 -70 56 -70s55 29 55 64v141h33v-142z
M69 313h111v164c0 43 -16 71 -55 71c-38 0 -56 -25 -56 -71v-164z" />
    <glyph glyph-name="ecaron" unicode="&#x11b;" horiz-adv-x="248" 
d="M114 620l-58 102h30l39 -72l41 72h30l-59 -102h-23zM213 87c0 -63 -36 -93 -88 -93c-54 0 -89 29 -89 99v384c0 71 35 100 89 100c59 0 88 -33 88 -100v-193h-144v-190c0 -42 17 -70 56 -70s55 29 55 64v141h33v-142zM69 313h111v164c0 43 -16 71 -55 71
c-38 0 -56 -25 -56 -71v-164z" />
    <glyph glyph-name="ecircumflex" unicode="&#xea;" horiz-adv-x="248" 
d="M128 693l-41 -73h-30l60 101h23l58 -101h-31zM213 87c0 -63 -36 -93 -88 -93c-54 0 -89 29 -89 99v384c0 71 35 100 89 100c59 0 88 -33 88 -100v-193h-144v-190c0 -42 17 -70 56 -70s55 29 55 64v141h33v-142zM69 313h111v164c0 43 -16 71 -55 71c-38 0 -56 -25 -56 -71
v-164z" />
    <glyph glyph-name="edieresis" unicode="&#xeb;" horiz-adv-x="248" 
d="M87 625c-13 0 -21 11 -21 32s8 31 21 31c15 0 21 -11 21 -32c0 -20 -6 -31 -21 -31zM161 625c-15 0 -22 11 -22 32s7 31 22 31s21 -11 21 -32c0 -20 -6 -31 -21 -31zM213 87c0 -63 -36 -93 -88 -93c-54 0 -89 29 -89 99v384c0 71 35 100 89 100c59 0 88 -33 88 -100v-193
h-144v-190c0 -42 17 -70 56 -70s55 29 55 64v141h33v-142zM69 313h111v164c0 43 -16 71 -55 71c-38 0 -56 -25 -56 -71v-164z" />
    <glyph glyph-name="edotaccent" unicode="&#x117;" horiz-adv-x="248" 
d="M124 621c-16 0 -25 12 -25 35c0 24 9 35 25 35c17 0 25 -12 25 -36c0 -23 -8 -34 -25 -34zM213 87c0 -63 -36 -93 -88 -93c-54 0 -89 29 -89 99v384c0 71 35 100 89 100c59 0 88 -33 88 -100v-193h-144v-190c0 -42 17 -70 56 -70s55 29 55 64v141h33v-142zM69 313h111
v164c0 43 -16 71 -55 71c-38 0 -56 -25 -56 -71v-164z" />
    <glyph glyph-name="egrave" unicode="&#xe8;" horiz-adv-x="248" 
d="M54 726h34l49 -104h-25zM213 87c0 -63 -36 -93 -88 -93c-54 0 -89 29 -89 99v384c0 71 35 100 89 100c59 0 88 -33 88 -100v-193h-144v-190c0 -42 17 -70 56 -70s55 29 55 64v141h33v-142zM69 313h111v164c0 43 -16 71 -55 71c-38 0 -56 -25 -56 -71v-164z" />
    <glyph glyph-name="emacron" unicode="&#x113;" horiz-adv-x="248" 
d="M59 665h130v-28h-130v28zM213 87c0 -63 -36 -93 -88 -93c-54 0 -89 29 -89 99v384c0 71 35 100 89 100c59 0 88 -33 88 -100v-193h-144v-190c0 -42 17 -70 56 -70s55 29 55 64v141h33v-142zM69 313h111v164c0 43 -16 71 -55 71c-38 0 -56 -25 -56 -71v-164z" />
    <glyph glyph-name="eogonek" unicode="&#x119;" horiz-adv-x="248" 
d="M167 -132c-44 0 -67 20 -67 63c0 21 10 42 27 63h-2c-54 0 -89 29 -89 99v384c0 71 35 100 89 100c59 0 88 -33 88 -100v-193h-144v-190c0 -42 17 -70 56 -70s55 29 55 64v141h33v-142c0 -40 -14 -66 -38 -81c-29 -27 -47 -50 -47 -74c0 -23 13 -39 40 -39
c24 0 39 12 44 36h30c-9 -42 -35 -61 -75 -61zM69 313h111v164c0 43 -16 71 -55 71c-38 0 -56 -25 -56 -71v-164z" />
    <glyph glyph-name="f" unicode="f" horiz-adv-x="141" 
d="M79 542v-542h-32v542h-44v30h44v48c0 87 21 112 77 112h13v-29h-9c-39 0 -49 -14 -49 -84v-47h58v-30h-58z" />
    <glyph glyph-name="g" unicode="g" 
d="M111 -128c-59 0 -89 20 -89 63c0 31 28 54 63 66c-39 5 -54 21 -54 50c0 24 20 46 55 55c-31 9 -50 32 -50 79v298c0 47 20 75 53 87c8 3 19 5 28 6c47 7 63 22 63 66v22h31v-20c0 -52 -20 -69 -62 -74c5 -1 10 -3 14 -4c32 -11 47 -39 47 -83v-299
c0 -62 -35 -90 -86 -90h-3c-42 0 -60 -16 -60 -37c0 -24 21 -29 63 -29h24c67 0 87 -27 87 -65v-4c0 -50 -48 -87 -119 -87h-5zM122 122c39 0 56 25 56 63v299c-1 38 -19 63 -55 63c-8 0 -15 -1 -22 -4c-21 -9 -32 -31 -32 -59v-299c0 -38 17 -63 53 -63zM118 -99
c47 0 85 25 85 57v4c0 25 -16 37 -60 37c-43 -1 -89 -19 -89 -55v-1c0 -25 17 -42 59 -42h5z" />
    <glyph glyph-name="gbreve" unicode="&#x11f;" 
d="M110 632c-54 0 -72 29 -75 91h27c3 -46 11 -65 49 -66c35 1 49 20 50 66h26c-1 -62 -25 -91 -77 -91zM111 -128c-59 0 -89 20 -89 63c0 31 28 54 63 66c-39 5 -54 21 -54 50c0 24 20 46 55 55c-31 9 -50 32 -50 79v298c0 47 20 75 53 87c8 3 19 5 28 6c47 7 63 10 63 43
v6h31v-4c0 -43 -20 -48 -60 -52c4 0 8 -2 12 -3c32 -11 47 -39 47 -83v-299c0 -62 -35 -90 -86 -90h-3c-42 0 -60 -16 -60 -37c0 -24 21 -29 63 -29h24c67 0 87 -27 87 -65v-4c0 -50 -48 -87 -119 -87h-5zM122 122c39 0 56 25 56 63v299c-1 38 -19 63 -55 63
c-8 0 -15 -1 -22 -4c-21 -9 -32 -31 -32 -59v-299c0 -38 17 -63 53 -63zM118 -99c47 0 85 25 85 57v4c0 25 -16 37 -60 37c-43 -1 -89 -19 -89 -55v-1c0 -25 17 -42 59 -42h5z" />
    <glyph glyph-name="gcircumflex" unicode="&#x11d;" 
d="M116 719l-41 -73h-30l60 101h23l58 -101h-31zM111 -128c-59 0 -89 20 -89 63c0 31 28 54 63 66c-39 5 -54 21 -54 50c0 24 20 46 55 55c-31 9 -50 32 -50 79v298c0 47 20 75 53 87c8 3 19 5 28 6c47 7 63 10 63 43v6h31v-4c0 -43 -20 -48 -60 -52c4 0 8 -2 12 -3
c32 -11 47 -39 47 -83v-299c0 -62 -35 -90 -86 -90h-3c-42 0 -60 -16 -60 -37c0 -24 21 -29 63 -29h24c67 0 87 -27 87 -65v-4c0 -50 -48 -87 -119 -87h-5zM122 122c39 0 56 25 56 63v299c-1 38 -19 63 -55 63c-8 0 -15 -1 -22 -4c-21 -9 -32 -31 -32 -59v-299
c0 -38 17 -63 53 -63zM118 -99c47 0 85 25 85 57v4c0 25 -16 37 -60 37c-43 -1 -89 -19 -89 -55v-1c0 -25 17 -42 59 -42h5z" />
    <glyph glyph-name="gdotaccent" unicode="&#x121;" 
d="M117 628c-16 0 -25 12 -25 35c0 24 9 35 25 35c17 0 25 -12 25 -36c0 -23 -8 -34 -25 -34zM111 -128c-59 0 -89 20 -89 63c0 31 28 54 63 66c-39 5 -54 21 -54 50c0 24 20 46 55 55c-31 9 -50 32 -50 79v298c0 47 20 75 53 87c8 3 19 5 28 6c47 7 63 10 63 43v6h31v-4
c0 -43 -20 -48 -60 -52c4 0 8 -2 12 -3c32 -11 47 -39 47 -83v-299c0 -62 -35 -90 -86 -90h-3c-42 0 -60 -16 -60 -37c0 -24 21 -29 63 -29h24c67 0 87 -27 87 -65v-4c0 -50 -48 -87 -119 -87h-5zM122 122c39 0 56 25 56 63v299c-1 38 -19 63 -55 63c-8 0 -15 -1 -22 -4
c-21 -9 -32 -31 -32 -59v-299c0 -38 17 -63 53 -63zM118 -99c47 0 85 25 85 57v4c0 25 -16 37 -60 37c-43 -1 -89 -19 -89 -55v-1c0 -25 17 -42 59 -42h5z" />
    <glyph glyph-name="h" unicode="h" horiz-adv-x="251" 
d="M71 0h-32v732h32v-211c12 38 33 56 65 56c56 0 77 -33 77 -117v-460h-33v461c0 66 -15 86 -50 86c-46 0 -59 -43 -59 -110v-437z" />
    <glyph glyph-name="hbar" unicode="&#x127;" horiz-adv-x="251" 
d="M71 0h-32v640h-35v29h35v63h32v-63h57v-29h-57v-119c12 38 33 56 65 56c56 0 77 -33 77 -117v-460h-33v461c0 66 -15 86 -50 86c-46 0 -59 -43 -59 -110v-437z" />
    <glyph glyph-name="hcircumflex" unicode="&#x125;" horiz-adv-x="251" 
d="M57 848l-41 -73h-30l60 101h23l58 -101h-31zM71 0h-32v732h32v-211c12 38 33 56 65 56c56 0 77 -33 77 -117v-460h-33v461c0 66 -15 86 -50 86c-46 0 -59 -43 -59 -110v-437z" />
    <glyph glyph-name="i" unicode="i" horiz-adv-x="112" 
d="M56 627c-15 0 -22 12 -22 35c0 25 6 34 23 34c16 0 22 -9 22 -34c0 -23 -7 -35 -23 -35zM40 574c3 -1 8 -2 16 -2s13 1 16 2v-574h-32v574z" />
    <glyph glyph-name="dotlessi" unicode="&#x131;" horiz-adv-x="112" 
d="M40 0v572h32v-572h-32z" />
    <glyph glyph-name="iacute" unicode="&#xed;" horiz-adv-x="112" 
d="M103 746h35l-71 -120h-25zM40 0v572h32v-572h-32z" />
    <glyph glyph-name="ibreve" unicode="&#x12d;" horiz-adv-x="112" 
d="M56 618c-54 0 -72 29 -75 91h27c3 -46 11 -65 49 -66c35 1 49 20 50 66h26c-1 -62 -25 -91 -77 -91zM40 0v572h32v-572h-32z" />
    <glyph glyph-name="icircumflex" unicode="&#xee;" horiz-adv-x="112" 
d="M57 690l-41 -73h-30l60 101h23l58 -101h-31zM40 0v572h32v-572h-32z" />
    <glyph glyph-name="idieresis" unicode="&#xef;" horiz-adv-x="112" 
d="M20 623c-13 0 -21 11 -21 32s8 31 21 31c15 0 21 -11 21 -32c0 -20 -6 -31 -21 -31zM94 623c-15 0 -22 11 -22 32s7 31 22 31s21 -11 21 -32c0 -20 -6 -31 -21 -31zM40 0v572h32v-572h-32z" />
    <glyph glyph-name="igrave" unicode="&#xec;" horiz-adv-x="112" 
d="M-13 724h34l49 -104h-25zM40 0v572h32v-572h-32z" />
    <glyph glyph-name="ij" unicode="&#x133;" horiz-adv-x="225" 
d="M56 627c-15 0 -22 12 -22 35c0 25 6 34 23 34c16 0 22 -9 22 -34c0 -23 -7 -35 -23 -35zM169 627c-15 0 -22 12 -22 35c0 25 6 34 23 34s22 -9 22 -34c0 -23 -7 -35 -23 -35zM40 574c3 -1 8 -2 16 -2s13 1 16 2v-574h-32v574zM41 -76h79c25 0 33 15 33 46v604
c4 -1 9 -3 16 -3c8 0 13 2 16 3v-605c0 -52 -14 -77 -62 -77h-82v32z" />
    <glyph glyph-name="imacron" unicode="&#x12b;" horiz-adv-x="112" 
d="M-8 663h130v-28h-130v28zM40 0v572h32v-572h-32z" />
    <glyph glyph-name="iogonek" unicode="&#x12f;" horiz-adv-x="112" 
d="M56 627c-15 0 -22 12 -22 35c0 25 6 34 23 34c16 0 22 -9 22 -34c0 -23 -7 -35 -23 -35zM61 -142c-44 0 -67 20 -67 63c0 29 17 55 46 82v571c3 -1 8 -2 16 -2s13 1 16 2v-573l1 -1c-33 -29 -51 -53 -51 -78c0 -23 13 -39 40 -39c24 0 39 12 44 36h30
c-9 -42 -35 -61 -75 -61z" />
    <glyph glyph-name="itilde" unicode="&#x129;" horiz-adv-x="112" 
d="M-28 622c0 50 13 69 44 69c13 0 25 -4 34 -11c19 -16 33 -34 46 -34c16 0 22 9 22 44h26c-1 -46 -14 -71 -46 -71c-13 0 -25 4 -34 12c-19 15 -32 34 -48 34c-15 0 -18 -11 -18 -43h-26zM40 0v572h32v-572h-32z" />
    <glyph glyph-name="j" unicode="j" horiz-adv-x="113" 
d="M57 627c-17 0 -22 10 -22 35s6 34 23 34c16 0 21 -9 21 -34c0 -23 -7 -35 -22 -35zM-11 -81h19c25 0 32 16 32 45v610c4 -1 10 -3 17 -3s12 2 16 3v-611c0 -52 -15 -77 -63 -77h-21v33z" />
    <glyph glyph-name="uni0237" unicode="&#x237;" horiz-adv-x="113" 
d="M-11 -81h19c25 0 32 16 32 45v608h33v-609c0 -52 -15 -77 -63 -77h-21v33z" />
    <glyph glyph-name="jcircumflex" unicode="&#x135;" horiz-adv-x="113" 
d="M60 692l-41 -73h-30l60 101h23l58 -101h-31zM-11 -81h19c25 0 32 16 32 45v608h33v-609c0 -52 -15 -77 -63 -77h-21v33z" />
    <glyph glyph-name="k" unicode="k" horiz-adv-x="232" 
d="M119 343l-48 -131v-212h-32v732h32v-407l-4 -79l14 54l102 272h32l-76 -204l86 -368h-33l-65 286z" />
    <glyph glyph-name="kgreenlandic" unicode="&#x138;" horiz-adv-x="232" 
d="M119 343l-48 -131v-212h-32v572h32v-247l-4 -79l14 54l102 272h32l-76 -204l86 -368h-33l-65 286z" />
    <glyph glyph-name="l" unicode="l" horiz-adv-x="112" 
d="M40 0v732h32v-732h-32z" />
    <glyph glyph-name="lacute" unicode="&#x13a;" horiz-adv-x="112" 
d="M102 899h35l-71 -120h-25zM40 0v732h32v-732h-32z" />
    <glyph glyph-name="lcaron" unicode="&#x13e;" horiz-adv-x="112" 
d="M131 752h29l-31 -113h-22zM40 0v732h32v-732h-32z" />
    <glyph glyph-name="ldot" unicode="&#x140;" horiz-adv-x="162" 
d="M40 0v732h32v-732h-32zM135 236c-16 0 -25 12 -25 35c0 24 9 35 25 35c17 0 25 -12 25 -36c0 -23 -8 -34 -25 -34z" />
    <glyph glyph-name="lslash" unicode="&#x142;" horiz-adv-x="119" 
d="M43 0v281l-37 -16l-11 23l48 21v423h32v-408l39 17l10 -24l-49 -22v-295h-32z" />
    <glyph glyph-name="m" unicode="m" horiz-adv-x="369" 
d="M72 0h-33v572h25l3 -56c9 42 31 61 63 61c43 0 59 -23 64 -67c9 46 31 67 66 67c51 0 71 -33 71 -116v-461h-33v461c0 66 -11 87 -45 87c-15 0 -25 -5 -33 -14c-15 -19 -19 -47 -19 -72v-462h-32v462c0 63 -11 86 -46 86c-44 0 -51 -46 -51 -114v-434z" />
    <glyph glyph-name="n" unicode="n" horiz-adv-x="250" 
d="M71 0h-32v572h25l4 -63c11 46 33 68 69 68c55 0 76 -33 76 -116v-461h-33v461c0 64 -14 87 -49 87c-38 0 -60 -32 -60 -110v-438z" />
    <glyph glyph-name="nacute" unicode="&#x144;" horiz-adv-x="250" 
d="M179 742h35l-71 -120h-25zM71 0h-32v572h25l4 -63c11 46 33 68 69 68c55 0 76 -33 76 -116v-461h-33v461c0 64 -14 87 -49 87c-38 0 -60 -32 -60 -110v-438z" />
    <glyph glyph-name="ncaron" unicode="&#x148;" horiz-adv-x="250" 
d="M122 621l-58 102h30l39 -72l41 72h30l-59 -102h-23zM71 0h-32v572h25l4 -63c11 46 33 68 69 68c55 0 76 -33 76 -116v-461h-33v461c0 64 -14 87 -49 87c-38 0 -60 -32 -60 -110v-438z" />
    <glyph glyph-name="eng" unicode="&#x14b;" horiz-adv-x="250" 
d="M130 -112v31h19c25 0 32 15 32 46v496c0 64 -15 86 -50 86c-38 0 -60 -32 -60 -110v-437h-32v572h25l3 -66c11 48 34 71 70 71c55 0 76 -33 76 -117v-497c0 -51 -13 -75 -60 -75h-23z" />
    <glyph glyph-name="ntilde" unicode="&#xf1;" horiz-adv-x="250" 
d="M47 625c0 50 13 69 44 69c13 0 25 -4 34 -11c19 -16 33 -34 46 -34c16 0 22 9 22 44h26c-1 -46 -14 -71 -46 -71c-13 0 -25 4 -34 12c-19 15 -32 34 -48 34c-15 0 -18 -11 -18 -43h-26zM71 0h-32v572h25l4 -63c11 46 33 68 69 68c55 0 76 -33 76 -116v-461h-33v461
c0 64 -14 87 -49 87c-38 0 -60 -32 -60 -110v-438z" />
    <glyph glyph-name="o" unicode="o" horiz-adv-x="250" 
d="M125 -6c-54 0 -89 29 -89 99v385c0 67 37 99 89 99c54 0 89 -33 89 -99v-385c0 -66 -35 -99 -89 -99zM125 24c39 0 56 28 56 70v384c0 42 -17 70 -56 70c-38 0 -56 -27 -56 -70v-384c0 -42 18 -70 56 -70z" />
    <glyph glyph-name="oacute" unicode="&#xf3;" horiz-adv-x="250" 
d="M172 742h35l-71 -120h-25zM125 -6c-54 0 -89 29 -89 99v385c0 67 37 99 89 99c54 0 89 -33 89 -99v-385c0 -66 -35 -99 -89 -99zM125 24c39 0 56 28 56 70v384c0 42 -17 70 -56 70c-38 0 -56 -27 -56 -70v-384c0 -42 18 -70 56 -70z" />
    <glyph glyph-name="obreve" unicode="&#x14f;" horiz-adv-x="250" 
d="M125 621c-54 0 -72 29 -75 91h27c3 -46 11 -65 49 -66c35 1 49 20 50 66h26c-1 -62 -25 -91 -77 -91zM125 -6c-54 0 -89 29 -89 99v385c0 67 37 99 89 99c54 0 89 -33 89 -99v-385c0 -66 -35 -99 -89 -99zM125 24c39 0 56 28 56 70v384c0 42 -17 70 -56 70
c-38 0 -56 -27 -56 -70v-384c0 -42 18 -70 56 -70z" />
    <glyph glyph-name="ocircumflex" unicode="&#xf4;" horiz-adv-x="250" 
d="M126 692l-41 -73h-30l60 101h23l58 -101h-31zM125 -6c-54 0 -89 29 -89 99v385c0 67 37 99 89 99c54 0 89 -33 89 -99v-385c0 -66 -35 -99 -89 -99zM125 24c39 0 56 28 56 70v384c0 42 -17 70 -56 70c-38 0 -56 -27 -56 -70v-384c0 -42 18 -70 56 -70z" />
    <glyph glyph-name="odieresis" unicode="&#xf6;" horiz-adv-x="250" 
d="M86 621c-13 0 -21 11 -21 32s8 31 21 31c15 0 21 -11 21 -32c0 -20 -6 -31 -21 -31zM160 621c-15 0 -22 11 -22 32s7 31 22 31s21 -11 21 -32c0 -20 -6 -31 -21 -31zM125 -6c-54 0 -89 29 -89 99v385c0 67 37 99 89 99c54 0 89 -33 89 -99v-385c0 -66 -35 -99 -89 -99z
M125 24c39 0 56 28 56 70v384c0 42 -17 70 -56 70c-38 0 -56 -27 -56 -70v-384c0 -42 18 -70 56 -70z" />
    <glyph glyph-name="ograve" unicode="&#xf2;" horiz-adv-x="250" 
d="M55 727h34l49 -104h-25zM125 -6c-54 0 -89 29 -89 99v385c0 67 37 99 89 99c54 0 89 -33 89 -99v-385c0 -66 -35 -99 -89 -99zM125 24c39 0 56 28 56 70v384c0 42 -17 70 -56 70c-38 0 -56 -27 -56 -70v-384c0 -42 18 -70 56 -70z" />
    <glyph glyph-name="ohungarumlaut" unicode="&#x151;" horiz-adv-x="250" 
d="M105 622h-24l43 104h35zM169 622h-24l50 104h35zM125 -6c-54 0 -89 29 -89 99v385c0 67 37 99 89 99c54 0 89 -33 89 -99v-385c0 -66 -35 -99 -89 -99zM125 24c39 0 56 28 56 70v384c0 42 -17 70 -56 70c-38 0 -56 -27 -56 -70v-384c0 -42 18 -70 56 -70z" />
    <glyph glyph-name="omacron" unicode="&#x14d;" horiz-adv-x="250" 
d="M61 658h130v-28h-130v28zM125 -6c-54 0 -89 29 -89 99v385c0 67 37 99 89 99c54 0 89 -33 89 -99v-385c0 -66 -35 -99 -89 -99zM125 24c39 0 56 28 56 70v384c0 42 -17 70 -56 70c-38 0 -56 -27 -56 -70v-384c0 -42 18 -70 56 -70z" />
    <glyph glyph-name="oslash" unicode="&#xf8;" horiz-adv-x="251" 
d="M126 -6c-11 0 -22 1 -33 5l-14 -89h-24l16 99c-23 16 -35 44 -35 84v385c0 67 38 99 90 99c12 0 23 -2 34 -5l12 78h24l-15 -90c21 -16 34 -43 34 -82v-385c0 -66 -35 -99 -89 -99zM69 94c0 -16 4 -31 9 -43l77 489c-8 5 -18 8 -29 8c-38 0 -57 -27 -57 -70v-384zM126 24
c39 0 57 28 57 70v384c0 16 -2 29 -9 40l-76 -487c8 -4 17 -7 28 -7z" />
    <glyph glyph-name="oslashacute" unicode="&#x1ff;" horiz-adv-x="251" 
d="M177 769h35l-71 -120h-25zM126 -6c-11 0 -22 1 -33 5l-14 -89h-24l16 99c-23 16 -35 44 -35 84v385c0 67 38 99 90 99c12 0 23 -2 34 -5l12 78h24l-15 -90c21 -16 34 -43 34 -82v-385c0 -66 -35 -99 -89 -99zM69 94c0 -16 4 -31 9 -43l77 489c-8 5 -18 8 -29 8
c-38 0 -57 -27 -57 -70v-384zM126 24c39 0 57 28 57 70v384c0 16 -2 29 -9 40l-76 -487c8 -4 17 -7 28 -7z" />
    <glyph glyph-name="otilde" unicode="&#xf5;" horiz-adv-x="250" 
d="M40 625c0 50 13 69 44 69c13 0 25 -4 34 -11c19 -16 33 -34 46 -34c16 0 22 9 22 44h26c-1 -46 -14 -71 -46 -71c-13 0 -25 4 -34 12c-19 15 -32 34 -48 34c-15 0 -18 -11 -18 -43h-26zM125 -6c-54 0 -89 29 -89 99v385c0 67 37 99 89 99c54 0 89 -33 89 -99v-385
c0 -66 -35 -99 -89 -99zM125 24c39 0 56 28 56 70v384c0 42 -17 70 -56 70c-38 0 -56 -27 -56 -70v-384c0 -42 18 -70 56 -70z" />
    <glyph glyph-name="oe" unicode="&#x153;" horiz-adv-x="392" 
d="M357 87c0 -63 -35 -93 -86 -93c-39 0 -63 16 -75 48c-11 -32 -34 -48 -72 -48c-52 0 -88 31 -88 99v385c0 67 37 99 88 99c38 0 61 -16 73 -48c12 32 36 48 74 48c58 0 86 -33 86 -100v-193h-144v-190c0 -42 17 -70 56 -70s55 29 55 64v142h33v-143zM125 24
c39 0 56 28 56 70v384c0 40 -17 70 -56 70c-38 0 -56 -27 -56 -70v-384c0 -42 18 -70 56 -70zM213 313h112v164c0 43 -17 71 -56 71c-38 0 -56 -25 -56 -71v-164z" />
    <glyph glyph-name="p" unicode="p" horiz-adv-x="253" 
d="M133 -6c-32 0 -53 19 -62 55v-243h-32v766h24l4 -62c11 43 32 67 70 67c51 0 80 -28 80 -130v-324c0 -90 -26 -129 -84 -129zM128 25c39 0 56 29 56 99v319c0 80 -18 105 -53 105c-42 0 -60 -41 -60 -112v-313c0 -55 15 -98 57 -98z" />
    <glyph glyph-name="thorn" unicode="&#xfe;" horiz-adv-x="253" 
d="M133 -6c-32 0 -53 19 -62 55v-243h-32v942h32v-230c11 40 32 59 65 59c56 0 81 -38 81 -130v-324c0 -90 -26 -129 -84 -129zM128 25c39 0 56 29 56 99v325c0 70 -16 99 -54 99c-43 0 -59 -44 -59 -102v-323c0 -55 15 -98 57 -98z" />
    <glyph glyph-name="q" unicode="q" horiz-adv-x="255" 
d="M183 -182v240c-9 -46 -30 -64 -64 -64c-55 0 -83 39 -83 129v324c0 102 33 130 81 130c39 0 61 -21 70 -63l3 58h25v-754h-32zM125 23c32 0 58 30 58 100v313c0 72 -14 112 -60 112c-32 0 -54 -25 -54 -100v-329c0 -64 18 -96 56 -96z" />
    <glyph glyph-name="r" unicode="r" horiz-adv-x="156" 
d="M39 0v572h25l5 -74c7 51 26 74 77 74h5v-36h-9c-58 0 -71 -31 -71 -114v-422h-32z" />
    <glyph glyph-name="racute" unicode="&#x155;" horiz-adv-x="156" 
d="M130 735h35l-71 -120h-25zM39 0v572h25l5 -74c7 51 26 74 77 74h5v-36h-9c-58 0 -71 -31 -71 -114v-422h-32z" />
    <glyph glyph-name="rcaron" unicode="&#x159;" horiz-adv-x="156" 
d="M73 614l-58 102h30l39 -72l41 72h30l-59 -102h-23zM39 0v572h25l5 -74c7 51 26 74 77 74h5v-36h-9c-58 0 -71 -31 -71 -114v-422h-32z" />
    <glyph glyph-name="s" unicode="s" horiz-adv-x="233" 
d="M116 -6c-54 0 -83 28 -84 94v126h33v-125c1 -38 15 -65 51 -65c39 0 52 25 52 63v108c0 51 -29 68 -64 88c-33 21 -70 44 -70 107v95c0 63 31 92 82 92c54 0 81 -30 82 -93v-111h-32v111c-1 38 -12 64 -50 64s-49 -24 -49 -63v-94c0 -50 31 -66 63 -86
c35 -21 71 -44 71 -108v-111c0 -62 -27 -92 -85 -92z" />
    <glyph glyph-name="sacute" unicode="&#x15b;" horiz-adv-x="233" 
d="M163 742h35l-71 -120h-25zM116 -6c-54 0 -83 28 -84 94v126h33v-125c1 -38 15 -65 51 -65c39 0 52 25 52 63v108c0 51 -29 68 -64 88c-33 21 -70 44 -70 107v95c0 63 31 92 82 92c54 0 81 -30 82 -93v-111h-32v111c-1 38 -12 64 -50 64s-49 -24 -49 -63v-94
c0 -50 31 -66 63 -86c35 -21 71 -44 71 -108v-111c0 -62 -27 -92 -85 -92z" />
    <glyph glyph-name="scaron" unicode="&#x161;" horiz-adv-x="233" 
d="M106 621l-58 102h30l39 -72l41 72h30l-59 -102h-23zM116 -6c-54 0 -83 28 -84 94v126h33v-125c1 -38 15 -65 51 -65c39 0 52 25 52 63v108c0 51 -29 68 -64 88c-33 21 -70 44 -70 107v95c0 63 31 92 82 92c54 0 81 -30 82 -93v-111h-32v111c-1 38 -12 64 -50 64
s-49 -24 -49 -63v-94c0 -50 31 -66 63 -86c35 -21 71 -44 71 -108v-111c0 -62 -27 -92 -85 -92z" />
    <glyph glyph-name="scircumflex" unicode="&#x15d;" horiz-adv-x="233" 
d="M120 692l-41 -73h-30l60 101h23l58 -101h-31zM116 -6c-54 0 -83 28 -84 94v126h33v-125c1 -38 15 -65 51 -65c39 0 52 25 52 63v108c0 51 -29 68 -64 88c-33 21 -70 44 -70 107v95c0 63 31 92 82 92c54 0 81 -30 82 -93v-111h-32v111c-1 38 -12 64 -50 64
s-49 -24 -49 -63v-94c0 -50 31 -66 63 -86c35 -21 71 -44 71 -108v-111c0 -62 -27 -92 -85 -92z" />
    <glyph glyph-name="germandbls" unicode="&#xdf;" horiz-adv-x="255" 
d="M72 0h-32v645c0 66 35 94 89 94c55 0 86 -29 86 -92v-166c0 -47 -15 -75 -44 -84c34 -8 49 -36 49 -84v-221c0 -67 -23 -92 -78 -92h-25v31h17c39 0 53 18 53 60v219c0 46 -18 72 -57 72h-13v29h12c39 0 54 26 54 72v164c0 39 -15 62 -54 62s-57 -24 -57 -64v-645z" />
    <glyph glyph-name="t" unicode="t" horiz-adv-x="155" 
d="M146 0h-14c-23 0 -39 3 -51 8c-23 9 -30 38 -30 100v434h-41v26c3 0 24 2 27 3c15 3 16 6 19 27c3 15 4 36 4 67h23v-93h63v-30h-63v-431c0 -24 1 -41 4 -53c4 -23 19 -28 51 -28h8v-30z" />
    <glyph glyph-name="tbar" unicode="&#x167;" horiz-adv-x="155" 
d="M146 0h-14c-23 0 -39 3 -51 8c-23 9 -30 38 -30 100v177h-32v28h32v229h-41v26c3 0 24 2 27 3c15 3 16 6 19 27c3 15 4 36 4 67h23v-93h63v-30h-63v-229h46v-28h-46v-174c0 -24 1 -41 4 -53c4 -23 19 -28 51 -28h8v-30z" />
    <glyph glyph-name="tcaron" unicode="&#x165;" horiz-adv-x="155" 
d="M142 753h29l-31 -113h-22zM146 0h-14c-23 0 -39 3 -51 8c-23 9 -30 38 -30 100v434h-41v26c3 0 24 2 27 3c15 3 16 6 19 27c3 15 4 36 4 67h23v-93h63v-30h-63v-431c0 -24 1 -41 4 -53c4 -23 19 -28 51 -28h8v-30z" />
    <glyph glyph-name="u" unicode="u" horiz-adv-x="244" 
d="M177 57c-9 -42 -31 -62 -63 -62c-55 0 -77 33 -77 117v460h33v-461c0 -66 17 -87 50 -87c38 0 53 33 53 111v437h32v-572h-24z" />
    <glyph glyph-name="uacute" unicode="&#xfa;" horiz-adv-x="244" 
d="M168 737h35l-71 -120h-25zM177 57c-9 -42 -31 -62 -63 -62c-55 0 -77 33 -77 117v460h33v-461c0 -66 17 -87 50 -87c38 0 53 33 53 111v437h32v-572h-24z" />
    <glyph glyph-name="ubreve" unicode="&#x16d;" horiz-adv-x="244" 
d="M121 616c-54 0 -72 29 -75 91h27c3 -46 11 -65 49 -66c35 1 49 20 50 66h26c-1 -62 -25 -91 -77 -91zM177 57c-9 -42 -31 -62 -63 -62c-55 0 -77 33 -77 117v460h33v-461c0 -66 17 -87 50 -87c38 0 53 33 53 111v437h32v-572h-24z" />
    <glyph glyph-name="ucircumflex" unicode="&#xfb;" horiz-adv-x="244" 
d="M122 690l-41 -73h-30l60 101h23l58 -101h-31zM177 57c-9 -42 -31 -62 -63 -62c-55 0 -77 33 -77 117v460h33v-461c0 -66 17 -87 50 -87c38 0 53 33 53 111v437h32v-572h-24z" />
    <glyph glyph-name="udieresis" unicode="&#xfc;" horiz-adv-x="244" 
d="M84 621c-13 0 -21 11 -21 32s8 31 21 31c15 0 21 -11 21 -32c0 -20 -6 -31 -21 -31zM158 621c-15 0 -22 11 -22 32s7 31 22 31s21 -11 21 -32c0 -20 -6 -31 -21 -31zM177 57c-9 -42 -31 -62 -63 -62c-55 0 -77 33 -77 117v460h33v-461c0 -66 17 -87 50 -87
c38 0 53 33 53 111v437h32v-572h-24z" />
    <glyph glyph-name="ugrave" unicode="&#xf9;" horiz-adv-x="244" 
d="M51 722h34l49 -104h-25zM177 57c-9 -42 -31 -62 -63 -62c-55 0 -77 33 -77 117v460h33v-461c0 -66 17 -87 50 -87c38 0 53 33 53 111v437h32v-572h-24z" />
    <glyph glyph-name="uhungarumlaut" unicode="&#x171;" horiz-adv-x="244" 
d="M100 617h-24l43 104h35zM164 617h-24l50 104h35zM177 57c-9 -42 -31 -62 -63 -62c-55 0 -77 33 -77 117v460h33v-461c0 -66 17 -87 50 -87c38 0 53 33 53 111v437h32v-572h-24z" />
    <glyph glyph-name="umacron" unicode="&#x16b;" horiz-adv-x="244" 
d="M57 661h130v-28h-130v28zM177 57c-9 -42 -31 -62 -63 -62c-55 0 -77 33 -77 117v460h33v-461c0 -66 17 -87 50 -87c38 0 53 33 53 111v437h32v-572h-24z" />
    <glyph glyph-name="uni0123" unicode="&#x123;" 
d="M115 626c-17 0 -25 13 -25 46c0 43 15 73 40 90l8 -18c-15 -12 -24 -31 -27 -62c1 5 5 7 9 7c11 0 19 -5 19 -29c0 -23 -8 -34 -24 -34zM111 -128c-59 0 -89 20 -89 63c0 31 28 54 63 66c-39 5 -54 21 -54 50c0 24 20 46 55 55c-31 9 -50 32 -50 79v298c0 47 20 75 53 87
c8 3 19 5 28 6c47 7 63 10 63 43v6h31v-4c0 -43 -20 -48 -60 -52c4 0 8 -2 12 -3c32 -11 47 -39 47 -83v-299c0 -62 -35 -90 -86 -90h-3c-42 0 -60 -16 -60 -37c0 -24 21 -29 63 -29h24c67 0 87 -27 87 -65v-4c0 -50 -48 -87 -119 -87h-5zM122 122c39 0 56 25 56 63v299
c-1 38 -19 63 -55 63c-8 0 -15 -1 -22 -4c-21 -9 -32 -31 -32 -59v-299c0 -38 17 -63 53 -63zM118 -99c47 0 85 25 85 57v4c0 25 -16 37 -60 37c-43 -1 -89 -19 -89 -55v-1c0 -25 17 -42 59 -42h5z" />
    <glyph glyph-name="uni0137" unicode="&#x137;" horiz-adv-x="232" 
d="M119 343l-48 -131v-212h-32v732h32v-407l-4 -79l14 54l102 272h32l-76 -204l86 -368h-33l-65 286zM111 -147c15 12 26 30 27 61c-3 -5 -5 -7 -9 -7c-9 0 -19 6 -19 30c0 21 8 33 24 33c19 0 25 -11 25 -46c0 -43 -13 -72 -40 -89z" />
    <glyph glyph-name="uni013C" unicode="&#x13c;" horiz-adv-x="112" 
d="M40 0v732h32v-732h-32zM33 -158c15 12 26 30 27 61c-3 -5 -5 -7 -9 -7c-9 0 -19 6 -19 30c0 21 8 33 24 33c19 0 25 -11 25 -46c0 -43 -13 -72 -40 -89z" />
    <glyph glyph-name="uni0146" unicode="&#x146;" horiz-adv-x="250" 
d="M71 0h-32v572h25l4 -63c11 46 33 68 69 68c55 0 76 -33 76 -116v-461h-33v461c0 64 -14 87 -49 87c-38 0 -60 -32 -60 -110v-438zM104 -149c15 12 26 30 27 61c-3 -5 -5 -7 -9 -7c-9 0 -19 6 -19 30c0 21 8 33 24 33c19 0 25 -11 25 -46c0 -43 -13 -72 -40 -89z" />
    <glyph glyph-name="uni0157" unicode="&#x157;" horiz-adv-x="156" 
d="M39 0v572h25l5 -74c7 51 26 74 77 74h5v-36h-9c-58 0 -71 -31 -71 -114v-422h-32zM35 -158c15 12 26 30 27 61c-3 -5 -5 -7 -9 -7c-9 0 -19 6 -19 30c0 21 8 33 24 33c19 0 25 -11 25 -46c0 -43 -13 -72 -40 -89z" />
    <glyph glyph-name="uni015F" unicode="&#x15f;" horiz-adv-x="233" 
d="M116 -159c-43 0 -66 19 -71 61h29c3 -27 18 -36 42 -36c27 0 44 8 44 33c0 23 -14 30 -45 30h-11v66c-47 4 -71 35 -72 93v126h33v-125c1 -38 15 -65 51 -65c39 0 52 25 52 63v108c0 51 -29 68 -64 88c-33 21 -70 44 -70 107v95c0 63 31 92 82 92c54 0 81 -30 82 -93
v-111h-32v111c-1 38 -12 64 -50 64s-49 -24 -49 -63v-94c0 -50 31 -66 63 -86c35 -21 71 -44 71 -108v-111c0 -56 -23 -86 -71 -91v-43c38 -3 59 -19 59 -52c0 -40 -31 -59 -73 -59z" />
    <glyph glyph-name="uni0163" unicode="&#x163;" horiz-adv-x="155" 
d="M146 0h-14c-23 0 -39 3 -51 8c-23 9 -30 38 -30 100v434h-41v26c3 0 24 2 27 3c15 3 16 6 19 27c3 15 4 36 4 67h23v-93h63v-30h-63v-431c0 -24 1 -41 4 -53c4 -23 19 -28 51 -28h8v-30zM73 -161c15 12 26 30 27 61c-3 -5 -5 -7 -9 -7c-9 0 -19 6 -19 30c0 21 8 33 24 33
c19 0 25 -11 25 -46c0 -43 -13 -72 -40 -89z" />
    <glyph glyph-name="uni0219" unicode="&#x219;" horiz-adv-x="233" 
d="M116 -6c-54 0 -83 28 -84 94v126h33v-125c1 -38 15 -65 51 -65c39 0 52 25 52 63v108c0 51 -29 68 -64 88c-33 21 -70 44 -70 107v95c0 63 31 92 82 92c54 0 81 -30 82 -93v-111h-32v111c-1 38 -12 64 -50 64s-49 -24 -49 -63v-94c0 -50 31 -66 63 -86
c35 -21 71 -44 71 -108v-111c0 -62 -27 -92 -85 -92zM94 -165c15 12 26 30 27 61c-3 -5 -5 -7 -9 -7c-9 0 -19 6 -19 30c0 21 8 33 24 33c19 0 25 -11 25 -46c0 -43 -13 -72 -40 -89z" />
    <glyph glyph-name="uogonek" unicode="&#x173;" horiz-adv-x="244" 
d="M194 -142c-44 0 -67 20 -67 63c0 31 20 60 53 88l-3 48c-9 -42 -31 -62 -63 -62c-55 0 -77 33 -77 117v460h33v-461c0 -66 17 -87 50 -87c38 0 53 33 53 111v437h32v-571l1 -1c-33 -29 -51 -53 -51 -78c0 -23 13 -39 40 -39c24 0 39 12 44 36h30c-9 -42 -35 -61 -75 -61z
" />
    <glyph glyph-name="uring" unicode="&#x16f;" horiz-adv-x="244" 
d="M120 616c-38 0 -67 24 -67 66c0 39 28 66 67 66c40 0 68 -26 68 -66c0 -42 -29 -66 -68 -66zM120 641c24 0 40 17 40 41s-16 41 -40 41c-23 0 -39 -17 -39 -41s15 -41 39 -41zM177 57c-9 -42 -31 -62 -63 -62c-55 0 -77 33 -77 117v460h33v-461c0 -66 17 -87 50 -87
c38 0 53 33 53 111v437h32v-572h-24z" />
    <glyph glyph-name="utilde" unicode="&#x169;" horiz-adv-x="244" 
d="M36 620c0 50 13 69 44 69c13 0 25 -4 34 -11c19 -16 33 -34 46 -34c16 0 22 9 22 44h26c-1 -46 -14 -71 -46 -71c-13 0 -25 4 -34 12c-19 15 -32 34 -48 34c-15 0 -18 -11 -18 -43h-26zM177 57c-9 -42 -31 -62 -63 -62c-55 0 -77 33 -77 117v460h33v-461
c0 -66 17 -87 50 -87c38 0 53 33 53 111v437h32v-572h-24z" />
    <glyph glyph-name="v" unicode="v" horiz-adv-x="214" 
d="M94 0l-77 572h33l52 -409l8 -124l7 124l49 409h32l-72 -572h-32z" />
    <glyph glyph-name="w" unicode="w" horiz-adv-x="332" 
d="M101 0h-29l-55 572h30l38 -421l4 -99l9 99l58 421h20l58 -421l8 -99l5 99l38 421h30l-57 -572h-28l-57 413l-7 102l-7 -102z" />
    <glyph glyph-name="wacute" unicode="&#x1e83;" horiz-adv-x="332" 
d="M213 739h35l-71 -120h-25zM101 0h-29l-55 572h30l38 -421l4 -99l9 99l58 421h20l58 -421l8 -99l5 99l38 421h30l-57 -572h-28l-57 413l-7 102l-7 -102z" />
    <glyph glyph-name="wcircumflex" unicode="&#x175;" horiz-adv-x="332" 
d="M170 692l-41 -73h-30l60 101h23l58 -101h-31zM101 0h-29l-55 572h30l38 -421l4 -99l9 99l58 421h20l58 -421l8 -99l5 99l38 421h30l-57 -572h-28l-57 413l-7 102l-7 -102z" />
    <glyph glyph-name="wdieresis" unicode="&#x1e85;" horiz-adv-x="332" 
d="M129 623c-13 0 -21 11 -21 32s8 31 21 31c15 0 21 -11 21 -32c0 -20 -6 -31 -21 -31zM203 623c-15 0 -22 11 -22 32s7 31 22 31s21 -11 21 -32c0 -20 -6 -31 -21 -31zM101 0h-29l-55 572h30l38 -421l4 -99l9 99l58 421h20l58 -421l8 -99l5 99l38 421h30l-57 -572h-28
l-57 413l-7 102l-7 -102z" />
    <glyph glyph-name="wgrave" unicode="&#x1e81;" horiz-adv-x="332" 
d="M96 724h34l49 -104h-25zM101 0h-29l-55 572h30l38 -421l4 -99l9 99l58 421h20l58 -421l8 -99l5 99l38 421h30l-57 -572h-28l-57 413l-7 102l-7 -102z" />
    <glyph glyph-name="x" unicode="x" horiz-adv-x="222" 
d="M40 0h-34l85 304l-74 268h32l43 -161l17 -89l17 88l44 162h31l-74 -269l89 -303h-33l-55 191l-19 88l-18 -88z" />
    <glyph glyph-name="y" unicode="y" horiz-adv-x="215" 
d="M30 -107v32h18c27 0 42 9 45 48l5 41l-82 558h33l55 -399l10 -124l6 124l46 399h32l-73 -601c-7 -59 -24 -78 -74 -78h-21z" />
    <glyph glyph-name="yacute" unicode="&#xfd;" horiz-adv-x="215" 
d="M156 735h35l-71 -120h-25zM30 -107v32h18c27 0 42 9 45 48l5 41l-82 558h33l55 -399l10 -124l6 124l46 399h32l-73 -601c-7 -59 -24 -78 -74 -78h-21z" />
    <glyph glyph-name="ycircumflex" unicode="&#x177;" horiz-adv-x="215" 
d="M110 688l-41 -73h-30l60 101h23l58 -101h-31zM30 -107v32h18c27 0 42 9 45 48l5 41l-82 558h33l55 -399l10 -124l6 124l46 399h32l-73 -601c-7 -59 -24 -78 -74 -78h-21z" />
    <glyph glyph-name="ydieresis" unicode="&#xff;" horiz-adv-x="215" 
d="M72 619c-13 0 -21 11 -21 32s8 31 21 31c15 0 21 -11 21 -32c0 -20 -6 -31 -21 -31zM146 619c-15 0 -22 11 -22 32s7 31 22 31s21 -11 21 -32c0 -20 -6 -31 -21 -31zM30 -107v32h18c27 0 42 9 45 48l5 41l-82 558h33l55 -399l10 -124l6 124l46 399h32l-73 -601
c-7 -59 -24 -78 -74 -78h-21z" />
    <glyph glyph-name="ygrave" unicode="&#x1ef3;" horiz-adv-x="215" 
d="M39 720h34l49 -104h-25zM30 -107v32h18c27 0 42 9 45 48l5 41l-82 558h33l55 -399l10 -124l6 124l46 399h32l-73 -601c-7 -59 -24 -78 -74 -78h-21z" />
    <glyph glyph-name="z" unicode="z" horiz-adv-x="195" 
d="M18 0v24l128 517h-123v31h154v-30l-125 -510h128v-32h-162z" />
    <glyph glyph-name="zacute" unicode="&#x17a;" horiz-adv-x="195" 
d="M146 739h35l-71 -120h-25zM18 0v24l128 517h-123v31h154v-30l-125 -510h128v-32h-162z" />
    <glyph glyph-name="zcaron" unicode="&#x17e;" horiz-adv-x="195" 
d="M91 618l-58 102h30l39 -72l41 72h30l-59 -102h-23zM18 0v24l128 517h-123v31h154v-30l-125 -510h128v-32h-162z" />
    <glyph glyph-name="zdotaccent" unicode="&#x17c;" horiz-adv-x="195" 
d="M101 619c-16 0 -25 12 -25 35c0 24 9 35 25 35c17 0 25 -12 25 -36c0 -23 -8 -34 -25 -34zM18 0v24l128 517h-123v31h154v-30l-125 -510h128v-32h-162z" />
    <glyph glyph-name="g.alt" 
d="M111 -128c-59 0 -89 20 -89 63c0 31 28 54 63 66c-39 5 -54 21 -54 50c0 24 20 46 55 55c-31 9 -50 32 -50 79v298c0 47 20 75 53 87c8 3 19 5 28 6c47 7 63 10 63 43v6h31v-4c0 -43 -20 -48 -60 -52c4 0 8 -2 12 -3c32 -11 47 -39 47 -83v-299c0 -62 -35 -90 -86 -90h-3
c-42 0 -60 -16 -60 -37c0 -24 21 -29 63 -29h24c67 0 87 -27 87 -65v-4c0 -50 -48 -87 -119 -87h-5zM122 122c39 0 56 25 56 63v299c-1 38 -19 63 -55 63c-8 0 -15 -1 -22 -4c-21 -9 -32 -31 -32 -59v-299c0 -38 17 -63 53 -63zM118 -99c47 0 85 25 85 57v4
c0 25 -16 37 -60 37c-43 -1 -89 -19 -89 -55v-1c0 -25 17 -42 59 -42h5z" />
    <glyph glyph-name="gbreve.alt" horiz-adv-x="255" 
d="M126 621c-54 0 -72 29 -75 91h27c3 -46 11 -65 49 -66c35 1 49 20 50 66h26c-1 -62 -25 -91 -77 -91zM127 -191c-63 0 -86 35 -86 93v37h32v-36c0 -43 14 -65 54 -65c43 0 56 26 56 65v155c-9 -46 -30 -64 -64 -64c-55 0 -83 40 -83 122v333c0 99 33 128 81 128
c39 0 61 -21 70 -63l3 58h25v-670c0 -56 -29 -93 -88 -93zM125 23c32 0 58 30 58 100v313c0 72 -14 112 -60 112c-32 0 -54 -25 -54 -100v-329c0 -64 18 -96 56 -96z" />
    <glyph glyph-name="gcircumflex.alt" horiz-adv-x="255" 
d="M130 695l-41 -73h-30l60 101h23l58 -101h-31zM127 -191c-63 0 -86 35 -86 93v37h32v-36c0 -43 14 -65 54 -65c43 0 56 26 56 65v155c-9 -46 -30 -64 -64 -64c-55 0 -83 40 -83 122v333c0 99 33 128 81 128c39 0 61 -21 70 -63l3 58h25v-670c0 -56 -29 -93 -88 -93z
M125 23c32 0 58 30 58 100v313c0 72 -14 112 -60 112c-32 0 -54 -25 -54 -100v-329c0 -64 18 -96 56 -96z" />
    <glyph glyph-name="gcommaaccent.alt" horiz-adv-x="255" 
d="M125 621c-17 0 -25 13 -25 46c0 43 15 73 40 90l8 -18c-15 -12 -24 -31 -27 -62c1 5 5 7 9 7c11 0 19 -5 19 -29c0 -23 -8 -34 -24 -34zM127 -191c-63 0 -86 35 -86 93v37h32v-36c0 -43 14 -65 54 -65c43 0 56 26 56 65v155c-9 -46 -30 -64 -64 -64c-55 0 -83 40 -83 122
v333c0 99 33 128 81 128c39 0 61 -21 70 -63l3 58h25v-670c0 -56 -29 -93 -88 -93zM125 23c32 0 58 30 58 100v313c0 72 -14 112 -60 112c-32 0 -54 -25 -54 -100v-329c0 -64 18 -96 56 -96z" />
    <glyph glyph-name="gdotaccent.alt" horiz-adv-x="255" 
d="M126 622c-16 0 -25 12 -25 35c0 24 9 35 25 35c17 0 25 -12 25 -36c0 -23 -8 -34 -25 -34zM127 -191c-63 0 -86 35 -86 93v37h32v-36c0 -43 14 -65 54 -65c43 0 56 26 56 65v155c-9 -46 -30 -64 -64 -64c-55 0 -83 40 -83 122v333c0 99 33 128 81 128c39 0 61 -21 70 -63
l3 58h25v-670c0 -56 -29 -93 -88 -93zM125 23c32 0 58 30 58 100v313c0 72 -14 112 -60 112c-32 0 -54 -25 -54 -100v-329c0 -64 18 -96 56 -96z" />
    <glyph glyph-name="g.alt2" horiz-adv-x="255" 
d="M127 -191c-63 0 -86 35 -86 93v37h32v-36c0 -43 14 -65 54 -65c43 0 56 26 56 65v155c-9 -46 -30 -64 -64 -64c-55 0 -83 40 -83 122v333c0 99 33 128 81 128c39 0 61 -21 70 -63l3 58h25v-670c0 -56 -29 -93 -88 -93zM125 23c32 0 58 30 58 100v313
c0 72 -14 112 -60 112c-32 0 -54 -25 -54 -100v-329c0 -64 18 -96 56 -96z" />
    <glyph glyph-name="i.dot" horiz-adv-x="112" 
d="M56 627c-15 0 -22 12 -22 35c0 25 6 34 23 34c16 0 22 -9 22 -34c0 -23 -7 -35 -23 -35zM40 574c3 -1 8 -2 16 -2s13 1 16 2v-574h-32v574z" />
    <glyph glyph-name="ordfeminine" unicode="&#xaa;" horiz-adv-x="198" 
d="M138 344c-11 -29 -28 -44 -55 -44c-38 0 -54 22 -54 78v65c0 32 9 51 18 63c12 12 26 19 41 24c27 11 48 18 48 46v71c0 25 -13 41 -38 41c-24 0 -36 -17 -36 -42v-79h-30v80c0 40 23 67 66 67c44 0 66 -26 66 -66v-344h-24zM90 327c27 0 46 25 46 64v148
c-5 -13 -15 -20 -35 -28c-12 -5 -22 -9 -31 -20c-8 -9 -11 -21 -11 -45v-64c0 -42 10 -55 31 -55z" />
    <glyph glyph-name="ordmasculine" unicode="&#xba;" horiz-adv-x="199" 
d="M100 300c-44 0 -67 26 -67 68v278c0 43 25 68 67 68c43 0 66 -24 66 -67v-278c0 -43 -23 -69 -66 -69zM100 329c24 0 36 16 36 41v276c0 25 -11 42 -36 42c-24 0 -37 -14 -37 -42v-277c0 -23 12 -40 37 -40z" />
    <glyph glyph-name="uni03BC" unicode="&#x3bc;" 
d="M123 -6c-27 0 -44 15 -52 44v-232h-32v766h33v-452c0 -58 10 -95 50 -95c38 0 53 32 53 110v437h32v-572h-24l-4 52c-9 -39 -28 -58 -56 -58z" />
    <glyph glyph-name="pi" unicode="&#x3c0;" horiz-adv-x="368" 
d="M246 679h-126v-679h-33v679h-70v29h332v-29h-70v-602c0 -33 8 -46 41 -46h25v-31h-29c-54 0 -70 23 -70 75v604z" />
    <glyph glyph-name="zero" unicode="0" horiz-adv-x="268" 
d="M134 -6c-58 0 -94 35 -94 101v518c0 63 35 101 94 101c60 0 94 -38 94 -101v-518c0 -66 -35 -101 -94 -101zM134 25c43 0 61 28 61 72v516c0 43 -18 72 -61 72c-42 0 -61 -29 -61 -72v-516c0 -43 19 -72 61 -72z" />
    <glyph glyph-name="one" unicode="1" horiz-adv-x="192" 
d="M16 0v32h63v591c-11 -19 -30 -28 -55 -29v28c47 1 55 25 63 88h26v-678h63v-32h-160z" />
    <glyph glyph-name="two" unicode="2" horiz-adv-x="258" 
d="M37 0v93c0 87 40 151 79 211c38 59 73 113 73 184v127c0 43 -15 70 -58 70c-42 0 -58 -28 -58 -71v-167h-34v166c0 63 34 101 92 101c59 0 91 -38 91 -100v-126c0 -79 -37 -138 -75 -198c-39 -59 -76 -117 -76 -195v-61h156v-34h-190z" />
    <glyph glyph-name="three" unicode="3" horiz-adv-x="266" 
d="M132 -6c-59 0 -95 35 -95 101v178h33v-177c0 -44 20 -71 62 -71c43 0 62 25 62 71v175c0 54 -20 82 -72 82h-22v33h21c48 0 69 31 69 85v144c0 42 -15 70 -58 70c-42 0 -58 -28 -58 -70v-151h-33v151c0 62 33 99 91 99c59 0 91 -36 91 -99v-146c0 -55 -17 -87 -55 -99
c40 -9 59 -42 59 -97v-178c0 -64 -36 -101 -95 -101z" />
    <glyph glyph-name="four" unicode="4" horiz-adv-x="248" 
d="M242 170h-54v-170h-31v170h-139v27l138 511h32v-506h54v-32zM143 549l-93 -347h107v343l8 109z" />
    <glyph glyph-name="five" unicode="5" horiz-adv-x="259" 
d="M129 -6c-59 0 -94 36 -94 100v168h33v-164c0 -43 18 -72 60 -72c43 0 60 28 60 72v290c0 51 -16 76 -50 76c-31 0 -53 -31 -65 -74l-11 -35l-26 8l24 345h166v-3c0 -25 -7 -30 -42 -30h-96c-1 -16 -4 -40 -5 -69c-4 -59 -8 -128 -12 -180c11 39 31 70 74 70
c52 0 77 -33 77 -101v-301c0 -64 -34 -100 -93 -100z" />
    <glyph glyph-name="six" unicode="6" horiz-adv-x="263" 
d="M230 96c0 -66 -36 -102 -95 -102s-95 35 -95 102v516c0 63 34 102 94 102c62 0 94 -39 94 -102v-148h-34v149c0 43 -18 72 -60 72s-61 -29 -61 -72v-255c13 36 38 54 74 54c56 0 83 -38 83 -101v-215zM135 25c42 0 61 28 61 71v210c0 46 -15 76 -57 76
c-31 0 -59 -25 -66 -73v-213c0 -42 20 -71 62 -71z" />
    <glyph glyph-name="seven" unicode="7" horiz-adv-x="214" 
d="M42 0c21 249 66 483 117 675h-141v33h174v-29c-52 -202 -95 -436 -116 -679h-34z" />
    <glyph glyph-name="eight" unicode="8" horiz-adv-x="264" 
d="M133 -6c-62 0 -97 37 -97 101v195c0 44 20 77 52 90c-32 12 -48 41 -48 87v147c0 60 31 100 93 100c60 0 92 -40 92 -100v-147c0 -46 -15 -75 -49 -88c34 -13 52 -46 52 -89v-195c0 -64 -35 -101 -95 -101zM133 394c43 0 59 30 59 73v147c0 42 -16 71 -59 71
c-42 0 -61 -29 -61 -71v-147c0 -43 18 -73 61 -73zM133 25c43 0 62 28 62 72v194c0 42 -19 74 -62 74s-63 -32 -63 -74v-194c0 -43 20 -72 63 -72z" />
    <glyph glyph-name="nine" unicode="9" horiz-adv-x="263" 
d="M129 -6c-59 0 -91 35 -91 101v164h33v-162c0 -43 16 -72 58 -72s61 28 61 72v274c-12 -35 -35 -53 -69 -53c-59 0 -87 37 -87 99v194c0 63 34 103 94 103c62 0 95 -39 95 -103v-516c0 -67 -36 -101 -94 -101zM127 348c32 0 58 24 63 74v191c0 43 -19 72 -61 72
s-62 -29 -62 -72v-190c0 -46 17 -75 60 -75z" />
    <glyph glyph-name="zero.inf" horiz-adv-x="150" 
d="M76 -146c-33 0 -55 19 -55 53v239c0 34 23 53 55 53c34 0 54 -19 54 -53v-239c0 -34 -22 -53 -54 -53zM76 -122c19 0 28 10 28 30v236c0 21 -9 32 -28 32s-29 -11 -29 -32v-236c0 -20 10 -30 29 -30z" />
    <glyph glyph-name="one.inf" horiz-adv-x="116" 
d="M10 -143v25h35v262c-4 -13 -15 -20 -32 -20v26c28 1 32 13 35 46h23v-314h35v-25h-96z" />
    <glyph glyph-name="two.inf" horiz-adv-x="145" 
d="M20 -112c0 44 19 76 40 105s40 59 40 95v58c0 21 -9 31 -26 31c-19 0 -28 -10 -28 -31v-86h-25v86c0 34 20 54 53 54c35 0 52 -20 52 -54v-59c0 -40 -19 -71 -39 -100c-21 -29 -40 -59 -40 -98v-6h82v-26h-109v31z" />
    <glyph glyph-name="three.inf" horiz-adv-x="148" 
d="M74 -146c-36 0 -55 18 -55 53v77h26v-76c0 -20 10 -30 29 -30s28 10 28 30v73c0 31 -9 38 -36 38h-11v26h10c24 0 35 8 35 41v61c0 20 -9 29 -26 29c-19 0 -28 -9 -28 -29v-66h-25v65c0 34 20 54 53 54c35 0 51 -20 51 -54v-59c0 -33 -6 -47 -26 -54c20 -4 29 -21 29 -50
v-76c0 -35 -18 -53 -54 -53z" />
    <glyph glyph-name="four.inf" horiz-adv-x="142" 
d="M113 -68v-75h-23v75h-78v21l75 243h26v-242h25v-22h-25zM36 -46h54v150l6 71l-15 -70z" />
    <glyph glyph-name="five.inf" horiz-adv-x="146" 
d="M73 -146c-36 0 -54 18 -54 53v63h25v-62c0 -20 10 -30 29 -30s28 10 28 30v125c0 24 -11 33 -26 33s-25 -10 -30 -31l-4 -18l-22 4l13 175h88v-2c0 -19 -2 -23 -21 -23h-45c-1 -28 -5 -78 -8 -112c7 21 20 31 39 31c28 0 41 -17 41 -53v-130c0 -35 -17 -53 -53 -53z" />
    <glyph glyph-name="six.inf" horiz-adv-x="148" 
d="M130 -91c0 -36 -17 -55 -55 -55c-36 0 -54 19 -54 55v237c0 34 17 54 53 54c39 0 54 -20 54 -54v-69h-25v69c0 21 -9 31 -29 31c-19 0 -28 -10 -28 -31v-125c7 17 19 29 40 29c32 0 44 -21 44 -53v-88zM75 -122c20 0 29 11 29 31v84c0 24 -9 35 -28 35
c-17 0 -27 -13 -30 -32v-87c0 -20 10 -31 29 -31z" />
    <glyph glyph-name="seven.inf" horiz-adv-x="116" 
d="M23 -143c9 109 31 213 56 313h-69v26h95v-18c-29 -106 -49 -214 -56 -321h-26z" />
    <glyph glyph-name="eight.inf" horiz-adv-x="148" 
d="M74 -146c-36 0 -55 18 -55 53v78c0 24 9 40 26 47c-15 7 -23 22 -23 45v70c0 34 19 53 52 53c35 0 53 -19 53 -53v-70c0 -23 -8 -37 -24 -45c17 -7 26 -23 26 -47v-78c0 -35 -20 -53 -55 -53zM74 43c19 0 28 12 28 33v71c0 20 -9 30 -28 30s-28 -10 -28 -30v-71
c0 -19 8 -33 28 -33zM74 -122c20 0 30 10 30 29v79c0 23 -10 33 -30 33s-30 -10 -30 -33v-79c0 -17 10 -29 30 -29z" />
    <glyph glyph-name="nine.inf" horiz-adv-x="148" 
d="M74 -147c-39 0 -53 21 -53 55v69h25v-69c0 -21 7 -31 28 -31c19 0 28 11 28 31v124c-5 -17 -18 -28 -39 -28c-31 0 -45 21 -45 54v85c0 35 17 56 55 56c39 0 54 -21 54 -56v-236c0 -34 -17 -54 -53 -54zM73 27c19 0 26 14 29 31v85c0 23 -9 33 -29 33
c-19 0 -29 -10 -29 -33v-80c0 -24 10 -36 29 -36z" />
    <glyph glyph-name="uni2080" unicode="&#x2080;" horiz-adv-x="150" 
d="M76 -3c-33 0 -55 20 -55 53v239c0 34 23 53 55 53c34 0 54 -19 54 -53v-239c0 -33 -22 -53 -54 -53zM76 21c19 0 28 10 28 30v236c0 21 -9 32 -28 32s-29 -11 -29 -32v-236c0 -20 10 -30 29 -30z" />
    <glyph glyph-name="uni2081" unicode="&#x2081;" horiz-adv-x="116" 
d="M10 0v25h35v262c-4 -13 -15 -20 -32 -20v26c28 1 32 13 35 46h23v-314h35v-25h-96z" />
    <glyph glyph-name="uni2082" unicode="&#x2082;" horiz-adv-x="145" 
d="M20 31c0 44 19 76 40 105s40 59 40 95v58c0 21 -9 31 -26 31c-19 0 -28 -10 -28 -31v-86h-25v86c0 34 20 54 53 54c35 0 52 -20 52 -54v-59c0 -40 -19 -71 -39 -100c-21 -29 -40 -59 -40 -98v-6h82v-26h-109v31z" />
    <glyph glyph-name="uni2083" unicode="&#x2083;" horiz-adv-x="148" 
d="M74 -3c-36 0 -55 18 -55 53v77h26v-76c0 -20 10 -30 29 -30s28 10 28 30v73c0 31 -9 38 -36 38h-11v26h10c24 0 35 8 35 41v61c0 20 -9 29 -26 29c-19 0 -28 -9 -28 -29v-66h-25v65c0 34 20 54 53 54c35 0 51 -20 51 -54v-59c0 -33 -6 -47 -26 -54c20 -4 29 -21 29 -50
v-76c0 -35 -18 -53 -54 -53z" />
    <glyph glyph-name="uni2084" unicode="&#x2084;" horiz-adv-x="142" 
d="M113 75v-75h-23v75h-78v21l75 243h26v-242h25v-22h-25zM36 97h54v150l6 71l-15 -70z" />
    <glyph glyph-name="uni2085" unicode="&#x2085;" horiz-adv-x="146" 
d="M73 -3c-36 0 -54 18 -54 53v63h25v-62c0 -20 10 -30 29 -30s28 10 28 30v125c0 24 -11 33 -26 33s-25 -10 -30 -31l-4 -18l-22 4l13 175h88v-2c0 -19 -2 -23 -21 -23h-45c-1 -28 -5 -78 -8 -112c7 21 20 31 39 31c28 0 41 -17 41 -53v-130c0 -35 -17 -53 -53 -53z" />
    <glyph glyph-name="uni2086" unicode="&#x2086;" horiz-adv-x="148" 
d="M130 52c0 -36 -17 -55 -55 -55c-36 0 -54 19 -54 55v237c0 34 17 54 53 54c39 0 54 -20 54 -54v-69h-25v69c0 21 -9 31 -29 31c-19 0 -28 -10 -28 -31v-125c7 17 19 29 40 29c32 0 44 -21 44 -53v-88zM75 21c20 0 29 11 29 31v84c0 24 -9 35 -28 35
c-17 0 -27 -13 -30 -32v-87c0 -20 10 -31 29 -31z" />
    <glyph glyph-name="uni2087" unicode="&#x2087;" horiz-adv-x="116" 
d="M23 0c9 109 31 213 56 313h-69v26h95v-18c-29 -106 -49 -214 -56 -321h-26z" />
    <glyph glyph-name="uni2088" unicode="&#x2088;" horiz-adv-x="148" 
d="M74 -3c-36 0 -55 18 -55 53v78c0 24 9 40 26 47c-15 7 -23 22 -23 45v70c0 34 19 53 52 53c35 0 53 -19 53 -53v-70c0 -23 -8 -37 -24 -45c17 -7 26 -23 26 -47v-78c0 -35 -20 -53 -55 -53zM74 186c19 0 28 12 28 33v71c0 20 -9 30 -28 30s-28 -10 -28 -30v-71
c0 -19 8 -33 28 -33zM74 21c20 0 30 10 30 29v79c0 23 -10 33 -30 33s-30 -10 -30 -33v-79c0 -17 10 -29 30 -29z" />
    <glyph glyph-name="uni2089" unicode="&#x2089;" horiz-adv-x="148" 
d="M74 -3c-39 0 -53 22 -53 55v69h25v-69c0 -21 7 -31 28 -31c19 0 28 11 28 31v124c-5 -17 -18 -28 -39 -28c-31 0 -45 21 -45 54v85c0 35 17 56 55 56c39 0 54 -21 54 -56v-236c0 -33 -17 -54 -53 -54zM73 171c19 0 26 14 29 31v85c0 23 -9 33 -29 33
c-19 0 -29 -10 -29 -33v-80c0 -24 10 -36 29 -36z" />
    <glyph glyph-name="uni2070" unicode="&#x2070;" horiz-adv-x="150" 
d="M76 367c-33 0 -55 20 -55 53v239c0 34 23 53 55 53c34 0 54 -19 54 -53v-239c0 -33 -22 -53 -54 -53zM76 391c19 0 28 10 28 30v236c0 21 -9 32 -28 32s-29 -11 -29 -32v-236c0 -20 10 -30 29 -30z" />
    <glyph glyph-name="uni00B9" unicode="&#xb9;" horiz-adv-x="116" 
d="M10 370v25h35v262c-4 -13 -15 -20 -32 -20v26c28 1 32 13 35 46h23v-314h35v-25h-96z" />
    <glyph glyph-name="uni00B2" unicode="&#xb2;" horiz-adv-x="145" 
d="M20 401c0 44 19 76 40 105s40 59 40 95v58c0 21 -9 31 -26 31c-19 0 -28 -10 -28 -31v-86h-25v86c0 34 20 54 53 54c35 0 52 -20 52 -54v-59c0 -40 -19 -71 -39 -100c-21 -29 -40 -59 -40 -98v-6h82v-26h-109v31z" />
    <glyph glyph-name="uni00B3" unicode="&#xb3;" horiz-adv-x="148" 
d="M74 367c-36 0 -55 18 -55 53v77h26v-76c0 -20 10 -30 29 -30s28 10 28 30v73c0 31 -9 38 -36 38h-11v26h10c24 0 35 8 35 41v61c0 20 -9 29 -26 29c-19 0 -28 -9 -28 -29v-66h-25v65c0 34 20 54 53 54c35 0 51 -20 51 -54v-59c0 -33 -6 -47 -26 -54c20 -4 29 -21 29 -50
v-76c0 -35 -18 -53 -54 -53z" />
    <glyph glyph-name="uni2074" unicode="&#x2074;" horiz-adv-x="142" 
d="M113 445v-75h-23v75h-78v21l75 243h26v-242h25v-22h-25zM36 467h54v150l6 71l-15 -70z" />
    <glyph glyph-name="uni2075" unicode="&#x2075;" horiz-adv-x="146" 
d="M73 367c-36 0 -54 18 -54 53v63h25v-62c0 -20 10 -30 29 -30s28 10 28 30v125c0 24 -11 33 -26 33s-25 -10 -30 -31l-4 -18l-22 4l13 175h88v-2c0 -19 -2 -23 -21 -23h-45c-1 -28 -5 -78 -8 -112c7 21 20 31 39 31c28 0 41 -17 41 -53v-130c0 -35 -17 -53 -53 -53z" />
    <glyph glyph-name="uni2076" unicode="&#x2076;" horiz-adv-x="148" 
d="M130 422c0 -36 -17 -55 -55 -55c-36 0 -54 19 -54 55v237c0 34 17 54 53 54c39 0 54 -20 54 -54v-69h-25v69c0 21 -9 31 -29 31c-19 0 -28 -10 -28 -31v-125c7 17 19 29 40 29c32 0 44 -21 44 -53v-88zM75 391c20 0 29 11 29 31v84c0 24 -9 35 -28 35
c-17 0 -27 -13 -30 -32v-87c0 -20 10 -31 29 -31z" />
    <glyph glyph-name="uni2077" unicode="&#x2077;" horiz-adv-x="116" 
d="M23 370c9 109 31 213 56 313h-69v26h95v-18c-29 -106 -49 -214 -56 -321h-26z" />
    <glyph glyph-name="uni2078" unicode="&#x2078;" horiz-adv-x="148" 
d="M74 367c-36 0 -55 18 -55 53v78c0 24 9 40 26 47c-15 7 -23 22 -23 45v70c0 34 19 53 52 53c35 0 53 -19 53 -53v-70c0 -23 -8 -37 -24 -45c17 -7 26 -23 26 -47v-78c0 -35 -20 -53 -55 -53zM74 556c19 0 28 12 28 33v71c0 20 -9 30 -28 30s-28 -10 -28 -30v-71
c0 -19 8 -33 28 -33zM74 391c20 0 30 10 30 29v79c0 23 -10 33 -30 33s-30 -10 -30 -33v-79c0 -17 10 -29 30 -29z" />
    <glyph glyph-name="uni2079" unicode="&#x2079;" horiz-adv-x="148" 
d="M74 367c-39 0 -53 22 -53 55v69h25v-69c0 -21 7 -31 28 -31c19 0 28 11 28 31v124c-5 -17 -18 -28 -39 -28c-31 0 -45 21 -45 54v85c0 35 17 56 55 56c39 0 54 -21 54 -56v-236c0 -33 -17 -54 -53 -54zM73 541c19 0 26 14 29 31v85c0 23 -9 33 -29 33
c-19 0 -29 -10 -29 -33v-80c0 -24 10 -36 29 -36z" />
    <glyph glyph-name="fraction" unicode="&#x2044;" horiz-adv-x="330" 
d="M173 399l97 321l30 -8l-116 -316zM158 322l-98 -333l-32 9l119 327z" />
    <glyph glyph-name="uni215F" unicode="&#x215f;" horiz-adv-x="330" 
d="M173 399l97 321l30 -8l-116 -316zM29 370v25h35v262c-4 -13 -15 -20 -32 -20v26c28 1 32 13 35 46h23v-314h35v-25h-96zM158 322l-98 -333l-32 9l119 327z" />
    <glyph glyph-name="onehalf" unicode="&#xbd;" horiz-adv-x="330" 
d="M173 399l97 321l30 -8l-116 -316zM29 370v25h35v262c-4 -13 -15 -20 -32 -20v26c28 1 32 13 35 46h23v-314h35v-25h-96zM192 31c0 44 19 76 40 105s40 59 40 95v58c0 21 -9 31 -26 31c-19 0 -28 -10 -28 -31v-86h-25v86c0 34 20 54 53 54c35 0 52 -20 52 -54v-59
c0 -40 -19 -71 -39 -100c-21 -29 -40 -59 -40 -98v-6h82v-26h-109v31zM158 322l-98 -333l-32 9l119 327z" />
    <glyph glyph-name="uni2153" unicode="&#x2153;" horiz-adv-x="330" 
d="M173 399l97 321l30 -8l-116 -316zM29 370v25h35v262c-4 -13 -15 -20 -32 -20v26c28 1 32 13 35 46h23v-314h35v-25h-96zM246 -3c-36 0 -55 18 -55 53v77h26v-76c0 -20 10 -30 29 -30s28 10 28 30v73c0 31 -9 38 -36 38h-11v26h10c24 0 35 8 35 41v61c0 20 -9 29 -26 29
c-19 0 -28 -9 -28 -29v-66h-25v65c0 34 20 54 53 54c35 0 51 -20 51 -54v-59c0 -33 -6 -47 -26 -54c20 -4 29 -21 29 -50v-76c0 -35 -18 -53 -54 -53zM158 322l-98 -333l-32 9l119 327z" />
    <glyph glyph-name="uni2154" unicode="&#x2154;" horiz-adv-x="330" 
d="M173 399l97 321l30 -8l-116 -316zM27 401c0 44 19 76 40 105s40 59 40 95v58c0 21 -9 31 -26 31c-19 0 -28 -10 -28 -31v-86h-25v86c0 34 20 54 53 54c35 0 52 -20 52 -54v-59c0 -40 -19 -71 -39 -100c-21 -29 -40 -59 -40 -98v-6h82v-26h-109v31zM246 -3
c-36 0 -55 18 -55 53v77h26v-76c0 -20 10 -30 29 -30s28 10 28 30v73c0 31 -9 38 -36 38h-11v26h10c24 0 35 8 35 41v61c0 20 -9 29 -26 29c-19 0 -28 -9 -28 -29v-66h-25v65c0 34 20 54 53 54c35 0 51 -20 51 -54v-59c0 -33 -6 -47 -26 -54c20 -4 29 -21 29 -50v-76
c0 -35 -18 -53 -54 -53zM158 322l-98 -333l-32 9l119 327z" />
    <glyph glyph-name="onequarter" unicode="&#xbc;" horiz-adv-x="330" 
d="M173 399l97 321l30 -8l-116 -316zM31 370v25h35v262c-4 -13 -15 -20 -32 -20v26c28 1 32 13 35 46h23v-314h35v-25h-96zM265 75v-75h-23v75h-78v21l75 243h26v-242h25v-22h-25zM158 322l-98 -333l-32 9l119 327zM188 97h54v150l6 71l-15 -70z" />
    <glyph glyph-name="threequarters" unicode="&#xbe;" horiz-adv-x="330" 
d="M173 399l97 321l30 -8l-116 -316zM80 367c-36 0 -55 18 -55 53v77h26v-76c0 -20 10 -30 29 -30s28 10 28 30v73c0 31 -9 38 -36 38h-11v26h10c24 0 35 8 35 41v61c0 20 -9 29 -26 29c-19 0 -28 -9 -28 -29v-66h-25v65c0 34 20 54 53 54c35 0 51 -20 51 -54v-59
c0 -33 -6 -47 -26 -54c20 -4 29 -21 29 -50v-76c0 -35 -18 -53 -54 -53zM264 75v-75h-23v75h-78v21l75 243h26v-242h25v-22h-25zM158 322l-98 -333l-32 9l119 327zM187 97h54v150l6 71l-15 -70z" />
    <glyph glyph-name="uni2155" unicode="&#x2155;" horiz-adv-x="330" 
d="M173 399l97 321l30 -8l-116 -316zM31 370v25h35v262c-4 -13 -15 -20 -32 -20v26c28 1 32 13 35 46h23v-314h35v-25h-96zM243 -3c-36 0 -54 18 -54 53v63h25v-62c0 -20 10 -30 29 -30s28 10 28 30v125c0 24 -11 33 -26 33s-25 -10 -30 -31l-4 -18l-22 4l13 175h88v-2
c0 -19 -2 -23 -21 -23h-45c-1 -28 -5 -78 -8 -112c7 21 20 31 39 31c28 0 41 -17 41 -53v-130c0 -35 -17 -53 -53 -53zM158 322l-98 -333l-32 9l119 327z" />
    <glyph glyph-name="uni2156" unicode="&#x2156;" horiz-adv-x="330" 
d="M173 399l97 321l30 -8l-116 -316zM27 401c0 44 19 76 40 105s40 59 40 95v58c0 21 -9 31 -26 31c-19 0 -28 -10 -28 -31v-86h-25v86c0 34 20 54 53 54c35 0 52 -20 52 -54v-59c0 -40 -19 -71 -39 -100c-21 -29 -40 -59 -40 -98v-6h82v-26h-109v31zM243 -3
c-36 0 -54 18 -54 53v63h25v-62c0 -20 10 -30 29 -30s28 10 28 30v125c0 24 -11 33 -26 33s-25 -10 -30 -31l-4 -18l-22 4l13 175h88v-2c0 -19 -2 -23 -21 -23h-45c-1 -28 -5 -78 -8 -112c7 21 20 31 39 31c28 0 41 -17 41 -53v-130c0 -35 -17 -53 -53 -53zM158 322
l-98 -333l-32 9l119 327z" />
    <glyph glyph-name="uni2157" unicode="&#x2157;" horiz-adv-x="330" 
d="M173 399l97 321l30 -8l-116 -316zM82 367c-36 0 -55 18 -55 53v77h26v-76c0 -20 10 -30 29 -30s28 10 28 30v73c0 31 -9 38 -36 38h-11v26h10c24 0 35 8 35 41v61c0 20 -9 29 -26 29c-19 0 -28 -9 -28 -29v-66h-25v65c0 34 20 54 53 54c35 0 51 -20 51 -54v-59
c0 -33 -6 -47 -26 -54c20 -4 29 -21 29 -50v-76c0 -35 -18 -53 -54 -53zM243 -3c-36 0 -54 18 -54 53v63h25v-62c0 -20 10 -30 29 -30s28 10 28 30v125c0 24 -11 33 -26 33s-25 -10 -30 -31l-4 -18l-22 4l13 175h88v-2c0 -19 -2 -23 -21 -23h-45c-1 -28 -5 -78 -8 -112
c7 21 20 31 39 31c28 0 41 -17 41 -53v-130c0 -35 -17 -53 -53 -53zM158 322l-98 -333l-32 9l119 327z" />
    <glyph glyph-name="uni2158" unicode="&#x2158;" horiz-adv-x="330" 
d="M173 399l97 321l30 -8l-116 -316zM120 445v-75h-23v75h-78v21l75 243h26v-242h25v-22h-25zM43 467h54v150l6 71l-15 -70zM243 -3c-36 0 -54 18 -54 53v63h25v-62c0 -20 10 -30 29 -30s28 10 28 30v125c0 24 -11 33 -26 33s-25 -10 -30 -31l-4 -18l-22 4l13 175h88v-2
c0 -19 -2 -23 -21 -23h-45c-1 -28 -5 -78 -8 -112c7 21 20 31 39 31c28 0 41 -17 41 -53v-130c0 -35 -17 -53 -53 -53zM158 322l-98 -333l-32 9l119 327z" />
    <glyph glyph-name="uni2159" unicode="&#x2159;" horiz-adv-x="330" 
d="M173 399l97 321l30 -8l-116 -316zM31 370v25h35v262c-4 -13 -15 -20 -32 -20v26c28 1 32 13 35 46h23v-314h35v-25h-96zM298 52c0 -36 -17 -55 -55 -55c-36 0 -54 19 -54 55v237c0 34 17 54 53 54c39 0 54 -20 54 -54v-69h-25v69c0 21 -9 31 -29 31
c-19 0 -28 -10 -28 -31v-125c7 17 19 29 40 29c32 0 44 -21 44 -53v-88zM158 322l-98 -333l-32 9l119 327zM243 21c20 0 29 11 29 31v84c0 24 -9 35 -28 35c-17 0 -27 -13 -30 -32v-87c0 -20 10 -31 29 -31z" />
    <glyph glyph-name="uni215A" unicode="&#x215a;" horiz-adv-x="330" 
d="M173 399l97 321l30 -8l-116 -316zM83 367c-36 0 -54 18 -54 53v63h25v-62c0 -20 10 -30 29 -30s28 10 28 30v125c0 24 -11 33 -26 33s-25 -10 -30 -31l-4 -18l-22 4l13 175h88v-2c0 -19 -2 -23 -21 -23h-45c-1 -28 -5 -78 -8 -112c7 21 20 31 39 31c28 0 41 -17 41 -53
v-130c0 -35 -17 -53 -53 -53zM298 52c0 -36 -17 -55 -55 -55c-36 0 -54 19 -54 55v237c0 34 17 54 53 54c39 0 54 -20 54 -54v-69h-25v69c0 21 -9 31 -29 31c-19 0 -28 -10 -28 -31v-125c7 17 19 29 40 29c32 0 44 -21 44 -53v-88zM158 322l-98 -333l-32 9l119 327zM243 21
c20 0 29 11 29 31v84c0 24 -9 35 -28 35c-17 0 -27 -13 -30 -32v-87c0 -20 10 -31 29 -31z" />
    <glyph glyph-name="uni215B" unicode="&#x215b;" horiz-adv-x="330" 
d="M173 399l97 321l30 -8l-116 -316zM32 370v25h35v262c-4 -13 -15 -20 -32 -20v26c28 1 32 13 35 46h23v-314h35v-25h-96zM243 -3c-36 0 -55 18 -55 53v78c0 24 9 40 26 47c-15 7 -23 22 -23 45v70c0 34 19 53 52 53c35 0 53 -19 53 -53v-70c0 -23 -8 -37 -24 -45
c17 -7 26 -23 26 -47v-78c0 -35 -20 -53 -55 -53zM158 322l-98 -333l-32 9l119 327zM243 186c19 0 28 12 28 33v71c0 20 -9 30 -28 30s-28 -10 -28 -30v-71c0 -19 8 -33 28 -33zM243 21c20 0 30 10 30 29v79c0 23 -10 33 -30 33s-30 -10 -30 -33v-79c0 -17 10 -29 30 -29z
" />
    <glyph glyph-name="uni215C" unicode="&#x215c;" horiz-adv-x="330" 
d="M173 399l97 321l30 -8l-116 -316zM81 367c-36 0 -55 18 -55 53v77h26v-76c0 -20 10 -30 29 -30s28 10 28 30v73c0 31 -9 38 -36 38h-11v26h10c24 0 35 8 35 41v61c0 20 -9 29 -26 29c-19 0 -28 -9 -28 -29v-66h-25v65c0 34 20 54 53 54c35 0 51 -20 51 -54v-59
c0 -33 -6 -47 -26 -54c20 -4 29 -21 29 -50v-76c0 -35 -18 -53 -54 -53zM244 -3c-36 0 -55 18 -55 53v78c0 24 9 40 26 47c-15 7 -23 22 -23 45v70c0 34 19 53 52 53c35 0 53 -19 53 -53v-70c0 -23 -8 -37 -24 -45c17 -7 26 -23 26 -47v-78c0 -35 -20 -53 -55 -53zM158 322
l-98 -333l-32 9l119 327zM244 186c19 0 28 12 28 33v71c0 20 -9 30 -28 30s-28 -10 -28 -30v-71c0 -19 8 -33 28 -33zM244 21c20 0 30 10 30 29v79c0 23 -10 33 -30 33s-30 -10 -30 -33v-79c0 -17 10 -29 30 -29z" />
    <glyph glyph-name="uni215D" unicode="&#x215d;" horiz-adv-x="330" 
d="M173 399l97 321l30 -8l-116 -316zM83 367c-36 0 -54 18 -54 53v63h25v-62c0 -20 10 -30 29 -30s28 10 28 30v125c0 24 -11 33 -26 33s-25 -10 -30 -31l-4 -18l-22 4l13 175h88v-2c0 -19 -2 -23 -21 -23h-45c-1 -28 -5 -78 -8 -112c7 21 20 31 39 31c28 0 41 -17 41 -53
v-130c0 -35 -17 -53 -53 -53zM244 -3c-36 0 -55 18 -55 53v78c0 24 9 40 26 47c-15 7 -23 22 -23 45v70c0 34 19 53 52 53c35 0 53 -19 53 -53v-70c0 -23 -8 -37 -24 -45c17 -7 26 -23 26 -47v-78c0 -35 -20 -53 -55 -53zM158 322l-98 -333l-32 9l119 327zM244 186
c19 0 28 12 28 33v71c0 20 -9 30 -28 30s-28 -10 -28 -30v-71c0 -19 8 -33 28 -33zM244 21c20 0 30 10 30 29v79c0 23 -10 33 -30 33s-30 -10 -30 -33v-79c0 -17 10 -29 30 -29z" />
    <glyph glyph-name="uni215E" unicode="&#x215e;" horiz-adv-x="330" 
d="M173 399l97 321l30 -8l-116 -316zM72 370c9 109 31 213 56 313h-69v26h95v-18c-29 -106 -49 -214 -56 -321h-26zM244 -3c-36 0 -55 18 -55 53v78c0 24 9 40 26 47c-15 7 -23 22 -23 45v70c0 34 19 53 52 53c35 0 53 -19 53 -53v-70c0 -23 -8 -37 -24 -45
c17 -7 26 -23 26 -47v-78c0 -35 -20 -53 -55 -53zM158 322l-98 -333l-32 9l119 327zM244 186c19 0 28 12 28 33v71c0 20 -9 30 -28 30s-28 -10 -28 -30v-71c0 -19 8 -33 28 -33zM244 21c20 0 30 10 30 29v79c0 23 -10 33 -30 33s-30 -10 -30 -33v-79c0 -17 10 -29 30 -29z
" />
    <glyph glyph-name="asterisk" unicode="*" horiz-adv-x="219" 
d="M114 614l12 -84h-32l12 84l-68 -52l-15 26l79 33l-79 31l15 28l68 -52l-12 84h32l-12 -84l67 52l15 -27l-79 -32l79 -32l-15 -27z" />
    <glyph glyph-name="backslash" unicode="\" horiz-adv-x="210" 
d="M65 708l112 -708h-34l-112 708h34z" />
    <glyph glyph-name="periodcentered" unicode="&#xb7;" horiz-adv-x="164" 
d="M83 253c-19 0 -26 9 -26 38c0 28 9 37 26 37c19 0 25 -9 25 -37c0 -29 -6 -38 -25 -38z" />
    <glyph glyph-name="bullet" unicode="&#x2022;" horiz-adv-x="174" 
d="M87 248c-27 0 -41 14 -41 41c0 28 14 41 41 41s41 -10 41 -41c0 -27 -13 -41 -41 -41z" />
    <glyph glyph-name="colon" unicode=":" horiz-adv-x="164" 
d="M83 354c-19 0 -26 10 -26 38s9 38 26 38c19 0 25 -10 25 -38s-6 -38 -25 -38zM83 45c-19 0 -26 10 -26 38s9 38 26 38c19 0 25 -10 25 -38s-6 -38 -25 -38z" />
    <glyph glyph-name="comma" unicode="," horiz-adv-x="164" 
d="M55 -68c16 15 28 36 31 68c-3 -4 -6 -5 -9 -5c-11 0 -20 7 -20 36s7 40 24 40c20 0 28 -9 28 -52c0 -51 -18 -86 -47 -107z" />
    <glyph glyph-name="ellipsis" unicode="&#x2026;" horiz-adv-x="391" 
d="M83 -4c-19 0 -24 9 -24 38c0 28 7 37 24 37c19 0 24 -9 24 -37c0 -29 -8 -38 -24 -38zM195 -4c-17 0 -24 9 -24 38c0 28 8 37 25 37s23 -9 23 -37c0 -29 -7 -38 -24 -38zM308 -4c-19 0 -24 9 -24 38c0 28 8 37 25 37s23 -9 23 -37c0 -29 -7 -38 -24 -38z" />
    <glyph glyph-name="exclam" unicode="!" horiz-adv-x="164" 
d="M100 708v-83c0 -48 -1 -115 -1 -189l-3 -207c-1 -59 -2 -99 -2 -106c-1 1 -8 2 -11 2c-4 0 -11 -1 -12 -2l-2 106c-1 60 -2 133 -3 207c0 74 -1 142 -1 189v83h35zM83 -5c-19 0 -26 10 -26 38s9 38 26 38c19 0 25 -10 25 -38s-6 -38 -25 -38z" />
    <glyph glyph-name="exclamdbl" unicode="&#x203c;" horiz-adv-x="280" 
d="M100 708v-83c0 -48 -1 -115 -1 -189l-3 -207c-1 -59 -2 -99 -2 -106c-1 1 -8 2 -11 2c-4 0 -11 -1 -12 -2l-2 106c-1 60 -2 133 -3 207c0 74 -1 142 -1 189v83h35zM214 708v-83c0 -48 -1 -115 -1 -189c-1 -74 -2 -147 -2 -207l-2 -106c-3 1 -7 2 -12 2
c-3 0 -11 -1 -12 -2l-2 106c0 60 -1 133 -2 207c0 74 -1 142 -1 189v83h34zM83 -5c-19 0 -26 10 -26 38s9 38 26 38c19 0 25 -10 25 -38s-6 -38 -25 -38zM197 -5c-19 0 -26 10 -26 38s8 38 27 38s25 -10 25 -38s-7 -38 -26 -38z" />
    <glyph glyph-name="exclamdown" unicode="&#xa1;" horiz-adv-x="164" 
d="M83 586c19 0 25 -10 25 -38c0 -29 -6 -38 -25 -38s-26 9 -26 38c0 28 9 38 26 38zM65 -127v84c0 47 1 115 1 189l3 206c1 59 2 100 2 105l12 -1c3 0 11 1 12 1c0 -5 1 -46 1 -106l3 -206c0 -74 1 -141 1 -188v-84h-35z" />
    <glyph glyph-name="numbersign" unicode="#" horiz-adv-x="401" 
d="M234 279h-85l-29 -279h-31l29 279h-92v31h95l13 122h-93v30h96l25 246h31l-25 -246h85l26 246h31l-25 -246h92v-30h-95l-13 -122h93v-31h-96l-29 -279h-32zM250 432h-85l-13 -122h85z" />
    <glyph glyph-name="period" unicode="." horiz-adv-x="164" 
d="M83 -4c-19 0 -26 9 -26 38c0 28 9 37 26 37c19 0 25 -9 25 -37c0 -29 -6 -38 -25 -38z" />
    <glyph glyph-name="question" unicode="?" horiz-adv-x="274" 
d="M152 129c-1 1 -11 2 -16 2c-4 0 -16 -1 -17 -2v60c0 35 2 63 7 86c8 47 24 79 37 107c19 38 34 68 34 126v106c0 43 -15 71 -58 71c-42 0 -58 -29 -58 -71v-174h-33v175c0 60 32 99 91 99s91 -39 91 -99v-107c0 -66 -18 -102 -37 -141c-20 -42 -41 -86 -41 -178v-60z
M136 -5c-17 0 -25 10 -25 38s9 38 26 38c19 0 25 -10 25 -38s-7 -38 -26 -38z" />
    <glyph glyph-name="questiondown" unicode="&#xbf;" horiz-adv-x="274" 
d="M140 577c19 0 25 -10 25 -38s-7 -38 -26 -38c-17 0 -25 10 -25 38s7 38 26 38zM124 443c1 -1 11 -2 16 -2c4 0 16 1 17 2v-60c0 -33 -2 -63 -7 -86c-8 -47 -22 -78 -37 -107c-17 -38 -34 -67 -34 -126v-106c0 -43 16 -71 58 -71s58 29 58 71v174h33v-175
c0 -60 -32 -99 -91 -99s-91 39 -91 99v107c0 67 20 102 37 141c20 43 41 86 41 178v60z" />
    <glyph glyph-name="quotedbl" unicode="&#x22;" horiz-adv-x="171" 
d="M39 482l-3 47c-1 40 -2 86 -2 117v62h27v-62c0 -16 0 -35 -1 -56c0 -43 -2 -85 -5 -108h-16zM115 482l-3 47c-1 40 -3 86 -3 117v62h28v-62c0 -16 0 -35 -1 -56c0 -43 -2 -85 -5 -108h-16z" />
    <glyph glyph-name="quotesingle" unicode="'" horiz-adv-x="95" 
d="M40 482c-1 11 -3 27 -3 47c-3 40 -3 86 -3 117v62h27v-62c0 -16 0 -35 -1 -56c0 -43 -2 -85 -5 -108h-15z" />
    <glyph glyph-name="semicolon" unicode=";" horiz-adv-x="164" 
d="M83 354c-19 0 -26 10 -26 38s9 38 26 38c19 0 25 -10 25 -38s-6 -38 -25 -38zM55 -68c16 15 28 36 31 68c-3 -4 -6 -5 -9 -5c-11 0 -20 7 -20 36s7 40 24 40c20 0 28 -9 28 -52c0 -51 -18 -86 -47 -107z" />
    <glyph glyph-name="slash" unicode="/" horiz-adv-x="210" 
d="M31 0l115 708h33l-115 -708h-33z" />
    <glyph glyph-name="underscore" horiz-adv-x="203" 
d="M188 0h-173v30h173v-30z" />
    <glyph glyph-name="underscoredbl" unicode="&#x2017;" horiz-adv-x="190" 
d="M175 0h-160v30h160v-30zM175 -74h-160v30h160v-30z" />
    <glyph glyph-name="uni005F" unicode="_" horiz-adv-x="203" 
d="M188 -71h-173v30h173v-30z" />
    <glyph glyph-name="uni2016" unicode="&#x2016;" horiz-adv-x="212" 
d="M42 -104v931h32v-931h-32zM139 -104v931h31v-931h-31z" />
    <glyph glyph-name="uni203D" unicode="&#x203d;" horiz-adv-x="279" 
d="M157 129c-1 1 -11 2 -14 2c-4 0 -13 -1 -14 -2v14c0 16 0 37 -1 42c0 55 -1 136 -1 220c-1 84 -1 165 -1 220v60c-33 -5 -50 -32 -50 -71v-175h-31v176c0 60 33 99 96 99c64 0 96 -39 96 -99v-107c0 -28 -3 -51 -8 -70c-11 -39 -28 -69 -44 -105
c-16 -35 -28 -80 -28 -151v-53zM156 625c0 -27 0 -59 -1 -98c0 -78 -1 -166 -4 -244c7 59 20 89 33 116c12 27 22 55 22 109v106c0 42 -16 66 -50 71v-60zM143 -5c-19 0 -26 10 -26 38s8 38 27 38s24 -10 24 -38s-6 -38 -25 -38z" />
    <glyph glyph-name="uni2E18" unicode="&#x2e18;" horiz-adv-x="279" 
d="M137 579c19 0 26 -10 26 -38c0 -29 -8 -38 -27 -38c-17 0 -24 9 -24 38c0 28 8 38 25 38zM139 -140c-64 0 -96 38 -96 98v107c0 28 3 51 8 71c11 39 28 69 44 104c16 36 28 81 28 152v53c1 -1 11 -2 14 -2c4 0 13 1 14 2v-13c0 -16 1 -36 1 -41c0 -55 1 -135 1 -221
c1 -86 1 -166 1 -221v-61c34 5 50 29 50 72v174h31v-176c0 -60 -33 -98 -96 -98zM74 -40c0 -40 15 -67 50 -72v61c0 25 0 58 1 97c0 79 3 169 4 245c-7 -58 -20 -89 -33 -116c-12 -27 -22 -55 -22 -110v-105z" />
    <glyph glyph-name="backslash.cap" horiz-adv-x="210" 
d="M66 708l111 -708h-33l-111 708h33z" />
    <glyph glyph-name="periodcentered.cap" horiz-adv-x="164" 
d="M83 311c-19 0 -26 10 -26 38s9 38 26 38c19 0 25 -10 25 -38s-6 -38 -25 -38z" />
    <glyph glyph-name="bullet.cap" horiz-adv-x="174" 
d="M87 307c-27 0 -41 14 -41 41c0 28 14 41 41 41s41 -10 41 -41c0 -27 -13 -41 -41 -41z" />
    <glyph glyph-name="uni2016.cap" horiz-adv-x="212" 
d="M42 -104v931h32v-931h-32zM139 -104v931h31v-931h-31z" />
    <glyph glyph-name="exclamdown.cap" horiz-adv-x="164" 
d="M83 713c19 0 25 -10 25 -38c0 -29 -6 -38 -25 -38s-26 9 -26 38c0 28 9 38 26 38zM65 0v84c0 48 1 115 1 189l3 206c1 59 2 100 2 105l12 -1c3 0 11 1 12 1c0 -5 1 -46 1 -106l3 -206c0 -74 1 -141 1 -188v-84h-35z" />
    <glyph glyph-name="uni2E18.cap" horiz-adv-x="279" 
d="M137 711c19 0 26 -9 26 -38c0 -28 -8 -37 -27 -37c-17 0 -24 9 -24 37c0 29 8 38 25 38zM139 -7c-64 0 -96 38 -96 98v107c0 28 3 51 8 70c11 39 28 69 44 105c16 35 28 80 28 151v53c1 -1 11 -1 14 -1c4 0 13 1 14 2v-13c0 -16 1 -36 1 -41c0 -54 1 -135 1 -221
c1 -84 1 -166 1 -221v-61c34 5 50 29 50 72v174h31v-176c0 -60 -33 -98 -96 -98zM74 93c0 -43 17 -67 50 -72v61c0 27 0 58 1 97c0 79 3 169 4 245c-7 -59 -20 -90 -33 -117c-12 -27 -22 -55 -22 -109v-105z" />
    <glyph glyph-name="questiondown.cap" horiz-adv-x="274" 
d="M140 713c19 0 25 -10 25 -38s-7 -38 -26 -38c-17 0 -25 10 -25 38s7 38 26 38zM124 579c1 -1 11 -2 16 -2c4 0 16 1 17 2v-60c0 -33 -2 -63 -7 -86c-8 -47 -22 -78 -37 -107c-17 -38 -34 -67 -34 -126v-106c0 -42 16 -71 58 -71s58 29 58 71v174h33v-175
c0 -60 -32 -99 -91 -99s-91 39 -91 99v107c0 67 20 102 37 141c20 43 41 86 41 178v60z" />
    <glyph glyph-name="slash.cap" horiz-adv-x="210" 
d="M31 0l115 708h33l-115 -708h-33z" />
    <glyph glyph-name="uni208D" unicode="&#x208d;" horiz-adv-x="86" 
d="M23 310c0 62 13 84 61 84v-26c-29 0 -35 -14 -35 -57v-318c0 -44 8 -56 35 -56v-26c-50 0 -61 19 -61 81v318z" />
    <glyph glyph-name="uni208E" unicode="&#x208e;" horiz-adv-x="86" 
d="M3 -63c27 0 34 12 34 56v318c0 46 -7 57 -34 57v26c47 0 60 -22 60 -84v-318c0 -62 -12 -81 -60 -81v26z" />
    <glyph glyph-name="braceleft" unicode="{" horiz-adv-x="170" 
d="M152 -176c-75 0 -107 37 -107 112c0 27 3 56 8 88c12 63 25 125 25 165c0 63 -17 84 -60 84h-2v35h2c43 0 60 18 60 74c0 20 -3 44 -8 71c-9 54 -23 113 -23 167c0 75 26 112 104 112h10v-29h-4c-56 0 -78 -27 -78 -85c0 -25 3 -52 8 -81c11 -58 24 -114 24 -157
c0 -60 -24 -89 -58 -89v-2c34 0 58 -30 58 -98c0 -21 -3 -46 -8 -77c-12 -59 -26 -125 -26 -176c0 -58 24 -83 80 -83h4v-31h-9z" />
    <glyph glyph-name="braceright" unicode="}" horiz-adv-x="170" 
d="M9 -145h4c58 0 79 25 79 83c0 25 -3 53 -8 85c-11 62 -24 124 -24 167c0 68 24 98 57 98v2c-33 1 -57 30 -57 90c0 21 3 45 8 73c11 55 24 114 24 165c0 58 -21 85 -79 85h-4v29h10c78 0 104 -37 104 -112c0 -27 -3 -55 -8 -84c-9 -58 -23 -113 -23 -155
c0 -56 18 -74 60 -74h3v-35h-3c-42 0 -60 -21 -60 -84c0 -20 3 -45 8 -74c11 -58 24 -124 24 -178c0 -75 -30 -112 -105 -112h-10v31z" />
    <glyph glyph-name="bracketleft" unicode="[" horiz-adv-x="168" 
d="M159 -174h-113v904h113v-32h-80v-840h80v-32z" />
    <glyph glyph-name="bracketright" unicode="]" horiz-adv-x="168" 
d="M9 -174v32h81v840h-81v32h114v-904h-114z" />
    <glyph glyph-name="parenleft" unicode="(" horiz-adv-x="168" 
d="M46 581c0 39 3 69 10 90c12 44 44 61 103 61v-31c-23 0 -39 -3 -51 -11c-23 -13 -29 -46 -29 -108v-606c0 -91 13 -119 80 -119v-33c-29 0 -53 5 -69 14c-33 19 -44 60 -44 138v605z" />
    <glyph glyph-name="parenright" unicode=")" horiz-adv-x="168" 
d="M9 -143c67 0 81 28 81 119v606c0 31 -2 55 -6 72c-9 35 -29 47 -75 47v31c29 0 53 -5 69 -14c34 -19 45 -59 45 -137v-605c0 -39 -3 -70 -10 -91c-12 -44 -42 -61 -104 -61v33z" />
    <glyph glyph-name="uni207D" unicode="&#x207d;" horiz-adv-x="86" 
d="M23 700c0 62 13 84 61 84v-26c-29 0 -35 -14 -35 -57v-318c0 -44 8 -56 35 -56v-26c-50 0 -61 19 -61 81v318z" />
    <glyph glyph-name="uni207E" unicode="&#x207e;" horiz-adv-x="86" 
d="M3 327c27 0 34 12 34 56v318c0 46 -7 57 -34 57v26c47 0 60 -22 60 -84v-318c0 -62 -12 -81 -60 -81v26z" />
    <glyph glyph-name="uni3008" unicode="&#x3008;" horiz-adv-x="171" 
d="M130 -174l-99 452l100 452h32l-100 -452l99 -452h-32z" />
    <glyph glyph-name="uni3009" unicode="&#x3009;" horiz-adv-x="171" 
d="M9 -174l99 452l-100 452h32l100 -452l-99 -452h-32z" />
    <glyph glyph-name="uni3008.cap" horiz-adv-x="171" 
d="M130 -105l-99 452l100 452h32l-100 -452l99 -452h-32z" />
    <glyph glyph-name="uni3009.cap" horiz-adv-x="171" 
d="M9 -105l99 452l-100 452h32l100 -452l-99 -452h-32z" />
    <glyph glyph-name="braceleft.cap" horiz-adv-x="170" 
d="M152 -107c-75 0 -107 37 -107 112c0 27 3 56 8 88c12 63 25 125 25 165c0 63 -17 84 -60 84h-2v35h2c43 0 60 18 60 74c0 20 -3 44 -8 71c-9 54 -23 113 -23 167c0 75 26 112 104 112h10v-29h-4c-56 0 -78 -27 -78 -85c0 -25 3 -52 8 -81c11 -58 24 -114 24 -157
c0 -60 -24 -89 -58 -89v-2c34 0 58 -30 58 -98c0 -21 -3 -46 -8 -77c-12 -59 -26 -125 -26 -176c0 -58 24 -83 80 -83h4v-31h-9z" />
    <glyph glyph-name="braceright.cap" horiz-adv-x="170" 
d="M9 -76h4c58 0 79 25 79 83c0 25 -3 53 -8 85c-11 62 -24 124 -24 167c0 68 24 98 57 98v2c-33 1 -57 30 -57 90c0 21 3 45 8 73c11 55 24 114 24 165c0 58 -21 85 -79 85h-4v29h10c78 0 104 -37 104 -112c0 -27 -3 -55 -8 -84c-9 -58 -23 -113 -23 -155
c0 -56 18 -74 60 -74h3v-35h-3c-42 0 -60 -21 -60 -84c0 -20 3 -45 8 -74c11 -58 24 -123 24 -178c0 -75 -30 -112 -105 -112h-10v31z" />
    <glyph glyph-name="bracketleft.cap" horiz-adv-x="168" 
d="M159 -105h-113v904h113v-32h-80v-840h80v-32z" />
    <glyph glyph-name="bracketright.cap" horiz-adv-x="168" 
d="M9 -105v32h81v840h-81v32h114v-904h-114z" />
    <glyph glyph-name="parenleft.cap" horiz-adv-x="168" 
d="M159 -107c-29 0 -53 5 -69 14c-33 19 -44 60 -44 138v605c0 39 3 69 10 90c12 44 44 61 103 61v-31c-23 0 -39 -3 -51 -11c-23 -13 -29 -46 -29 -108v-606c0 -91 13 -119 80 -119v-33z" />
    <glyph glyph-name="parenright.cap" horiz-adv-x="168" 
d="M9 -74c67 0 81 28 81 119v606c0 31 -2 55 -6 72c-9 35 -29 47 -75 47v31c29 0 53 -5 69 -14c34 -19 45 -59 45 -137v-605c0 -39 -3 -70 -10 -91c-12 -44 -42 -61 -104 -61v33z" />
    <glyph glyph-name="parenleft.inf" horiz-adv-x="86" 
d="M23 185c0 62 13 84 61 84v-26c-29 0 -35 -14 -35 -57v-318c0 -44 8 -56 35 -56v-26c-50 0 -61 19 -61 81v318z" />
    <glyph glyph-name="parenright.inf" horiz-adv-x="86" 
d="M3 -188c27 0 34 12 34 56v318c0 46 -7 57 -34 57v26c47 0 60 -22 60 -84v-318c0 -62 -12 -81 -60 -81v26z" />
    <glyph glyph-name="emdash" unicode="&#x2014;" horiz-adv-x="329" 
d="M301 274h-273v32h273v-32z" />
    <glyph glyph-name="endash" unicode="&#x2013;" horiz-adv-x="262" 
d="M235 274h-207v32h207v-32z" />
    <glyph glyph-name="figuredash" unicode="&#x2012;" horiz-adv-x="302" 
d="M275 274h-247v32h247v-32z" />
    <glyph glyph-name="hyphen" unicode="-" horiz-adv-x="231" 
d="M205 274h-177v32h177v-32z" />
    <glyph glyph-name="uni00AD" unicode="&#xad;" horiz-adv-x="231" 
d="M205 274h-177v32h177v-32z" />
    <glyph glyph-name="uni2015" unicode="&#x2015;" horiz-adv-x="402" 
d="M375 274h-347v32h347v-32z" />
    <glyph glyph-name="emdash.cap" horiz-adv-x="296" 
d="M268 332h-240v32h240v-32z" />
    <glyph glyph-name="endash.cap" horiz-adv-x="222" 
d="M195 332h-167v32h167v-32z" />
    <glyph glyph-name="figuredash.cap" horiz-adv-x="329" 
d="M301 332h-273v32h273v-32z" />
    <glyph glyph-name="uni2015.cap" horiz-adv-x="302" 
d="M275 332h-247v32h247v-32z" />
    <glyph glyph-name="hyphen.cap" horiz-adv-x="231" 
d="M205 332h-177v32h177v-32z" />
    <glyph glyph-name="guillemotleft" unicode="&#xab;" horiz-adv-x="280" 
d="M115 125l-86 166v2l86 176h32l-86 -175l88 -169h-34zM220 125l-91 167v2l85 175h33l-86 -176l93 -168h-34z" />
    <glyph glyph-name="guillemotright" unicode="&#xbb;" horiz-adv-x="280" 
d="M26 125l93 168l-86 176h33l85 -175v-2l-91 -167h-34zM131 125l88 169l-86 175h32l86 -176v-2l-86 -166h-34z" />
    <glyph glyph-name="guilsinglleft" unicode="&#x2039;" horiz-adv-x="177" 
d="M116 125l-90 167v2l85 175h33l-86 -176l92 -168h-34z" />
    <glyph glyph-name="guilsinglright" unicode="&#x203a;" horiz-adv-x="177" 
d="M27 125l92 169l-86 175h32l86 -175v-2l-90 -167h-34z" />
    <glyph glyph-name="quotedblbase" unicode="&#x201e;" horiz-adv-x="224" 
d="M43 -66c16 13 30 33 31 68c-1 -4 -5 -6 -10 -6c-11 0 -19 7 -19 36s8 40 25 40c19 0 27 -11 27 -54c0 -50 -15 -83 -47 -102zM126 -66c15 13 28 33 31 68c-3 -4 -7 -6 -11 -6c-11 0 -18 7 -18 36s8 40 25 40c19 0 27 -11 27 -54c0 -50 -15 -83 -47 -102z" />
    <glyph glyph-name="quotedblleft" unicode="&#x201c;" horiz-adv-x="224" 
d="M70 567c-19 0 -27 11 -27 54c0 48 16 82 47 101l7 -18c-16 -15 -28 -33 -31 -67c3 4 6 6 10 6c11 0 19 -7 19 -36s-6 -40 -25 -40zM153 567c-20 0 -28 11 -28 54c0 48 18 84 47 101l8 -18c-16 -15 -29 -33 -32 -67c3 4 7 6 11 6c11 0 19 -7 19 -36s-8 -40 -25 -40z" />
    <glyph glyph-name="quotedblright" unicode="&#x201d;" horiz-adv-x="224" 
d="M43 580c16 15 30 34 31 67c-1 -4 -5 -6 -10 -6c-11 0 -19 7 -19 36s8 40 25 40c19 0 27 -11 27 -54c0 -48 -15 -82 -47 -101zM126 580c15 15 28 34 31 67c-3 -4 -7 -6 -11 -6c-11 0 -18 7 -18 36s8 40 25 40c19 0 27 -11 27 -54c0 -48 -15 -82 -47 -101z" />
    <glyph glyph-name="quoteleft" unicode="&#x2018;" horiz-adv-x="141" 
d="M70 567c-19 0 -27 11 -27 54c0 48 16 82 47 101l7 -18c-16 -13 -28 -33 -31 -67c3 4 6 6 10 6c11 0 19 -7 19 -36s-6 -40 -25 -40z" />
    <glyph glyph-name="quoteright" unicode="&#x2019;" horiz-adv-x="141" 
d="M43 580c16 15 30 34 31 67c-1 -4 -5 -6 -10 -6c-11 0 -19 7 -19 36s8 40 25 40c19 0 27 -11 27 -54c0 -50 -15 -84 -47 -101z" />
    <glyph glyph-name="quotesinglbase" unicode="&#x201a;" horiz-adv-x="141" 
d="M43 -66c16 13 30 33 31 68c-1 -4 -5 -6 -10 -6c-11 0 -19 7 -19 36s8 40 25 40c19 0 27 -11 27 -54c0 -50 -15 -83 -47 -102z" />
    <glyph glyph-name="uni201B" unicode="&#x201b;" horiz-adv-x="141" 
d="M91 562c-31 17 -47 51 -47 101c0 43 8 54 27 54s25 -11 25 -40s-8 -36 -19 -36c-4 0 -7 2 -10 6c3 -33 15 -52 31 -67z" />
    <glyph glyph-name="uni201F" unicode="&#x201f;" horiz-adv-x="224" 
d="M91 562c-31 19 -47 53 -47 101c0 43 8 54 27 54s25 -11 25 -40s-8 -36 -19 -36c-4 0 -7 2 -10 6c3 -33 15 -52 31 -67zM173 562c-29 19 -47 53 -47 101c0 43 8 54 28 54c17 0 25 -11 25 -40s-8 -36 -19 -36c-4 0 -8 3 -11 7c3 -33 16 -53 32 -68z" />
    <glyph glyph-name="uni2034" unicode="&#x2034;" 
d="M61 708v-62c0 -16 0 -35 -1 -56c0 -43 -1 -85 -4 -108h-16c-1 11 -3 27 -3 47c-3 40 -3 86 -3 117v62h27zM137 708v-62c0 -16 0 -35 -1 -56c0 -43 -2 -85 -5 -108h-16l-3 47c-1 40 -3 86 -3 117v62h28zM213 708v-62c0 -16 0 -35 -1 -56c-1 -43 -3 -85 -6 -108h-16l-3 47
c-1 40 -2 86 -2 117v62h28z" />
    <glyph glyph-name="guillemotleft.cap" horiz-adv-x="280" 
d="M115 178l-86 167v2l86 175h32l-86 -175l88 -169h-34zM220 178l-91 167v2l85 175h33l-86 -175l93 -169h-34z" />
    <glyph glyph-name="guillemotright.cap" horiz-adv-x="280" 
d="M26 178l93 169l-86 175h33l85 -175v-2l-91 -167h-34zM131 178l88 169l-86 175h32l86 -175v-2l-86 -167h-34z" />
    <glyph glyph-name="guilsinglleft.cap" horiz-adv-x="177" 
d="M116 178l-90 167v2l85 175h33l-86 -176l92 -168h-34z" />
    <glyph glyph-name="guilsinglright.cap" horiz-adv-x="177" 
d="M27 178l92 169l-86 175h32l86 -175v-2l-90 -167h-34z" />
    <glyph glyph-name="periodcentered.smcp" horiz-adv-x="402" 
d="M375 332h-347v32h347v-32z" />
    <glyph glyph-name="space" unicode=" " horiz-adv-x="123" 
 />
    <glyph glyph-name="uni00A0" unicode="&#xa0;" horiz-adv-x="123" 
 />
    <glyph glyph-name="space_dotbelowcomb" horiz-adv-x="247" 
d="M118 -117c-16 0 -25 11 -25 35c0 23 9 35 25 35s24 -12 24 -36c0 -23 -8 -34 -24 -34z" />
    <glyph glyph-name="uni00200326" horiz-adv-x="247" 
d="M96 -150c15 12 26 30 27 61c-3 -5 -5 -7 -9 -7c-9 0 -19 6 -19 30c0 21 8 33 24 33c19 0 25 -11 25 -46c0 -43 -13 -72 -40 -89z" />
    <glyph glyph-name="uni00200326.alt" horiz-adv-x="247" 
d="M126 623c-17 0 -25 13 -25 46c0 43 15 73 40 90l8 -18c-15 -12 -24 -31 -27 -62c1 5 5 7 9 7c11 0 19 -5 19 -29c0 -23 -8 -34 -24 -34z" />
    <glyph glyph-name="Euro" unicode="&#x20ac;" horiz-adv-x="286" 
d="M243 90c-1 -64 -31 -96 -91 -96s-91 34 -91 101v193h-50v29h50v83h-50v29h50v184c0 64 33 101 92 101c58 0 89 -35 90 -95v-122h-33v121c-1 40 -18 67 -58 67c-42 0 -58 -30 -58 -73v-183h114l-8 -29h-106v-83h80l-9 -29h-71v-191c0 -44 16 -72 58 -72s57 27 58 67v128
h33v-130z" />
    <glyph glyph-name="cent" unicode="&#xa2;" horiz-adv-x="249" 
d="M213 87c-1 -58 -29 -87 -73 -92v-120h-32v120c-44 5 -72 36 -72 96v389c0 60 30 92 73 97v119h32v-119c43 -5 71 -37 72 -93v-144h-33v144c-1 39 -16 65 -55 65c-38 0 -56 -27 -56 -70v-387c0 -39 18 -68 56 -68c39 0 54 25 55 64v162h33v-163z" />
    <glyph glyph-name="currency" unicode="&#xa4;" horiz-adv-x="229" 
d="M156 267c-11 -8 -25 -12 -42 -12s-31 4 -42 12l-35 -47l-19 16l37 50c-5 11 -8 24 -8 37v68c0 16 4 29 11 41l-34 46l18 17l33 -45c11 8 23 11 39 11s28 -3 39 -11l32 46l19 -14l-34 -49c8 -12 11 -25 11 -40v-68c0 -15 -2 -27 -9 -38l37 -50l-18 -17zM114 281
c27 0 40 19 40 44v67c0 24 -12 43 -40 43c-25 0 -39 -17 -39 -44v-67c0 -24 12 -43 39 -43z" />
    <glyph glyph-name="dollar" unicode="$" horiz-adv-x="245" 
d="M105 -125v120c-47 5 -71 37 -71 95v188h33v-187c0 -39 13 -67 55 -67s55 27 55 65v178c0 17 -3 30 -7 39c-11 19 -30 30 -59 49c-40 24 -75 48 -75 106v161c0 51 24 86 70 91v118h32v-118c47 -5 69 -39 70 -90v-173h-32v171c0 38 -15 64 -55 64c-38 0 -52 -25 -52 -64
v-158c0 -44 26 -62 68 -87c15 -9 28 -18 39 -26c21 -17 34 -38 34 -81v-181c0 -58 -23 -88 -73 -93v-120h-32z" />
    <glyph glyph-name="franc" unicode="&#x20a3;" horiz-adv-x="190" 
d="M75 228v-228h-33v708h135v-32h-102v-278h95v-31h-95v-108h95v-31h-95z" />
    <glyph glyph-name="lira" unicode="&#x20a4;" horiz-adv-x="323" 
d="M223 -12c-33 0 -59 22 -82 43c-13 -27 -35 -43 -69 -43c-42 0 -63 19 -63 57s28 61 60 61c23 0 43 -11 60 -26c3 13 3 27 3 43c0 47 -6 95 -17 146h-80v28h75l-13 65h-62v29h56c-13 70 -25 141 -25 215c0 87 33 128 91 128c72 0 91 -53 91 -170h-33
c0 101 -12 139 -58 139c-38 0 -58 -29 -58 -97c0 -71 11 -144 24 -215h93v-29h-87c4 -21 8 -44 11 -65h76v-28h-71c9 -51 15 -100 15 -147c0 -23 -2 -43 -7 -62c21 -20 42 -38 67 -38c31 0 42 18 42 94v66h32v-70c0 -92 -17 -124 -71 -124zM74 15c21 0 38 12 47 35
c-17 16 -33 29 -52 29c-17 0 -31 -14 -31 -33c0 -20 12 -31 36 -31z" />
    <glyph glyph-name="peseta" unicode="&#x20a7;" horiz-adv-x="607" 
d="M75 225v-225h-33v708h74c75 0 103 -30 103 -105v-37c4 0 10 1 18 1c16 1 33 2 34 3c15 3 17 7 20 31c3 15 3 36 3 64h24v-93h65v-31h-65v-384c0 -95 26 -126 97 -126h42c66 0 85 35 85 106v58c0 51 -33 69 -68 90c-33 21 -68 43 -68 105v95c0 63 30 92 81 92
c54 0 81 -30 82 -93v-111h-32v110c-1 39 -12 65 -50 65s-49 -25 -49 -64v-93c0 -50 35 -68 68 -88c35 -21 68 -43 68 -106v-62c0 -27 -4 -50 -9 -70c-13 -42 -44 -65 -108 -65h-46c-98 0 -125 40 -125 153v388h-67v-204c0 -75 -33 -112 -103 -112h-41zM75 679v-423h38
c52 0 73 28 73 82v264c0 59 -18 77 -72 77h-39z" />
    <glyph glyph-name="sterling" unicode="&#xa3;" horiz-adv-x="323" 
d="M223 -12c-33 0 -59 22 -82 43c-13 -27 -35 -43 -69 -43c-42 0 -63 19 -63 57s28 61 60 61c23 0 43 -11 60 -26c3 13 3 27 3 43c0 56 -10 114 -23 176h-71v29h64c-16 80 -36 165 -36 264c0 83 33 122 91 122c68 0 91 -48 91 -147v-50h-33v50c0 82 -11 118 -58 118
c-39 0 -58 -30 -58 -93c0 -94 19 -180 35 -264h85v-29h-81c12 -62 22 -119 22 -177c0 -23 -2 -43 -7 -62c21 -20 42 -38 67 -38c31 0 42 18 42 94v66h32v-70c0 -92 -17 -124 -71 -124zM74 15c21 0 38 12 47 35c-17 16 -33 29 -52 29c-17 0 -31 -14 -31 -33
c0 -20 12 -31 36 -31z" />
    <glyph glyph-name="uni0192" unicode="&#x192;" horiz-adv-x="152" 
d="M92 -17c0 -79 -19 -104 -74 -104h-16v31h12c36 0 45 14 45 76v344h-56v30h56v261c0 87 20 112 78 112h12v-30h-8c-39 0 -49 -14 -49 -84v-259h57v-30h-57v-347z" />
    <glyph glyph-name="uni0E3F" unicode="&#xe3f;" horiz-adv-x="273" 
d="M124 -80v80h-83v708h83v72h27v-73c59 -5 86 -32 86 -99v-145c0 -54 -17 -81 -53 -93c39 -9 56 -37 56 -92v-176c0 -70 -25 -98 -89 -102v-80h-27zM73 680v-296h51v296h-51zM205 605c0 43 -18 68 -54 73v-293c36 7 54 32 54 78v142zM124 30v325h-51v-325h51zM207 278
c0 47 -16 71 -56 76v-323c42 3 56 23 56 74v173z" />
    <glyph glyph-name="colonmonetary" unicode="&#x20a1;" horiz-adv-x="288" 
d="M134 -6c-8 1 -16 1 -23 4l-7 -115h-22l8 122c-33 17 -50 49 -50 96v504c0 64 33 105 96 109l6 109h21l-6 -109c8 -1 16 -1 24 -4l7 113h21l-8 -120c34 -16 49 -46 49 -92v-174h-31v173c0 24 -7 43 -20 56l-41 -640c42 5 61 29 61 72v199h31v-201c0 -63 -36 -98 -95 -102
l-6 -111h-22zM178 678c-7 3 -15 5 -23 6l-42 -653c7 -3 15 -5 23 -6zM71 103c0 -27 7 -47 22 -60l41 640c-42 -4 -63 -32 -63 -79v-501z" />
    <glyph glyph-name="uni20A2" unicode="&#x20a2;" horiz-adv-x="277" 
d="M239 95c-1 -66 -40 -101 -99 -101c-63 0 -100 38 -100 106v509c0 66 38 105 100 105c60 0 98 -36 99 -99v-158h-32v157c0 43 -24 71 -67 71c-46 0 -68 -30 -68 -77v-506c0 -42 17 -69 50 -76v376h23l5 -64c8 43 29 64 77 64h12v-34h-15c-20 0 -37 -3 -46 -10
c-20 -13 -25 -43 -25 -105v-228c36 5 54 32 54 72v206h32v-208z" />
    <glyph glyph-name="uni20A6" unicode="&#x20a6;" horiz-adv-x="335" 
d="M171 288h-81v-288h-31v288h-51v28h51v78h-51v28h51v286h28l75 -286h82v286h31v-286h52v-28h-52v-78h52v-28h-52v-288h-29zM90 422h46l-26 98l-29 121l9 -176v-43zM143 394h-53v-78h73zM244 394h-74l20 -78h54v78zM253 66l-9 181v41h-46l23 -89z" />
    <glyph glyph-name="uni20A8" unicode="&#x20a8;" horiz-adv-x="477" 
d="M75 328v-328h-33v708h68c78 0 110 -26 110 -102v-169c0 -54 -17 -81 -53 -93c38 -9 51 -36 51 -92v-95c0 -98 20 -126 91 -126h23c67 0 80 32 80 110v54c0 20 -5 36 -14 48c-17 24 -47 38 -74 55c-28 17 -48 42 -48 92v95c0 63 30 92 81 92c54 0 81 -30 82 -93v-111h-32
v110c-1 39 -12 65 -50 65s-49 -25 -49 -64v-93c0 -20 5 -36 14 -48c17 -23 47 -35 74 -54c28 -17 48 -42 48 -92v-57c0 -31 -3 -56 -8 -77c-11 -42 -38 -63 -101 -63h-31c-32 0 -57 4 -74 15c-33 20 -45 63 -45 138v97c0 55 -13 78 -67 78h-43zM75 680v-322h41
c48 0 72 27 72 79v167c0 56 -20 76 -79 76h-34z" />
    <glyph glyph-name="uni20A9" unicode="&#x20a9;" horiz-adv-x="355" 
d="M215 285h-74l-35 -285h-31l-19 285h-48v25h46l-6 93h-40v25h38l-19 280h31l17 -280h61l34 280h20l32 -280h58l18 280h30l-20 -280h40v-25h-42l-6 -93h48v-25h-50l-20 -285h-30zM159 428h39l-14 125l-5 90l-5 -90zM133 403h-56l5 -93h39zM201 403h-45l-12 -93h68zM279 403
h-54l10 -93h38zM93 65l10 97l15 123h-34l7 -121zM261 66l3 102l7 117h-33l14 -121z" />
    <glyph glyph-name="uni20AA" unicode="&#x20aa;" horiz-adv-x="423" 
d="M75 679v-679h-33v708h106c84 0 131 -34 131 -124v-446c0 -29 -10 -37 -33 -37v483c0 71 -36 95 -100 95h-71zM144 0v609c25 0 32 -5 32 -34v-545h74c63 0 98 29 98 99v579h33v-579c0 -90 -45 -129 -129 -129h-108z" />
    <glyph glyph-name="uni20AE" unicode="&#x20ae;" horiz-adv-x="184" 
d="M108 304v-304h-33v288l-54 -27v27l54 27v51l-54 -27v27l54 27v284h-67v31h168v-31h-68v-268l56 28v-27l-56 -28v-51l56 28v-27z" />
    <glyph glyph-name="uni20B1" unicode="&#x20b1;" horiz-adv-x="278" 
d="M85 225v-225h-33v403h-44v27h44v79h-44v27h44v172h74c75 0 103 -30 103 -105v-67h42v-27h-42v-79h42v-27h-42v-66c0 -75 -33 -112 -103 -112h-41zM85 679v-143h111v66c0 59 -18 77 -72 77h-39zM196 509h-111v-79h111v79zM196 403h-111v-147h38c52 0 73 28 73 82v65z" />
    <glyph glyph-name="yen" unicode="&#xa5;" horiz-adv-x="222" 
d="M127 152v-152h-33v152h-76v29h76v61h-76v28h76v6l-80 432h34l51 -294l12 -103l13 103l50 294h34l-81 -433v-5h77v-28h-77v-61h77v-29h-77z" />
    <glyph glyph-name="equivalence" unicode="&#x2261;" horiz-adv-x="296" 
d="M53 452v31h186v-31h-186zM53 340v30h186v-30h-186zM53 227v30h186v-30h-186z" />
    <glyph glyph-name="plus" unicode="+" horiz-adv-x="298" 
d="M161 333v-78h-29v78h-80v30h80v79h29v-79h81v-30h-81z" />
    <glyph glyph-name="minus" unicode="&#x2212;" horiz-adv-x="298" 
d="M52 333v31h190v-31h-190z" />
    <glyph glyph-name="multiply" unicode="&#xd7;" horiz-adv-x="298" 
d="M147 337l-74 -77l-22 21l75 78l-68 70l20 21l68 -70l70 72l20 -21l-69 -72l75 -77l-21 -22z" />
    <glyph glyph-name="divide" unicode="&#xf7;" horiz-adv-x="298" 
d="M147 400c-15 0 -22 6 -22 27c0 19 7 27 22 27c17 0 22 -8 22 -28s-7 -26 -22 -26zM52 332v31h190v-31h-190zM147 241c-15 0 -23 6 -23 27c0 19 8 27 23 27c16 0 22 -7 22 -28c0 -20 -7 -26 -22 -26z" />
    <glyph glyph-name="equal" unicode="=" horiz-adv-x="296" 
d="M53 395v30h186v-30h-186zM53 282v31h186v-31h-186z" />
    <glyph glyph-name="notequal" unicode="&#x2260;" horiz-adv-x="296" 
d="M136 282l-18 -68h-24l18 68h-59v31h67l22 82h-89v30h97l17 64h24l-17 -64h65v-30h-73l-22 -82h95v-31h-103z" />
    <glyph glyph-name="greater" unicode="&#x3e;" horiz-adv-x="296" 
d="M58 296l147 65l-147 64v34l187 -85v-26l-187 -87v35z" />
    <glyph glyph-name="less" unicode="&#x3c;" horiz-adv-x="296" 
d="M50 348v26l187 85v-34l-148 -64l148 -65v-35z" />
    <glyph glyph-name="greaterequal" unicode="&#x2265;" horiz-adv-x="296" 
d="M59 331l146 60l-146 57v34l186 -79v-25l-186 -81v34zM59 222v31h186v-31h-186z" />
    <glyph glyph-name="lessequal" unicode="&#x2264;" horiz-adv-x="296" 
d="M50 378v25l187 79v-34l-146 -57l146 -60v-34zM50 222v31h187v-31h-187z" />
    <glyph glyph-name="plusminus" unicode="&#xb1;" horiz-adv-x="298" 
d="M161 408v-78h-29v78h-80v30h80v79h29v-79h81v-30h-81zM52 250v31h190v-31h-190z" />
    <glyph glyph-name="approxequal" unicode="&#x2248;" horiz-adv-x="296" 
d="M96 437c35 0 72 -25 103 -25c20 0 33 9 40 25v-35c-5 -9 -21 -21 -40 -21c-39 0 -73 26 -104 26c-16 0 -35 -10 -42 -25v34c7 9 23 21 43 21zM53 316c7 11 24 21 41 21c38 0 76 -25 105 -25c19 0 31 9 40 24v-34c-5 -9 -17 -21 -40 -21c-38 0 -74 26 -105 26
c-17 0 -34 -13 -41 -25v34z" />
    <glyph glyph-name="asciitilde" unicode="~" horiz-adv-x="257" 
d="M40 597c0 51 13 72 45 72c15 0 26 -4 35 -12c20 -15 33 -35 48 -35c16 0 23 10 23 46h27c0 -48 -15 -73 -49 -73c-13 0 -26 4 -35 12c-19 16 -32 35 -48 35s-19 -10 -19 -45h-27z" />
    <glyph glyph-name="logicalnot" unicode="&#xac;" horiz-adv-x="350" 
d="M262 245v125h-224v31h256v-156h-32z" />
    <glyph glyph-name="infinity" unicode="&#x221e;" horiz-adv-x="543" 
d="M133 251c-58 0 -99 37 -99 96s41 98 99 98c20 0 37 -4 54 -13c34 -16 61 -43 85 -64c12 11 26 22 39 34c29 24 62 43 101 43c58 0 96 -39 96 -98c0 -56 -41 -96 -96 -96c-20 0 -38 4 -55 12c-33 17 -61 43 -85 63c-12 -11 -26 -22 -39 -33c-28 -24 -61 -42 -100 -42z
M133 281c48 0 86 37 118 66c-33 31 -71 68 -118 68c-38 0 -67 -29 -67 -68c0 -38 28 -66 67 -66zM410 281c40 0 68 28 68 66c0 39 -29 68 -68 68c-46 0 -83 -37 -117 -68c32 -29 70 -66 117 -66z" />
    <glyph glyph-name="integral" unicode="&#x222b;" horiz-adv-x="152" 
d="M2 -90h12c36 0 45 14 45 76v635c0 87 20 112 78 112h12v-30h-8c-39 0 -49 -14 -49 -84v-636c0 -79 -19 -104 -74 -104h-16v31z" />
    <glyph glyph-name="uni2126" unicode="&#x2126;" horiz-adv-x="413" 
d="M156 0h-136v32h117c-15 29 -29 61 -44 96c-29 71 -51 157 -51 275c0 80 6 143 21 189c28 92 78 126 142 126c48 0 88 -16 119 -63s48 -125 48 -252c0 -59 -5 -110 -14 -154c-19 -90 -50 -155 -79 -217h117v-32h-136l-17 30c15 32 30 65 45 100c29 71 51 155 51 273
c0 119 -16 192 -41 232c-25 42 -58 54 -93 54c-23 0 -45 -8 -65 -24c-39 -33 -65 -111 -65 -262c0 -59 6 -110 15 -154c20 -87 54 -153 83 -219z" />
    <glyph glyph-name="uni2206" unicode="&#x2206;" horiz-adv-x="292" 
d="M10 0l136 721l137 -721h-273zM146 568l-97 -536h195z" />
    <glyph glyph-name="product" unicode="&#x220f;" horiz-adv-x="368" 
d="M246 679h-126v-679h-33v679h-70v29h334v-29h-72v-679h-33v679z" />
    <glyph glyph-name="summation" unicode="&#x2211;" horiz-adv-x="199" 
d="M180 0h-167v32l95 336l-90 306v34h159v-31h-127l92 -310l-95 -335h133v-32z" />
    <glyph glyph-name="radical" unicode="&#x221a;" horiz-adv-x="400" 
d="M161 0l-87 403h-53v32h78l78 -362l175 635h32l-195 -708h-28z" />
    <glyph glyph-name="partialdiff" unicode="&#x2202;" horiz-adv-x="250" 
d="M125 -6c-54 0 -89 31 -89 99v385c0 67 34 99 81 99c34 0 54 -14 65 -43c-12 87 -51 156 -143 214h45c87 -58 129 -154 129 -280l1 -375c0 -66 -35 -99 -89 -99zM125 24c39 0 56 28 56 70v377c0 48 -17 77 -56 77c-38 0 -56 -27 -56 -70v-384c0 -42 18 -70 56 -70z" />
    <glyph glyph-name="percent" unicode="%" horiz-adv-x="420" 
d="M107 402c-48 0 -73 30 -73 90v136c0 54 24 86 74 86s73 -32 73 -86v-136c0 -55 -23 -90 -74 -90zM331 708h30l-270 -708h-31zM107 430c31 0 46 21 46 64v133c0 42 -14 61 -45 61c-33 0 -46 -22 -46 -61v-133c0 -43 16 -64 45 -64zM313 -6c-48 0 -73 30 -73 90v135
c0 54 23 87 73 87s73 -33 73 -87v-135c0 -55 -23 -90 -73 -90zM313 22c31 0 45 21 45 64v132c0 42 -14 62 -45 62c-33 0 -45 -23 -45 -62v-132c0 -43 16 -64 45 -64z" />
    <glyph glyph-name="perthousand" unicode="&#x2030;" horiz-adv-x="611" 
d="M107 402c-48 0 -73 30 -73 90v136c0 54 24 86 74 86s73 -32 73 -86v-136c0 -55 -23 -90 -74 -90zM331 708h30l-270 -708h-31zM107 430c31 0 46 21 46 64v133c0 42 -14 61 -45 61c-33 0 -46 -22 -46 -61v-133c0 -43 16 -64 45 -64zM313 -6c-48 0 -73 30 -73 90v135
c0 54 23 87 73 87s73 -33 73 -87v-135c0 -55 -23 -90 -73 -90zM504 -6c-50 0 -74 30 -74 90v135c0 54 24 87 74 87c48 0 73 -33 73 -87v-135c0 -55 -23 -90 -73 -90zM313 22c31 0 45 21 45 64v132c0 42 -14 62 -45 62c-33 0 -45 -23 -45 -62v-132c0 -43 16 -64 45 -64z
M504 22c31 0 45 21 45 64v132c0 42 -14 62 -45 62c-33 0 -46 -23 -46 -62v-132c0 -43 15 -64 46 -64z" />
    <glyph glyph-name="uni207A" unicode="&#x207a;" horiz-adv-x="154" 
d="M89 534v-38h-24v38h-39v23h39v38h24v-38h38v-23h-38z" />
    <glyph glyph-name="uni207B" unicode="&#x207b;" horiz-adv-x="154" 
d="M27 534v25h99v-25h-99z" />
    <glyph glyph-name="uni207C" unicode="&#x207c;" horiz-adv-x="154" 
d="M27 557v24h99v-24h-99zM27 497v24h99v-24h-99z" />
    <glyph glyph-name="uni208A" unicode="&#x208a;" horiz-adv-x="154" 
d="M89 164v-38h-24v38h-39v23h39v38h24v-38h38v-23h-38z" />
    <glyph glyph-name="uni208B" unicode="&#x208b;" horiz-adv-x="154" 
d="M27 164v25h99v-25h-99z" />
    <glyph glyph-name="uni208C" unicode="&#x208c;" horiz-adv-x="154" 
d="M27 194v24h99v-24h-99zM27 134v24h99v-24h-99z" />
    <glyph glyph-name="uni22A0" unicode="&#x22a0;" horiz-adv-x="898" 
d="M97 708h704v-708h-704v708zM160 60h577v589h-577v-589zM451 318l-166 -171l-38 39l166 171l-163 167l39 38l162 -166l160 165l38 -38l-161 -166l164 -168l-39 -38z" />
    <glyph glyph-name="plus.inf" horiz-adv-x="154" 
d="M89 19v-38h-24v38h-39v23h39v38h24v-38h38v-23h-38z" />
    <glyph glyph-name="minus.inf" horiz-adv-x="154" 
d="M27 19v25h99v-25h-99z" />
    <glyph glyph-name="equal.inf" horiz-adv-x="154" 
d="M27 42v24h99v-24h-99zM27 -18v24h99v-24h-99z" />
    <glyph glyph-name="arrowup" unicode="&#x2191;" horiz-adv-x="616" 
d="M450 445c-60 24 -109 74 -136 114v-464h-31v464c-27 -42 -77 -89 -136 -114v35c20 8 39 20 58 35c39 31 71 69 86 98h16c8 -15 18 -31 34 -48c31 -36 70 -69 109 -85v-35z" />
    <glyph glyph-name="uni2197" unicode="&#x2197;" horiz-adv-x="616" 
d="M468 310c-25 60 -25 131 -16 177l-328 -327l-22 21l328 328c-47 -9 -117 -7 -176 16l24 24c20 -8 42 -13 66 -16c50 -5 99 -2 130 9l11 -11c-5 -16 -8 -35 -11 -58c-3 -47 2 -98 18 -138z" />
    <glyph glyph-name="arrowright" unicode="&#x2192;" horiz-adv-x="616" 
d="M407 200c27 59 75 109 115 136h-464v30h465c-40 27 -90 77 -114 137h34c8 -20 20 -39 35 -58c31 -39 69 -70 98 -86v-16c-15 -7 -31 -18 -48 -33c-35 -31 -68 -71 -85 -110h-36z" />
    <glyph glyph-name="uni2198" unicode="&#x2198;" horiz-adv-x="616" 
d="M473 166c-15 5 -34 8 -58 11c-47 3 -98 -2 -137 -18l-25 25c62 27 132 26 178 15l-329 328l22 22l328 -328c-9 47 -8 118 16 177l24 -25c-8 -20 -13 -42 -16 -66c-5 -50 -2 -98 9 -129z" />
    <glyph glyph-name="arrowdown" unicode="&#x2193;" horiz-adv-x="616" 
d="M291 94c-8 15 -19 31 -34 48c-31 36 -70 69 -110 85v35c60 -25 111 -74 136 -114v464h31v-464c27 40 78 88 136 113v-34c-19 -8 -38 -20 -58 -36c-39 -31 -70 -68 -85 -97h-16z" />
    <glyph glyph-name="uni2199" unicode="&#x2199;" horiz-adv-x="616" 
d="M316 159c-19 8 -41 13 -66 16c-48 5 -97 2 -129 -9l-11 11c5 16 9 35 10 58c3 47 -2 99 -18 138l25 25c27 -60 26 -131 15 -178l329 328l21 -21l-327 -328c47 9 117 7 176 -16z" />
    <glyph glyph-name="arrowleft" unicode="&#x2190;" horiz-adv-x="616" 
d="M92 336c40 -27 90 -77 115 -136h-36c-8 20 -20 38 -36 58c-31 39 -68 72 -97 85v16c15 8 31 19 48 34c36 31 69 71 85 110h34c-24 -60 -74 -110 -114 -137h465v-30h-464z" />
    <glyph glyph-name="uni2196" unicode="&#x2196;" horiz-adv-x="616" 
d="M471 160l-328 328c9 -47 7 -118 -17 -177l-24 25c8 20 13 42 16 66c5 50 3 98 -8 129l11 12c16 -5 35 -8 58 -11c47 -3 99 2 138 18l24 -25c-60 -25 -131 -24 -178 -15l329 -328z" />
    <glyph glyph-name="uni25CF" unicode="&#x25cf;" horiz-adv-x="901" 
d="M450 -10c-71 0 -132 15 -187 47c-109 62 -174 174 -174 315c0 106 38 195 102 261c66 64 154 102 259 102c106 0 196 -37 260 -103c66 -66 102 -154 102 -260s-38 -194 -102 -260c-66 -64 -154 -102 -260 -102z" />
    <glyph glyph-name="circle" unicode="&#x25cb;" horiz-adv-x="901" 
d="M450 -10c-71 0 -132 15 -187 47c-109 62 -174 174 -174 315c0 106 38 195 102 261c66 64 154 102 259 102c106 0 196 -37 260 -103c66 -66 102 -154 102 -260s-38 -194 -102 -260c-66 -64 -154 -102 -260 -102zM450 51c58 0 107 13 153 40c90 52 146 147 146 261
c0 58 -12 107 -39 153c-52 92 -145 149 -260 149c-56 0 -107 -14 -151 -39c-91 -54 -147 -146 -147 -263c0 -58 12 -108 39 -154c51 -91 144 -147 259 -147z" />
    <glyph glyph-name="uni25CE" unicode="&#x25ce;" horiz-adv-x="907" 
d="M453 -10c-71 0 -134 15 -189 47c-110 62 -175 175 -175 318c0 106 36 196 102 262s155 104 262 104c106 0 195 -37 262 -103c66 -66 103 -156 103 -263c0 -106 -36 -195 -102 -262c-66 -66 -156 -103 -263 -103zM453 119c46 0 85 11 120 31c71 42 114 115 114 205
c0 44 -10 85 -30 121c-42 72 -113 118 -204 118c-44 0 -83 -11 -119 -31c-70 -43 -114 -117 -114 -208c0 -44 10 -85 31 -120c42 -72 114 -116 202 -116zM454 186c-33 0 -63 7 -88 22c-51 29 -82 82 -82 146c0 34 7 62 23 87c29 52 83 83 147 83c32 0 60 -7 87 -22
c51 -29 83 -82 83 -148c0 -32 -7 -61 -22 -86c-31 -51 -82 -82 -148 -82zM454 297c32 0 54 25 54 57c0 35 -22 58 -54 58s-54 -23 -54 -58c0 -32 22 -57 54 -57z" />
    <glyph glyph-name="lozenge" unicode="&#x25ca;" horiz-adv-x="364" 
d="M26 350l155 155l157 -156l-156 -155zM182 236l115 113l-116 115l-113 -114z" />
    <glyph glyph-name="filledbox" unicode="&#x25a0;" horiz-adv-x="898" 
d="M97 708h704v-708h-704v708z" />
    <glyph glyph-name="uni25A1" unicode="&#x25a1;" horiz-adv-x="898" 
d="M97 0v708h704v-708h-704zM160 649v-589h577v589h-577z" />
    <glyph glyph-name="uni25AA" unicode="&#x25aa;" horiz-adv-x="761" 
d="M99 563h563v-563h-563v563z" />
    <glyph glyph-name="uni25AB" unicode="&#x25ab;" horiz-adv-x="761" 
d="M99 563h563v-563h-563v563zM162 60h438v443h-438v-443z" />
    <glyph glyph-name="triagup" unicode="&#x25b2;" horiz-adv-x="871" 
d="M19 0l417 721l416 -721h-833z" />
    <glyph glyph-name="triagdn" unicode="&#x25bc;" horiz-adv-x="871" 
d="M852 709l-416 -721l-417 721h833z" />
    <glyph glyph-name="triagrt" unicode="&#x25ba;" horiz-adv-x="871" 
d="M97 777l721 -416l-721 -416v832z" />
    <glyph glyph-name="triaglf" unicode="&#x25c4;" horiz-adv-x="871" 
d="M774 -55l-721 416l721 416v-832z" />
    <glyph glyph-name="uni25E5" unicode="&#x25e5;" horiz-adv-x="871" 
d="M43 -56l216 804l588 -590z" />
    <glyph glyph-name="uni25E2" unicode="&#x25e2;" horiz-adv-x="871" 
d="M259 -71l-215 804l804 -215z" />
    <glyph glyph-name="uni25E3" unicode="&#x25e3;" horiz-adv-x="871" 
d="M25 518l805 215l-216 -804z" />
    <glyph glyph-name="uni25E4" unicode="&#x25e4;" horiz-adv-x="871" 
d="M28 163l589 588l216 -803z" />
    <glyph glyph-name="uni2605" unicode="&#x2605;" horiz-adv-x="894" 
d="M630 84l-186 135l-185 -135l72 218l-185 134l227 -1l72 217l71 -217l228 -1l-186 -133z" />
    <glyph glyph-name="sun" unicode="&#x263c;" horiz-adv-x="922" 
d="M431 705h54l-17 -141h-20zM259 646l47 27l54 -131l-14 -10zM610 673l46 -27l-86 -114l-15 10zM139 507l28 46l114 -86l-10 -15zM747 553l30 -45l-132 -56l-10 16zM285 353c0 32 8 60 23 87c32 54 87 87 150 87c32 0 61 -8 86 -24c54 -31 87 -86 87 -150
c0 -31 -8 -61 -24 -86c-31 -52 -86 -86 -149 -86c-32 0 -60 8 -87 23c-52 32 -86 86 -86 149zM107 328v53l141 -17v-19zM809 381v-53l-142 17v19zM169 156l-30 46l132 55l10 -15zM777 203l-28 -47l-114 87l10 14zM306 36l-47 27l87 115l14 -10zM656 63l-46 -27l-55 132
l15 10zM485 4h-54l17 141h20z" />
    <glyph glyph-name="uni263E" unicode="&#x263e;" horiz-adv-x="782" 
d="M531 601c-44 0 -84 -11 -120 -34c-72 -44 -118 -124 -118 -216c0 -46 11 -86 32 -125c43 -75 118 -124 206 -124c23 0 47 5 70 12c-51 -36 -111 -57 -177 -57c-82 0 -153 32 -208 87c-54 54 -86 127 -86 207c0 82 32 154 86 209c55 54 126 86 208 86
c66 0 126 -21 177 -57c-23 7 -47 12 -70 12z" />
    <glyph glyph-name="spade" unicode="&#x2660;" horiz-adv-x="896" 
d="M480 282c0 -59 18 -116 39 -166c23 -51 46 -91 58 -116h-252c9 17 20 40 35 69c29 59 57 135 57 213c-8 -23 -19 -44 -34 -64c-28 -40 -71 -68 -131 -68c-29 0 -58 8 -83 21c-51 28 -84 77 -84 133c0 38 8 71 24 103c32 63 97 125 206 211l136 108h1l136 -108
c54 -43 97 -80 129 -114c66 -67 93 -125 93 -200c0 -28 -6 -53 -21 -77c-28 -46 -75 -76 -133 -76c-32 0 -59 6 -82 19c-47 25 -77 68 -94 112z" />
    <glyph glyph-name="club" unicode="&#x2663;" horiz-adv-x="896" 
d="M643 127c-75 0 -132 49 -159 116c4 -33 13 -67 25 -98c24 -64 54 -116 69 -145h-252c8 15 19 35 31 60c25 50 51 116 59 184c-27 -67 -87 -117 -163 -117c-32 0 -60 8 -87 24c-52 31 -86 86 -86 150c0 32 8 60 23 87c32 52 87 85 150 85c15 0 28 -3 41 -6
c-12 27 -20 55 -20 84c0 32 8 61 23 86c31 52 86 84 149 84c32 0 61 -7 86 -23c52 -29 85 -83 85 -147c0 -29 -7 -59 -18 -86c13 5 29 8 45 8c32 0 61 -8 86 -23c52 -31 85 -85 85 -149c0 -32 -8 -60 -23 -87c-31 -54 -85 -87 -149 -87z" />
    <glyph glyph-name="heart" unicode="&#x2665;" horiz-adv-x="896" 
d="M308 136c-54 60 -96 113 -130 159c-66 94 -92 167 -92 243c0 34 8 64 24 92c32 55 88 91 155 91c34 0 61 -7 88 -20c51 -28 85 -76 92 -136c11 90 80 156 179 156c34 0 64 -8 92 -25c56 -33 93 -91 93 -158c0 -38 -7 -76 -23 -115c-31 -78 -94 -166 -204 -287l-137 -153z
" />
    <glyph glyph-name="diamond" unicode="&#x2666;" horiz-adv-x="896" 
d="M448 729l318 -368l-318 -371l-319 371z" />
    <glyph glyph-name="uni267B" unicode="&#x267b;" horiz-adv-x="824" 
d="M348 676h163c31 -1 55 -1 76 -39l24 -41l37 21l-53 -141l-144 27l34 20l-61 105c-8 15 -19 25 -31 32c-24 13 -45 15 -45 15v1zM233 624c4 7 15 19 28 26c17 9 34 13 54 12c39 -3 73 -21 84 -42l-97 -169l-126 73zM744 365c4 -7 8 -21 8 -36c0 -20 -5 -37 -16 -53
c-21 -32 -55 -52 -79 -52l-97 168l125 72zM163 124l-81 141c-15 27 -25 48 -4 86l24 41l-36 21l148 26l49 -140l-34 21l-30 -51c-16 -27 -30 -51 -31 -54c-8 -15 -12 -29 -12 -42c0 -28 9 -49 9 -49h-2zM735 244l-82 -142c-16 -25 -29 -47 -73 -47h-48v-41l-95 114l95 115
v-42h121c17 0 31 4 43 11c24 15 38 33 38 33zM270 55c-9 0 -24 3 -37 11c-17 11 -30 24 -38 41c-17 35 -18 74 -6 94h194v-146h-113z" />
    <glyph glyph-name="uni267C" unicode="&#x267c;" horiz-adv-x="824" 
d="M748 351c0 -92 -36 -176 -98 -236c-62 -62 -145 -98 -237 -98c-94 0 -176 36 -239 98c-62 60 -99 144 -99 236c0 95 37 177 99 240c63 62 145 98 239 98c92 0 175 -36 237 -98c62 -63 98 -145 98 -240zM356 607l11 -2c15 -4 37 -12 49 -35l48 -81l-27 -16l112 -21l40 109
l-28 -15l-18 31c-17 29 -35 31 -60 31h-127v-1zM228 490l98 -57l74 131c-4 8 -13 15 -25 22c-24 12 -55 17 -82 1c-9 -5 -18 -14 -21 -21zM623 443l-98 -57l76 -131c9 0 20 4 31 11c23 16 42 42 42 73c0 12 -4 21 -8 28zM219 180c0 0 -2 3 -3 11c-5 13 -7 38 5 59l47 82
l27 -17l-39 108l-113 -19l28 -17l-19 -32c-17 -29 -8 -44 3 -67l63 -108h1zM659 272l-7 -8c-9 -11 -28 -24 -55 -24h-93v30l-75 -87l75 -89v33h37c35 0 44 16 56 36l63 108zM385 127v113h-151c-5 -8 -7 -20 -6 -33c1 -27 15 -56 40 -72c11 -5 22 -8 29 -8h88z" />
    <glyph glyph-name="uni267D" unicode="&#x267d;" horiz-adv-x="824" 
d="M748 351c0 -92 -36 -176 -98 -236c-62 -62 -145 -98 -237 -98c-94 0 -176 36 -239 98c-62 60 -99 144 -99 236c0 95 37 177 99 240c63 62 145 98 239 98c92 0 175 -36 237 -98c62 -63 98 -145 98 -240zM731 351c0 90 -34 169 -93 228s-137 93 -225 93s-168 -34 -227 -93
s-94 -138 -94 -228c0 -88 35 -166 94 -225s139 -93 227 -93s166 34 225 93s93 137 93 225zM356 608h127c25 0 43 -2 60 -31l18 -31l28 15l-40 -109l-112 21l27 16l-48 81c-7 11 -15 19 -24 24c-19 11 -36 13 -36 13v1zM272 566c3 7 12 16 21 21c13 8 27 11 42 10
c29 -3 57 -16 65 -33l-74 -131l-98 57zM666 367c4 -7 8 -16 8 -28c0 -15 -4 -30 -12 -42c-17 -25 -42 -42 -61 -42l-76 131l98 57zM218 180l-63 108c-11 23 -20 38 -3 67l19 32l-28 17l113 19l39 -108l-27 17l-47 -82c-7 -11 -9 -22 -9 -33c0 -21 7 -37 7 -37h-1zM660 271
l-63 -108c-12 -20 -21 -36 -56 -36h-37v-33l-75 89l75 87v-30h93c13 0 25 3 34 8c19 11 28 24 28 24zM297 127c-7 0 -18 3 -29 8c-13 8 -22 19 -29 32c-13 27 -14 57 -5 73h151v-113h-88z" />
    <glyph glyph-name="uni26AC" unicode="&#x26ac;" horiz-adv-x="760" 
d="M380 -10c-56 0 -106 13 -150 38c-88 52 -142 143 -142 254c0 56 12 106 39 150c52 88 143 142 253 142c55 0 105 -13 149 -38c88 -51 144 -140 144 -254c0 -56 -12 -106 -39 -150c-51 -88 -143 -142 -254 -142zM380 48c44 0 83 10 118 31c70 40 112 113 112 203
c0 46 -10 85 -30 121c-40 71 -112 113 -200 113c-44 0 -84 -10 -119 -31c-68 -42 -110 -115 -110 -203c0 -44 10 -83 29 -119c40 -71 110 -115 200 -115z" />
    <glyph glyph-name="at" unicode="@" horiz-adv-x="436" 
d="M219 -102c-121 0 -186 63 -186 189v426c0 123 75 190 181 190c36 0 68 -8 96 -21c58 -28 92 -83 92 -166v-411c0 -54 -19 -92 -69 -92c-33 0 -52 22 -60 54c-7 -40 -27 -60 -61 -60c-51 0 -74 30 -74 108v366c0 91 28 114 70 114c35 0 52 -17 60 -52l3 47h23v-486
c0 -38 14 -64 39 -64c29 0 39 31 39 67v410c0 103 -67 157 -158 157c-90 0 -150 -57 -150 -160v-427c0 -106 51 -159 156 -159c50 0 97 17 118 53l30 -15c-33 -47 -83 -68 -149 -68zM216 34c31 0 48 29 48 99v325c0 72 -7 111 -50 111c-29 0 -45 -21 -45 -93v-357
c0 -63 14 -85 47 -85z" />
    <glyph glyph-name="ampersand" unicode="&#x26;" horiz-adv-x="350" 
d="M313 -5c-25 0 -48 15 -71 44c-24 -28 -56 -44 -96 -44c-71 0 -120 43 -120 149v16c0 84 33 155 79 223c-19 75 -30 146 -30 210v12c0 67 28 109 79 109c52 0 77 -32 77 -99v-11c0 -90 -45 -159 -92 -231c11 -38 22 -74 37 -116c25 -72 48 -124 68 -162
c31 63 40 157 40 259v82h31v-82c0 -113 -14 -220 -53 -287c19 -27 36 -40 53 -40c11 0 17 4 24 9v-35c-7 -4 -15 -6 -26 -6zM107 593c0 -58 7 -117 22 -181c39 62 71 117 71 193v11c0 43 -11 69 -46 69c-32 0 -47 -32 -47 -79v-13zM148 26c31 0 57 13 77 38
c-25 42 -50 99 -78 181c-12 34 -22 66 -31 98c-33 -56 -58 -115 -58 -186v-11c0 -83 40 -120 90 -120z" />
    <glyph glyph-name="paragraph" unicode="&#xb6;" horiz-adv-x="352" 
d="M180 0v389h-26c-78 -1 -131 54 -131 152v18c0 101 52 149 132 149h155v-708h-33v678h-65v-678h-32zM180 420v258h-25c-59 0 -98 -35 -98 -119v-18c0 -75 39 -121 98 -121h25z" />
    <glyph glyph-name="section" unicode="&#xa7;" horiz-adv-x="270" 
d="M135 -6c-54 0 -83 28 -84 94v96h33v-95c1 -38 15 -65 51 -65c39 0 52 25 52 63v50c0 54 -40 84 -82 119s-82 69 -82 131v40c0 50 24 77 51 81c-13 20 -21 42 -21 69v44c0 63 31 93 82 93c55 0 82 -31 82 -94v-86h-32v86c-1 38 -12 64 -50 64s-49 -24 -49 -63v-42
c0 -50 39 -81 81 -116c40 -33 80 -71 80 -134v-47c0 -46 -20 -69 -47 -74c12 -20 20 -42 20 -70v-52c0 -62 -30 -92 -85 -92zM138 272c19 -15 35 -30 50 -47c19 8 27 27 27 58v44c0 54 -39 86 -81 119c-17 15 -33 29 -48 46c-21 -9 -30 -32 -30 -66v-37
c0 -51 40 -82 82 -117z" />
    <glyph glyph-name="copyright" unicode="&#xa9;" horiz-adv-x="429" 
d="M215 -12c-107 0 -178 55 -178 178v365c0 123 70 187 176 187c107 0 179 -60 179 -182v-367c0 -122 -74 -181 -177 -181zM215 17c91 0 147 47 147 152v368c0 102 -58 153 -149 153c-90 0 -146 -53 -146 -158v-366c0 -103 57 -149 148 -149zM216 91c-48 0 -79 27 -79 87
v351c0 59 32 88 79 88s78 -29 79 -84v-119h-31v119c-1 35 -14 56 -48 56c-32 0 -48 -19 -48 -61v-350c0 -35 15 -58 48 -58c34 0 47 20 48 55v139h31v-140c-1 -56 -32 -83 -79 -83z" />
    <glyph glyph-name="registered" unicode="&#xae;" horiz-adv-x="330" 
d="M166 432c-82 0 -141 48 -141 138v7c0 87 58 142 140 142c79 0 139 -53 139 -141v-8c0 -87 -60 -138 -138 -138zM166 457c67 0 112 40 112 115v4c0 75 -46 118 -113 118s-113 -44 -113 -118v-4c0 -74 46 -115 114 -115zM136 559v-54h-24v145h59c40 0 55 -16 55 -43
c0 -20 -9 -32 -29 -37c17 -3 26 -16 26 -37v-21c0 -3 1 -6 2 -7h-26l-2 7v21c0 19 -3 26 -30 26h-31zM136 629v-49h31c24 0 35 9 35 26c0 19 -10 23 -33 23h-33z" />
    <glyph glyph-name="uni2117" unicode="&#x2117;" horiz-adv-x="429" 
d="M215 -12c-107 0 -178 55 -178 178v365c0 123 70 187 176 187c107 0 179 -60 179 -182v-367c0 -122 -74 -181 -177 -181zM215 17c91 0 147 47 147 152v368c0 102 -58 153 -149 153c-90 0 -146 -53 -146 -158v-366c0 -103 57 -149 148 -149zM174 256v-158h-31v512h57
c71 0 96 -23 96 -94v-157c0 -68 -25 -103 -91 -103h-31zM174 582v-296h27c47 0 64 24 64 75v150c0 54 -11 71 -66 71h-25z" />
    <glyph glyph-name="trademark" unicode="&#x2122;" horiz-adv-x="307" 
d="M76 687v-283h-23v283h-38v21h100v-21h-39zM157 404h-22v304h24l40 -201l2 -21l2 21l37 201h24v-304h-21v134l5 137l-11 -74l-34 -171h-6l-34 170l-11 75l5 -137v-134z" />
    <glyph glyph-name="uni2105" unicode="&#x2105;" horiz-adv-x="420" 
d="M107 402c-48 0 -73 30 -73 90v136c0 55 24 86 74 86c51 0 73 -31 73 -86v-27h-28v26c0 42 -14 61 -45 61c-33 0 -46 -22 -46 -61v-134c0 -42 16 -63 45 -63c31 0 46 21 46 63v33h28v-34c0 -56 -23 -90 -74 -90zM331 708h30l-270 -708h-31zM313 -6c-51 0 -73 29 -73 89
v137c0 54 23 86 73 86c52 0 73 -32 73 -86v-137c0 -55 -22 -89 -73 -89zM313 21c31 0 45 21 45 63v135c0 42 -14 62 -45 62c-33 0 -45 -23 -45 -62v-135c0 -42 16 -63 45 -63z" />
    <glyph glyph-name="degree" unicode="&#xb0;" horiz-adv-x="240" 
d="M119 541c-54 0 -88 34 -88 85v4c0 55 41 86 88 86c54 0 89 -34 89 -86v-4c0 -50 -34 -85 -89 -85zM119 569c39 0 59 25 59 58v3c0 36 -24 59 -59 59c-31 0 -57 -20 -57 -59v-3c0 -36 21 -58 57 -58z" />
    <glyph glyph-name="bar" unicode="|" horiz-adv-x="116" 
d="M42 -104v931h32v-931h-32z" />
    <glyph glyph-name="brokenbar" unicode="&#xa6;" horiz-adv-x="116" 
d="M42 827h32v-415h-32v415zM74 324v-428h-32v428h32z" />
    <glyph glyph-name="dagger" unicode="&#x2020;" horiz-adv-x="223" 
d="M127 477v-497h-31v497h-73v30h73v219h31v-219h73v-30h-73z" />
    <glyph glyph-name="daggerdbl" unicode="&#x2021;" horiz-adv-x="223" 
d="M127 232v-252h-31v252h-73v30h73v215h-73v30h73v219h31v-219h73v-30h-73v-215h73v-30h-73z" />
    <glyph glyph-name="uni2116" unicode="&#x2116;" horiz-adv-x="470" 
d="M370 296c-44 0 -66 26 -66 68v281c0 43 24 68 66 68c43 0 66 -25 66 -67v-281c0 -43 -23 -69 -66 -69zM73 0h-31v708h28l128 -508l26 -119l-8 166v461h31v-708h-28l-129 519l-24 105l7 -159v-465zM370 324c24 0 37 17 37 41v280c0 24 -12 41 -37 41
c-24 0 -37 -14 -37 -42v-279c0 -24 12 -41 37 -41zM433 213h-127v31h127v-31z" />
    <glyph glyph-name="asciicircum" unicode="^" horiz-adv-x="260" 
d="M129 670l-56 -158h-32l76 196h25l76 -196h-32z" />
    <glyph glyph-name="house" unicode="&#x2302;" horiz-adv-x="846" 
d="M99 0v403l324 311l324 -311v-403h-648z" />
    <glyph glyph-name="uni2032" unicode="&#x2032;" horiz-adv-x="133" 
d="M27 511l44 197h35l-55 -197h-24z" />
    <glyph glyph-name="uni2033" unicode="&#x2033;" horiz-adv-x="212" 
d="M27 511l43 197h35l-54 -197h-24zM98 511l55 197h34l-65 -197h-24z" />
    <glyph glyph-name="uni2120" unicode="&#x2120;" horiz-adv-x="330" 
d="M82 400c-31 0 -46 16 -46 45v77h23v-76c0 -16 8 -25 23 -25s22 8 22 24v69c0 23 -11 29 -32 40c-24 15 -35 22 -35 51v64c0 29 16 43 45 43c28 0 43 -14 44 -43v-70h-23v69c0 16 -6 24 -21 24s-22 -7 -22 -23v-63c0 -21 11 -27 28 -36c24 -12 39 -22 39 -54v-71
c0 -29 -14 -45 -45 -45zM180 404h-22v304h24l40 -201l2 -21l2 21l37 201h24v-304h-21v134l5 137l-11 -74l-34 -171h-6l-34 170l-11 75l5 -137v-134z" />
    <glyph glyph-name="at.cap" horiz-adv-x="436" 
d="M219 -51c-121 0 -186 63 -186 188v427c0 123 75 190 181 190c36 0 68 -8 96 -21c58 -28 92 -83 92 -166v-412c0 -54 -19 -91 -69 -91c-33 0 -52 22 -60 54c-7 -40 -27 -60 -61 -60c-51 0 -74 30 -74 108v366c0 91 28 114 70 114c35 0 52 -17 60 -52l3 47h23v-486
c0 -39 14 -64 39 -64c29 0 39 29 39 67v410c0 103 -67 157 -158 157c-90 0 -150 -57 -150 -160v-427c0 -107 51 -160 156 -160c50 0 97 18 118 54l30 -16c-33 -47 -83 -67 -149 -67zM216 85c31 0 48 29 48 99v325c0 71 -7 110 -50 110c-29 0 -45 -20 -45 -92v-357
c0 -63 14 -85 47 -85z" />
    <glyph glyph-name="registered.cap" horiz-adv-x="429" 
d="M215 -12c-107 0 -178 55 -178 178v365c0 123 70 187 176 187c107 0 179 -60 179 -182v-367c0 -122 -74 -181 -177 -181zM215 17c91 0 147 47 147 152v368c0 102 -58 153 -149 153c-90 0 -146 -53 -146 -158v-366c0 -103 57 -149 148 -149zM172 331v-233h-31v512h57
c71 0 96 -23 96 -94v-84c0 -47 -14 -74 -43 -85c34 -9 41 -33 41 -87v-125c0 -16 4 -28 12 -37h-34c-5 7 -9 20 -9 37v122c0 51 -4 74 -55 74h-34zM172 582v-223h32c47 0 59 25 59 75v77c0 54 -11 71 -66 71h-25z" />
    <glyph glyph-name="bar.cap" horiz-adv-x="116" 
d="M42 -104v931h32v-931h-32z" />
    <glyph glyph-name="brokenbar.cap" horiz-adv-x="116" 
d="M42 827h32v-415h-32v415zM74 -104h-32v428h32v-428z" />
    <glyph glyph-name="acute" unicode="&#xb4;" 
d="M155 744h35l-71 -120h-25z" />
    <glyph glyph-name="breve" unicode="&#x2d8;" 
d="M119 623c-54 0 -72 29 -75 91h27c3 -46 11 -65 49 -66c35 1 49 20 50 66h26c-1 -62 -25 -91 -77 -91z" />
    <glyph glyph-name="caron" unicode="&#x2c7;" 
d="M111 623l-58 102h30l39 -72l41 72h30l-59 -102h-23z" />
    <glyph glyph-name="cedilla" unicode="&#xb8;" 
d="M121 -153c-43 0 -66 19 -71 61h29c3 -27 18 -36 42 -36c27 0 44 8 44 33c0 23 -14 30 -45 30h-11v75h26v-52c38 -3 59 -19 59 -52c0 -40 -31 -59 -73 -59z" />
    <glyph glyph-name="circumflex" unicode="&#x2c6;" 
d="M123 697l-41 -73h-30l60 101h23l58 -101h-31z" />
    <glyph glyph-name="dieresis" unicode="&#xa8;" horiz-adv-x="248" 
d="M84 628c-13 0 -21 11 -21 32s8 31 21 31c15 0 21 -11 21 -32c0 -20 -6 -31 -21 -31zM158 628c-15 0 -22 11 -22 32s7 31 22 31s21 -11 21 -32c0 -20 -6 -31 -21 -31z" />
    <glyph glyph-name="dotaccent" unicode="&#x2d9;" horiz-adv-x="247" 
d="M120 624c-16 0 -25 12 -25 35c0 24 9 35 25 35c17 0 25 -12 25 -36c0 -23 -8 -34 -25 -34z" />
    <glyph glyph-name="grave" unicode="`" horiz-adv-x="247" 
d="M61 728h34l49 -104h-25z" />
    <glyph glyph-name="hungarumlaut" unicode="&#x2dd;" horiz-adv-x="247" 
d="M95 624h-24l43 104h35zM159 624h-24l50 104h35z" />
    <glyph glyph-name="macron" unicode="&#xaf;" 
d="M58 668h130v-28h-130v28z" />
    <glyph glyph-name="ogonek" unicode="&#x2db;" 
d="M134 -142c-44 0 -67 20 -67 63c0 33 21 62 59 93l20 -14c-33 -29 -51 -53 -51 -78c0 -23 13 -39 40 -39c24 0 39 12 44 36h30c-9 -42 -35 -61 -75 -61z" />
    <glyph glyph-name="ring" unicode="&#x2da;" 
d="M121 626c-38 0 -67 24 -67 66c0 39 28 66 67 66c40 0 68 -26 68 -66c0 -42 -29 -66 -68 -66zM121 651c24 0 40 17 40 41s-16 41 -40 41c-23 0 -39 -17 -39 -41s15 -41 39 -41z" />
    <glyph glyph-name="tilde" unicode="&#x2dc;" 
d="M40 626c0 50 13 69 44 69c13 0 25 -4 34 -11c19 -16 33 -34 46 -34c16 0 22 9 22 44h26c-1 -46 -14 -71 -46 -71c-13 0 -25 4 -34 12c-19 15 -32 34 -48 34c-15 0 -18 -11 -18 -43h-26z" />
    <glyph glyph-name="Aumlaut" horiz-adv-x="224" 
d="M33 656c-13 0 -20 9 -20 28s7 28 20 28s20 -9 20 -29c0 -17 -7 -27 -20 -27zM187 656c-13 0 -21 9 -21 28s8 28 21 28s19 -9 19 -29c0 -17 -6 -27 -19 -27zM161 140h-100l-14 -140h-33l79 708h33l84 -708h-34zM65 170h92l-40 364l-7 146l-8 -146z" />
    <glyph glyph-name="Oumlaut" horiz-adv-x="268" 
d="M40 698c-11 0 -16 6 -16 18s6 18 17 18s15 -6 15 -18s-5 -18 -16 -18zM230 698c-11 0 -17 6 -17 18s6 18 17 18s15 -6 15 -18s-4 -18 -15 -18zM134 -6c-58 0 -94 35 -94 101v518c0 63 35 101 94 101c60 0 94 -38 94 -101v-518c0 -66 -35 -101 -94 -101zM134 25
c43 0 61 28 61 72v516c0 43 -18 72 -61 72c-42 0 -61 -29 -61 -72v-516c0 -43 19 -72 61 -72z" />
    <glyph glyph-name="Uumlaut" horiz-adv-x="265" 
d="M110 635c-9 0 -13 8 -13 37s4 38 13 38c11 0 13 -10 13 -39c0 -27 -5 -36 -13 -36zM157 635c-9 0 -14 8 -14 37c0 28 6 38 14 38c9 0 13 -8 13 -39c0 -27 -4 -36 -13 -36zM133 -6c-60 0 -91 33 -91 100v614h33v-612c0 -47 19 -71 58 -71s57 24 57 71v612h33v-614
c0 -67 -30 -100 -90 -100z" />
    <glyph glyph-name="cordinal" horiz-adv-x="197" 
d="M100 300c-44 0 -67 26 -67 68v278c0 43 25 68 67 68c43 0 66 -24 66 -67v-87h-30v86c0 25 -11 42 -36 42c-24 0 -37 -14 -37 -42v-277c0 -23 12 -40 37 -40c24 0 36 16 36 41v106h30v-107c0 -43 -23 -69 -66 -69z" />
    <glyph glyph-name="caronSlovak" 
d="M125 737h29l-31 -113h-22z" />
    <glyph glyph-name="altcedilla" 
d="M122 -137c-44 0 -67 19 -71 61h29c3 -27 18 -36 42 -36c27 0 44 8 44 33c0 23 -14 30 -45 30h-12v24h16c44 0 70 -15 70 -53c0 -40 -31 -59 -73 -59z" />
    <glyph glyph-name="doublegrave" horiz-adv-x="247" 
d="M39 728h35l50 -104h-24zM110 728h35l43 -104h-24z" />
    <glyph glyph-name="invertedbreve" 
d="M121 715c54 0 76 -29 77 -91h-27c-1 47 -13 65 -49 66c-38 0 -47 -19 -48 -66h-28c3 62 24 91 75 91z" />
    <glyph glyph-name="onethirdemdash" horiz-adv-x="222" 
d="M195 274h-167v32h167v-32z" />
    <glyph glyph-name="threequarteremdash" horiz-adv-x="296" 
d="M268 274h-240v32h240v-32z" />
    <glyph glyph-name="onethirdemdash.cap" horiz-adv-x="231" 
d="M205 332h-177v32h177v-32z" />
    <glyph glyph-name="threequarteremdash.cap" horiz-adv-x="262" 
d="M235 332h-207v32h207v-32z" />
    <glyph glyph-name="onesixteenth" horiz-adv-x="449" 
d="M173 399l97 321l30 -8l-116 -316zM29 370v25h36v262c-4 -13 -15 -20 -32 -21v27c27 1 32 13 35 46h22v-314h36v-25h-97zM425 51c0 -36 -17 -55 -55 -55c-36 0 -54 19 -54 55v237c0 34 17 54 53 54c39 0 54 -20 54 -54v-69h-25v69c0 21 -9 31 -29 31
c-19 0 -28 -10 -28 -31v-125c7 17 19 29 40 29c32 0 44 -21 44 -53v-88zM193 0v25h35v262c-4 -13 -15 -20 -32 -20v26c28 1 32 13 35 46h23v-314h35v-25h-96zM158 322l-98 -333l-32 9l119 327zM370 20c20 0 29 11 29 31v84c0 24 -9 35 -28 35c-17 0 -27 -13 -30 -32v-87
c0 -20 10 -31 29 -31z" />
    <glyph glyph-name="threesixteenths" horiz-adv-x="449" 
d="M173 399l97 321l30 -8l-116 -316zM82 367c-36 0 -55 18 -55 53v77h26v-76c0 -20 10 -30 29 -30s28 10 28 30v73c0 31 -9 38 -36 38h-11v26h10c24 0 35 8 35 41v61c0 20 -9 29 -26 29c-19 0 -28 -9 -28 -29v-66h-25v65c0 34 20 54 53 54c35 0 51 -20 51 -54v-59
c0 -33 -6 -47 -26 -54c20 -4 29 -21 29 -50v-76c0 -35 -18 -53 -54 -53zM425 51c0 -36 -17 -55 -55 -55c-36 0 -54 19 -54 55v237c0 34 17 54 53 54c39 0 54 -20 54 -54v-69h-25v69c0 21 -9 31 -29 31c-19 0 -28 -10 -28 -31v-125c7 17 19 29 40 29c32 0 44 -21 44 -53v-88z
M193 0v25h35v262c-4 -13 -15 -20 -32 -20v26c28 1 32 13 35 46h23v-314h35v-25h-96zM158 322l-98 -333l-32 9l119 327zM370 20c20 0 29 11 29 31v84c0 24 -9 35 -28 35c-17 0 -27 -13 -30 -32v-87c0 -20 10 -31 29 -31z" />
    <glyph glyph-name="fivesixteenths" horiz-adv-x="449" 
d="M173 399l97 321l30 -8l-116 -316zM84 367c-36 0 -54 18 -54 53v63h25v-62c0 -20 10 -30 29 -30s28 10 28 30v125c0 24 -11 33 -26 33s-25 -10 -30 -31l-4 -18l-22 4l13 175h88v-2c0 -19 -2 -23 -21 -23h-45c-1 -28 -5 -78 -8 -112c7 21 20 31 39 31c28 0 41 -17 41 -53
v-130c0 -35 -17 -53 -53 -53zM425 51c0 -36 -17 -55 -55 -55c-36 0 -54 19 -54 55v237c0 34 17 54 53 54c39 0 54 -20 54 -54v-69h-25v69c0 21 -9 31 -29 31c-19 0 -28 -10 -28 -31v-125c7 17 19 29 40 29c32 0 44 -21 44 -53v-88zM193 0v25h35v262c-4 -13 -15 -20 -32 -20
v26c28 1 32 13 35 46h23v-314h35v-25h-96zM158 322l-98 -333l-32 9l119 327zM370 20c20 0 29 11 29 31v84c0 24 -9 35 -28 35c-17 0 -27 -13 -30 -32v-87c0 -20 10 -31 29 -31z" />
    <glyph glyph-name="sevensixteenths" horiz-adv-x="449" 
d="M173 399l97 321l30 -8l-116 -316zM66 370c9 109 31 213 56 313h-69v26h95v-18c-29 -106 -49 -214 -56 -321h-26zM425 51c0 -36 -17 -55 -55 -55c-36 0 -54 19 -54 55v237c0 34 17 54 53 54c39 0 54 -20 54 -54v-69h-25v69c0 21 -9 31 -29 31c-19 0 -28 -10 -28 -31v-125
c7 17 19 29 40 29c32 0 44 -21 44 -53v-88zM193 0v25h35v262c-4 -13 -15 -20 -32 -20v26c28 1 32 13 35 46h23v-314h35v-25h-96zM158 322l-98 -333l-32 9l119 327zM370 20c20 0 29 11 29 31v84c0 24 -9 35 -28 35c-17 0 -27 -13 -30 -32v-87c0 -20 10 -31 29 -31z" />
    <glyph glyph-name="ninesixteenths" horiz-adv-x="449" 
d="M173 399l97 321l30 -8l-116 -316zM84 367c-39 0 -53 22 -53 55v69h25v-69c0 -21 7 -31 28 -31c19 0 28 11 28 31v124c-5 -17 -18 -28 -39 -28c-31 0 -45 21 -45 54v85c0 35 17 56 55 56c39 0 54 -21 54 -56v-236c0 -33 -17 -54 -53 -54zM83 541c19 0 26 14 29 31v85
c0 23 -9 33 -29 33c-19 0 -29 -10 -29 -33v-80c0 -24 10 -36 29 -36zM425 51c0 -36 -17 -55 -55 -55c-36 0 -54 19 -54 55v237c0 34 17 54 53 54c39 0 54 -20 54 -54v-69h-25v69c0 21 -9 31 -29 31c-19 0 -28 -10 -28 -31v-125c7 17 19 29 40 29c32 0 44 -21 44 -53v-88z
M193 0v25h35v262c-4 -13 -15 -20 -32 -20v26c28 1 32 13 35 46h23v-314h35v-25h-96zM158 322l-98 -333l-32 9l119 327zM370 20c20 0 29 11 29 31v84c0 24 -9 35 -28 35c-17 0 -27 -13 -30 -32v-87c0 -20 10 -31 29 -31z" />
    <glyph glyph-name="elevensixteenths" horiz-adv-x="570" 
d="M295 399l97 321l30 -8l-116 -316zM152 370v25h36v263c-4 -13 -15 -20 -32 -21v27c27 0 32 13 35 46h22v-315h36v-25h-97zM31 370v25h36v264c-4 -15 -14 -22 -33 -23v27c28 1 33 13 36 46h22v-314h36v-25h-97zM547 51c0 -36 -17 -55 -55 -55c-36 0 -54 19 -54 55v237
c0 34 17 54 53 54c39 0 54 -20 54 -54v-69h-25v69c0 21 -9 31 -29 31c-19 0 -28 -10 -28 -31v-125c7 17 19 29 40 29c32 0 44 -21 44 -53v-88zM314 0v25h35v262c-4 -13 -15 -20 -32 -20v26c28 1 32 13 35 46h23v-314h35v-25h-96zM280 322l-98 -333l-32 9l119 327zM492 20
c20 0 29 11 29 31v84c0 24 -9 35 -28 35c-17 0 -27 -13 -30 -32v-87c0 -20 10 -31 29 -31z" />
    <glyph glyph-name="thirteensixteenths" horiz-adv-x="576" 
d="M302 399l97 321l30 -8l-116 -316zM208 367c-36 0 -55 18 -55 53v77h26v-76c0 -20 10 -30 29 -30s28 10 28 30v73c0 31 -9 38 -36 38h-11v26h10c24 0 35 8 35 41v61c0 20 -9 29 -26 29c-19 0 -28 -9 -28 -29v-66h-25v65c0 34 20 54 53 54c35 0 51 -20 51 -54v-59
c0 -33 -6 -47 -26 -54c20 -4 29 -21 29 -50v-76c0 -35 -18 -53 -54 -53zM31 370v25h36v264c-4 -15 -14 -22 -33 -23v27c28 1 33 13 36 46h22v-314h36v-25h-97zM553 51c0 -36 -17 -55 -55 -55c-36 0 -54 19 -54 55v237c0 34 17 54 53 54c39 0 54 -20 54 -54v-69h-25v69
c0 21 -9 31 -29 31c-19 0 -28 -10 -28 -31v-125c7 17 19 29 40 29c32 0 44 -21 44 -53v-88zM321 0v25h35v262c-4 -13 -15 -20 -32 -20v26c28 1 32 13 35 46h23v-314h35v-25h-96zM287 322l-98 -333l-32 9l119 327zM498 20c20 0 29 11 29 31v84c0 24 -9 35 -28 35
c-17 0 -27 -13 -30 -32v-87c0 -20 10 -31 29 -31z" />
    <glyph glyph-name="fifteensixteenths" horiz-adv-x="576" 
d="M302 399l97 321l30 -8l-116 -316zM31 370v25h36v264c-4 -15 -14 -22 -33 -23v27c28 1 33 13 36 46h22v-314h36v-25h-97zM206 367c-36 0 -54 18 -54 53v63h25v-62c0 -20 10 -30 29 -30s28 10 28 30v125c0 24 -11 33 -26 33s-25 -10 -30 -31l-4 -18l-22 4l13 175h88v-2
c0 -19 -2 -23 -21 -23h-45c-1 -28 -5 -78 -8 -112c7 21 20 31 39 31c28 0 41 -17 41 -53v-130c0 -35 -17 -53 -53 -53zM553 51c0 -36 -17 -55 -55 -55c-36 0 -54 19 -54 55v237c0 34 17 54 53 54c39 0 54 -20 54 -54v-69h-25v69c0 21 -9 31 -29 31c-19 0 -28 -10 -28 -31
v-125c7 17 19 29 40 29c32 0 44 -21 44 -53v-88zM321 0v25h35v262c-4 -13 -15 -20 -32 -20v26c28 1 32 13 35 46h23v-314h35v-25h-96zM287 322l-98 -333l-32 9l119 327zM498 20c20 0 29 11 29 31v84c0 24 -9 35 -28 35c-17 0 -27 -13 -30 -32v-87c0 -20 10 -31 29 -31z" />
    <glyph glyph-name="mediumblackcircle" horiz-adv-x="760" 
d="M380 -10c-56 0 -106 13 -150 38c-88 52 -142 143 -142 254c0 56 12 106 39 150c52 88 143 142 253 142c55 0 105 -13 149 -38c88 -51 144 -140 144 -254c0 -56 -12 -106 -39 -150c-51 -88 -143 -142 -254 -142z" />
    <glyph glyph-name="ballotboxwithx" horiz-adv-x="761" 
d="M99 563h563v-563h-563v563zM162 60h438v443h-438v-443zM384 244l-105 -107l-34 36l104 106l-104 104l35 35l103 -104l103 105l34 -37l-101 -103l103 -104l-34 -35z" />
    <glyph glyph-name="ttfautohint" horiz-adv-x="240" 
 />
    </font>
</defs>
</svg>
