<?xml version="1.0" encoding="utf-8"?>
<!-- Generator: Adobe Illustrator 21.1.0, SVG Export Plug-In . SVG Version: 6.00 Build 0)  -->
<svg version="1.1" id="Calque_1" xmlns="http://www.w3.org/2000/svg" xmlns:xlink="http://www.w3.org/1999/xlink" x="0px" y="0px"
	 viewBox="0 0 17.6 23.4" style="enable-background:new 0 0 17.6 23.4;" xml:space="preserve">
<style type="text/css">
	.st0{fill:#F7E0DF;}
</style>
<path class="st0" d="M3.8,10.4c-0.9,0.2-1.8,0.3-2.6,0.5c-2.8,0.9,0.3,2.1,1.5,2.6c1.1,0.5,2.6,0.7,3.5,1.6c0.6,0.7,0.6,1.7,0.7,2.7
	C7,19.4,7.4,21,8.1,22.5c0.2,0.4,0.4,0.8,0.9,0.9c0.4,0.1,0.8-0.1,1-0.5s0.3-0.7,0.4-1.1c0.3-1.2,0.6-2.3,0.8-3.5
	c0.2-0.8,0.2-2.1,0.8-2.7c1-1.1,3.5-1.5,4.8-2c0.2-0.1,0.5-0.2,0.6-0.4c0.2-0.3,0.1-0.7-0.1-1c-0.2-0.3-0.6-0.4-0.9-0.6
	c-0.7-0.3-1.5-0.7-2.3-0.9c-0.8-0.2-1.6,0-2.3-0.7c-1.3-1.2-1-2.4-1.1-3.9c-0.2-1.4-0.4-2.8-0.7-4.2C10,1.3,9.8,0.7,9.5,0.2
	C9.4,0.1,9.3,0,9.2,0C8.9-0.1,8.6,0.3,8.5,0.6C8,2.4,7.6,4.1,7.2,5.8c-0.2,1.1,0,2.7-0.9,3.5C5.6,9.9,4.7,10.2,3.8,10.4z"/>
</svg>
