<svg xmlns="http://www.w3.org/2000/svg" viewBox="0 0 17.6 23.4">
  <path d="M3.8 10.4c-.9.2-1.8.3-2.6.5-2.8.9.3 2.1 1.5 2.6 1.1.5 2.6.7 3.5 1.6.6.7.6 1.7.7 2.7.1 1.6.5 3.2 1.2 4.7.2.4.4.8.9.9.4.1.8-.1 1-.5s.3-.7.4-1.1c.3-1.2.6-2.3.8-3.5.2-.8.2-2.1.8-2.7 1-1.1 3.5-1.5 4.8-2 .2-.1.5-.2.6-.4.2-.3.1-.7-.1-1-.2-.3-.6-.4-.9-.6-.7-.3-1.5-.7-2.3-.9-.8-.2-1.6 0-2.3-.7-1.3-1.2-1-2.4-1.1-3.9-.2-1.4-.4-2.8-.7-4.2 0-.6-.2-1.2-.5-1.7-.1-.1-.2-.2-.3-.2-.3-.1-.6.3-.7.6-.5 1.8-.9 3.5-1.3 5.2-.2 1.1 0 2.7-.9 3.5-.7.6-1.6.9-2.5 1.1z" fill="#f7e0df"/>
</svg>
