<?xml version="1.0" encoding="UTF-8"?>
<svg width="113px" height="114px" viewBox="0 0 113 114" version="1.1" xmlns="http://www.w3.org/2000/svg" xmlns:xlink="http://www.w3.org/1999/xlink">
    <!-- Generator: Sketch 45.2 (43514) - http://www.bohemiancoding.com/sketch -->
    <title>Alembic</title>
    <desc>Created with Sketch.</desc>
    <defs></defs>
    <g id="Recherches" stroke="none" stroke-width="1" fill="none" fill-rule="evenodd">
        <g id="the_good_place-copy-5" transform="translate(-393.000000, -519.000000)">
            <g id="Alembic" transform="translate(392.218416, 519.218416)">
                <path d="M54.3987474,0.533635542 C28.9106014,1.28882795 8.48114699,22.1782883 8.48114699,47.8364474 C8.48114699,73.9724022 29.6785434,95.1604031 55.8278001,95.1604031 C81.9762901,95.1604031 103.17522,73.9724022 103.17522,47.8364474 C103.17522,34.9286288 98.0045966,23.2276639 89.6207517,14.6898313 L106.565009,14.6898313 C110.176747,14.6898313 113.131457,11.7365382 113.131457,8.12653195 L113.131457,6.87670809 C113.131457,3.26670185 110.176747,0.312642397 106.565009,0.312642397 L56.0857814,0.312642397 C55.5031217,0.312642397 54.9375614,0.389523003 54.3987474,0.533635542 Z" id="Combined-Shape" fill="#B7D3D7"></path>
                <path d="M55.8276468,87.7454457 C77.8798697,87.7454457 95.7560928,69.8777922 95.7560928,47.8361409 L15.8992008,47.8361409 C15.8992008,69.8777922 33.7761905,87.7454457 55.8276468,87.7454457" id="Fill-20" fill="#034E6D"></path>
                <path d="M111.165739,66.6581356 L111.165739,66.6581356 C111.165739,64.0220878 109.008356,61.8657393 106.371044,61.8657393 L5.68398612,61.8657393 C3.04744063,61.8657393 0.890057955,64.0220878 0.890057955,66.6581356 L0.890057955,66.6581356 C0.890057955,69.2934172 3.04744063,71.4497657 5.68398612,71.4497657 L11.5673389,71.4497657 L1.0794231,107.495421 C0.343429012,110.026487 1.81311721,112.699317 4.34463021,113.435725 C6.87690988,114.171366 9.55102174,112.703148 10.2877825,110.172083 L21.553092,71.4497657 L90.5019383,71.4497657 L101.767248,110.172083 C102.504009,112.703148 105.17812,114.171366 107.7104,113.435725 C110.24268,112.699317 111.712368,110.026487 110.975607,107.495421 L100.488458,71.4497657 L106.371044,71.4497657 C109.008356,71.4497657 111.165739,69.2934172 111.165739,66.6581356" id="Fill-24" fill="#000000"></path>
            </g>
        </g>
    </g>
</svg>