<?xml version="1.0" encoding="UTF-8"?>
<svg width="222px" height="161px" viewBox="0 0 222 161" version="1.1" xmlns="http://www.w3.org/2000/svg" xmlns:xlink="http://www.w3.org/1999/xlink">
    <!-- Generator: Sketch 45.2 (43514) - http://www.bohemiancoding.com/sketch -->
    <title>camping_car</title>
    <desc>Created with Sketch.</desc>
    <defs>
        <polygon id="path-1" points="219.571339 87.524355 219.571339 0.232976242 0.160090088 0.232976242 0.160090088 87.524355 219.571339 87.524355"></polygon>
        <polygon id="path-3" points="0 160.794927 221.012727 160.794927 221.012727 -5.68434189e-14 0 -5.68434189e-14"></polygon>
    </defs>
    <g id="Recherches" stroke="none" stroke-width="1" fill="none" fill-rule="evenodd">
        <g id="the_good_place-copy-5" transform="translate(-954.000000, -334.000000)">
            <g id="camping_car" transform="translate(954.052700, 333.985943)">
                <path d="M21.9412787,146.941512 C21.9412787,139.290628 28.1435684,133.088339 35.7944525,133.088339 C43.4453365,133.088339 49.6476263,139.290628 49.6476263,146.941512 C49.6476263,154.592397 43.4453365,160.794686 35.7944525,160.794686 C28.1435684,160.794686 21.9412787,154.592397 21.9412787,146.941512 Z" id="Fill-1" fill="#000000"></path>
                <path d="M215.247177,52.835879 L43.1388015,52.835879 C39.7102214,52.835879 36.4646976,54.1898222 34.0595026,56.5339985 L220.620669,56.5339985 C219.784184,54.377683 217.689848,52.835879 215.247177,52.835879" id="Fill-3" fill="#F7C046"></path>
                <path d="M220.620477,56.5338543 L34.0593104,56.5338543 C33.4193344,57.1570141 32.836053,57.8464777 32.3286846,58.6036866 L31.6272095,59.6501338 L221.012535,59.6501338 L221.012535,58.6012843 C221.012535,57.8729032 220.870318,57.1771936 220.620477,56.5338543" id="Fill-5" fill="#F73E39"></path>
                <path d="M30.6693595,146.941512 C30.6693595,144.111108 32.9640482,141.81642 35.7944525,141.81642 C38.6248568,141.81642 40.9195454,144.111108 40.9195454,146.941512 C40.9195454,149.771917 38.6248568,152.066605 35.7944525,152.066605 C32.9640482,152.066605 30.6693595,149.771917 30.6693595,146.941512" id="Fill-7" fill="#FFFFFF"></path>
                <path d="M125.165609,146.941512 C125.165609,139.290628 131.367899,133.088339 139.018783,133.088339 C146.669667,133.088339 152.871957,139.290628 152.871957,146.941512 C152.871957,154.592397 146.669667,160.794686 139.018783,160.794686 C131.367899,160.794686 125.165609,154.592397 125.165609,146.941512" id="Fill-9" fill="#000000"></path>
                <path d="M133.893738,146.941512 C133.893738,144.111108 136.188427,141.81642 139.018831,141.81642 C141.849235,141.81642 144.143924,144.111108 144.143924,146.941512 C144.143924,149.771917 141.849235,152.066605 139.018831,152.066605 C136.188427,152.066605 133.893738,149.771917 133.893738,146.941512" id="Fill-11" fill="#FFFFFF"></path>
                <g id="Group-15" transform="translate(1.441387, 59.417350)">
                    <mask id="mask-2" fill="white">
                        <use xlink:href="#path-1"></use>
                    </mask>
                    <g id="Clip-14"></g>
                    <path d="M30.1856299,0.232976242 L3.90000979,39.4454386 C1.46214333,43.0830198 0.160090088,47.3624988 0.160090088,51.7414336 L0.160090088,81.7588056 C0.160090088,84.9298577 2.75458731,87.524355 5.92563948,87.524355 L16.9714712,87.524355 C16.9714712,77.94009 24.7688963,70.1426649 34.3531612,70.1426649 C43.9374262,70.1426649 51.7348512,77.94009 51.7348512,87.524355 L69.9876197,87.524355 L120.030667,87.524355 C120.030667,77.94009 127.828092,70.1426649 137.412357,70.1426649 C146.996622,70.1426649 154.794047,77.94009 154.794047,87.524355 L213.805886,87.524355 C216.976458,87.524355 219.571435,84.9298577 219.571435,81.7588056 L219.571435,0.232976242 L30.1856299,0.232976242 Z" id="Fill-13" fill="#F7C046" mask="url(#mask-2)"></path>
                </g>
                <mask id="mask-4" fill="white">
                    <use xlink:href="#path-3"></use>
                </mask>
                <g id="Clip-17"></g>
                <polygon id="Fill-16" fill="#E5AC3C" mask="url(#mask-4)" points="1.9218498 114.032958 221.012727 114.032958 221.012727 109.386886 1.9218498 109.386886"></polygon>
                <polygon id="Fill-18" fill="#F73E39" mask="url(#mask-4)" points="1.9218498 125.482378 221.012727 125.482378 221.012727 113.899389 1.9218498 113.899389"></polygon>
                <path d="M4.34996288,122.458107 L1.59595212,122.458107 C0.718147223,122.458107 -0.000144138735,121.739816 -0.000144138735,120.862011 L-0.000144138735,118.10848 C-0.000144138735,117.230676 0.718147223,116.512384 1.59643258,116.512384 L4.34996288,116.512384 C5.22728731,116.512384 5.94557867,117.230676 5.94557867,118.10848 L5.94557867,120.862011 C5.94557867,121.739816 5.22728731,122.458107 4.34996288,122.458107" id="Fill-19" fill="#FFFFFF" mask="url(#mask-4)"></path>
                <path d="M4.34996288,129.48487 L1.59595212,129.48487 C0.718147223,129.48487 -0.000144138735,128.766579 -0.000144138735,127.888774 L-0.000144138735,125.135244 C-0.000144138735,124.257439 0.718147223,123.539148 1.59643258,123.539148 L4.34996288,123.539148 C5.22728731,123.539148 5.94557867,124.257439 5.94557867,125.135244 L5.94557867,127.888774 C5.94557867,128.766579 5.22728731,129.48487 4.34996288,129.48487" id="Fill-20" fill="#FFFFFF" mask="url(#mask-4)"></path>
                <path d="M39.5499392,67.8730564 L24.1030714,88.9884201 C23.136381,90.3096919 24.0800092,92.1690815 25.7169448,92.1690815 L41.2613464,92.1690815 C43.0626001,92.1690815 44.523206,90.7084757 44.523206,88.907222 L44.523206,69.1626176 C44.523206,67.7654328 43.3902755,66.6329828 41.9935712,66.6329828 C41.0278417,66.6329828 40.1202481,67.0932659 39.5499392,67.8730564" id="Fill-21" fill="#FFFFFF" mask="url(#mask-4)"></path>
                <path d="M176.645959,92.1690335 L169.051289,92.1690335 C167.1919,92.1690335 165.684689,90.6613423 165.684689,88.8019527 L165.684689,70.0000156 C165.684689,68.140626 167.1919,66.6329348 169.051289,66.6329348 L176.645959,66.6329348 C178.505829,66.6329348 180.013521,68.140626 180.013521,70.0000156 L180.013521,88.8019527 C180.013521,90.6613423 178.505829,92.1690335 176.645959,92.1690335" id="Fill-22" fill="#FFFFFF" mask="url(#mask-4)"></path>
                <path d="M85.808047,66.6329828 L73.3040118,66.6329828 C71.9313305,66.6329828 70.81906,67.7452534 70.81906,69.1179346 L70.81906,92.1686011 L85.808047,92.1686011 C87.6674367,92.1686011 89.1756083,90.6613904 89.1756083,88.8015202 L89.1756083,70.0000637 C89.1756083,68.140674 87.6674367,66.6329828 85.808047,66.6329828" id="Fill-23" fill="#FFFFFF" mask="url(#mask-4)"></path>
                <path d="M66.0997176,66.6329828 L53.7100324,66.6329828 C51.8506427,66.6329828 50.3424711,68.140674 50.3424711,70.0000637 L50.3424711,88.8020007 C50.3424711,90.6613904 51.8506427,92.1686011 53.7100324,92.1686011 L68.6990194,92.1686011 L68.6990194,69.2322847 C68.6990194,67.7966629 67.5353394,66.6329828 66.0997176,66.6329828" id="Fill-24" fill="#FFFFFF" mask="url(#mask-4)"></path>
                <path d="M134.334754,66.6329828 L121.830719,66.6329828 C120.458038,66.6329828 119.345767,67.7452534 119.345767,69.1179346 L119.345767,92.1686011 L134.334754,92.1686011 C136.194144,92.1686011 137.702316,90.6613904 137.702316,88.8015202 L137.702316,70.0000637 C137.702316,68.140674 136.194144,66.6329828 134.334754,66.6329828" id="Fill-25" fill="#FFFFFF" mask="url(#mask-4)"></path>
                <path d="M114.626425,66.6329828 L102.23674,66.6329828 C100.37735,66.6329828 98.8691785,68.140674 98.8691785,70.0000637 L98.8691785,88.8020007 C98.8691785,90.6613904 100.37735,92.1686011 102.23674,92.1686011 L117.225727,92.1686011 L117.225727,69.2322847 C117.225727,67.7966629 116.062047,66.6329828 114.626425,66.6329828" id="Fill-26" fill="#FFFFFF" mask="url(#mask-4)"></path>
                <path d="M55.5525098,73.2526984 L50.9198908,73.2526984 C48.9312568,73.2526984 47.30345,74.8800247 47.30345,76.8691392 L47.30345,87.1308562 C47.30345,89.1199708 48.9312568,90.7472971 50.9198908,90.7472971 L51.4142867,90.7472971 C49.331482,93.779976 45.8731133,95.7541963 41.8487598,95.8555738 C39.9965771,95.9026592 39.9893701,98.7854338 41.8487598,98.7383485 C47.5383961,98.5946903 52.33197,95.4298841 54.7357236,90.7472971 L55.5525098,90.7472971 C57.5416243,90.7472971 59.1684702,89.1199708 59.1684702,87.1308562 L59.1684702,76.8691392 C59.1684702,74.8800247 57.5416243,73.2526984 55.5525098,73.2526984" id="Fill-27" fill="#000000" mask="url(#mask-4)"></path>
                <path d="M213.100087,72.1929904 L213.100087,70.0001598 C213.100087,68.1402896 211.592396,66.6330789 209.733006,66.6330789 L187.253609,66.6330789 C185.39422,66.6330789 183.886528,68.1402896 183.886528,70.0001598 L183.886528,72.1929904 L213.100087,72.1929904 Z" id="Fill-28" fill="#FFFFFF" mask="url(#mask-4)"></path>
                <path d="M183.886673,74.3126466 L183.886673,88.8019527 C183.886673,90.6613423 185.394364,92.1690335 187.253753,92.1690335 L209.73315,92.1690335 C211.59254,92.1690335 213.100231,90.6613423 213.100231,88.8019527 L213.100231,74.3126466 L183.886673,74.3126466 Z" id="Fill-29" fill="#FFFFFF" mask="url(#mask-4)"></path>
                <path d="M84.2409226,52.835879 L54.4522508,52.835879 L54.4522508,44.6031549 C54.4522508,43.3342536 55.4809209,42.3055835 56.7493417,42.3055835 L81.9438317,42.3055835 C83.2122525,42.3055835 84.2409226,43.3342536 84.2409226,44.6031549 L84.2409226,52.835879 Z" id="Fill-30" fill="#F7E0DF" mask="url(#mask-4)"></path>
                <path d="M156.51439,52.835879 L149.229619,52.835879 L149.229619,44.6031549 C149.229619,43.3342536 150.258289,42.3055835 151.52671,42.3055835 L154.21778,42.3055835 C155.486201,42.3055835 156.51439,43.3342536 156.51439,44.6031549 L156.51439,52.835879 Z" id="Fill-31" fill="#F7E0DF" mask="url(#mask-4)"></path>
                <path d="M219.571339,43.0016294 L164.79862,43.0016294 C164.005857,43.0016294 163.357233,42.3530051 163.357233,41.5602421 C163.357233,40.7674791 164.005857,40.1188547 164.79862,40.1188547 L219.571339,40.1188547 C220.364102,40.1188547 221.012727,40.7674791 221.012727,41.5602421 C221.012727,42.3530051 220.364102,43.0016294 219.571339,43.0016294" id="Fill-32" fill="#F7E0DF" mask="url(#mask-4)"></path>
                <polygon id="Fill-33" fill="#F7E0DF" mask="url(#mask-4)" points="170.884638 52.8359751 172.848768 52.8359751 172.848768 42.3056796 170.884638 42.3056796"></polygon>
                <polygon id="Fill-34" fill="#F7E0DF" mask="url(#mask-4)" points="191.202914 52.8359751 193.167045 52.8359751 193.167045 42.3056796 191.202914 42.3056796"></polygon>
                <polygon id="Fill-35" fill="#F7E0DF" mask="url(#mask-4)" points="213.099991 52.8359751 215.064602 52.8359751 215.064602 42.3056796 213.099991 42.3056796"></polygon>
                <path d="M165.822438,0.000240231225 C161.133124,0.000240231225 156.936765,2.09986113 154.114048,5.40736464 C152.624134,4.13558053 150.695558,3.36347738 148.582964,3.36347738 C143.872991,3.36347738 140.054756,7.18171246 140.054756,11.8916859 C140.054756,15.236185 141.985254,18.1232838 144.787792,19.5204686 C142.756396,21.5244775 141.496143,24.3077965 141.496143,27.3865998 C141.496143,33.4899143 146.443465,38.4372362 152.54678,38.4372362 C157.551757,38.4372362 161.777424,35.1090728 163.136652,30.5456404 C164.009653,30.6993884 164.905715,30.7839498 165.822438,30.7839498 C174.32326,30.7839498 181.214533,23.8926769 181.214533,15.3918548 C181.214533,6.89151314 174.32326,0.000240231225 165.822438,0.000240231225" id="Fill-36" fill="#B7D3D7" mask="url(#mask-4)"></path>
            </g>
        </g>
    </g>
</svg>