<?xml version="1.0" encoding="UTF-8"?>
<svg width="99px" height="137px" viewBox="0 0 99 137" version="1.1" xmlns="http://www.w3.org/2000/svg" xmlns:xlink="http://www.w3.org/1999/xlink">
    <!-- Generator: Sketch 45.2 (43514) - http://www.bohemiancoding.com/sketch -->
    <title>Money_bag</title>
    <desc>Created with Sketch.</desc>
    <defs></defs>
    <g id="Recherches" stroke="none" stroke-width="1" fill="none" fill-rule="evenodd">
        <g id="the_good_place-copy-5" transform="translate(-191.000000, -324.000000)">
            <g id="Money_bag" transform="translate(191.118257, 323.438766)">
                <path d="M35.8880685,30.8400741 C36.1885994,30.5657413 36.7520949,30.2569252 37.5486551,29.9473428 C36.4247308,29.0147643 35.4173389,28.0009586 34.5188128,26.9266159 C32.6450945,27.9825676 31.6898355,29.2844994 31.6844689,30.8224494 C31.6821689,31.4285872 31.8278344,31.9987091 32.1176321,32.5335816 C33.4623546,31.9519653 34.8086105,31.45694 36.1479664,31.0439081 C36.0483005,30.9741754 35.9593679,30.9059753 35.8880685,30.8400741" id="Fill-1" fill="#000000"></path>
                <path d="M66.4826528,30.7259731 C66.6083851,30.8094991 66.7195509,30.8922587 66.8038835,30.9704206 C66.5033526,31.2455198 65.9406238,31.5535695 65.1448302,31.8631519 C66.9909487,32.470056 68.1746725,32.9781082 68.4736701,33.1114432 C68.9121999,33.3076142 69.3438298,33.5099155 69.770093,33.7183472 C70.5873531,32.912207 71.0028831,32.0018509 71.0074831,30.9888116 C71.0120831,29.7872642 70.4393877,28.7251821 69.3008968,27.8063969 C68.4575702,28.8523868 67.5207111,29.8332418 66.4826528,30.7259731" id="Fill-3" fill="#000000"></path>
                <path d="M38.310869,36.2677273 C41.8083743,37.255479 46.4282705,37.8110414 51.3164979,37.8324976 C52.7608863,37.8378617 54.1815082,37.7972481 55.5568972,37.7121896 C58.8389708,37.509122 61.8642132,37.0531777 64.3343934,36.3780735 C66.8628397,35.6868773 68.6759918,34.7972111 69.7700164,33.7182706 C69.3445198,33.5098389 68.9121233,33.3075376 68.4735934,33.1113665 C68.1745958,32.9787979 66.990872,32.4699793 65.1447535,31.8630753 C62.6584735,32.8293707 57.856112,33.805628 51.3333644,33.7772752 C43.2228629,33.742792 37.7788066,32.1795543 36.1481197,31.0439081 C34.8087638,31.45694 33.4625079,31.9519653 32.1177854,32.5335816 C32.9603453,34.0899227 35.031862,35.3420454 38.310869,36.2677273" id="Fill-5" fill="#000000"></path>
                <g id="Group-9" transform="translate(0.000000, 0.005364)" fill="#F7C046">
                    <path d="M98.3125572,85.5239675 C98.7840534,93.7485901 99.5422806,106.951818 91.4647455,118.063833 C76.3875999,138.807384 35.3099298,145.6772 12.7540109,123.305277 C-11.1849635,99.5609224 3.6023844,60.5964568 16.3856817,44.8207831 C22.1540354,37.7026876 28.2144868,34.4421109 29.7286413,33.6589595 C30.5229015,33.2474602 31.3202285,32.8742755 32.1175554,32.5286774 C32.9601153,34.0842521 35.031632,35.3363749 38.310639,36.2620568 C41.8089109,37.2498084 46.4280405,37.8061371 51.3162679,37.8260608 C52.7606563,37.8321911 54.1812782,37.7915776 55.5566672,37.7065191 C58.8395075,37.5034514 61.8639832,37.0475071 64.33493,36.372403 C66.8633764,35.681973 68.6772951,34.7915405 69.770553,33.7126 C95.338681,46.1878498 97.9874931,79.8533994 98.3125572,85.5239675 Z M34.5187361,26.9213285 C30.8410657,22.5212741 28.7258493,16.884423 28.0772545,11.2199852 C27.7974234,8.78240725 27.5451921,5.73102859 28.3379191,3.37621025 C29.7738742,-0.885911318 32.4449194,3.54785988 34.7686675,4.40151027 C36.8003178,5.14787963 38.5575037,4.27583822 40.1889573,3.03061212 C42.33484,1.39304401 44.4607896,-0.512726635 46.8757702,1.91718841 C48.8131213,3.86510518 50.6477399,6.80767023 53.5679498,4.55553516 C56.3003279,2.44746316 59.183738,-1.14185317 61.3280875,3.82525794 C65.1897565,12.7724948 69.6156876,-0.00544068018 74.420349,3.87889845 C76.8537295,5.84750513 75.5580732,12.9303512 75.0643439,15.2353605 C74.095285,19.7595542 72.2177334,24.1825973 69.3013568,27.8010328 C68.4580302,28.8470227 67.5204044,29.8278777 66.4823461,30.7206091 C66.0315497,31.107587 65.5692534,31.4846032 65.080124,31.8363317 C65.1031238,31.8432283 65.1222904,31.8501249 65.1445235,31.8577879 C62.6590101,32.8240833 57.855882,33.7995743 51.3339011,33.7719877 C43.2233996,33.7375045 37.7785766,32.1742669 36.1478897,31.0386207 C36.8302176,30.8286564 37.5110121,30.6378494 38.1895066,30.4677324 C37.9687084,30.2976153 37.7609434,30.1183028 37.5485785,29.9420554 C36.4246542,29.0094768 35.4172622,27.9964375 34.5187361,26.9213285 Z" id="Combined-Shape"></path>
                </g>
                <path d="M45.829202,77.4148253 C45.0173085,76.951218 44.3012476,76.4508287 43.6879192,75.9174888 C42.8192928,75.1642228 42.4152627,74.2661274 42.4152627,73.0914003 C42.4152627,72.096752 42.8108595,71.2308409 43.6265863,70.4446243 C44.1985151,69.8928933 44.9360425,69.463003 45.829202,69.1603172 L45.829202,77.4148253 Z M55.4024917,95.6617938 C54.5967316,96.4441789 53.5724731,96.9836492 52.2952167,97.291699 L52.2952167,87.5214634 C52.5374814,87.6440703 52.7789795,87.7674435 53.0174109,87.8915829 C53.8040046,88.302316 54.5223655,88.7682221 55.1510271,89.2770406 C55.7382891,89.7536749 56.2082519,90.2601945 56.5463492,90.7820401 C56.8238803,91.2111641 56.9588126,91.6625107 56.9588126,92.1606011 C56.9588126,93.5008476 56.44975,94.6456893 55.4024917,95.6617938 L55.4024917,95.6617938 Z M62.4757016,87.3467486 C61.7289743,86.0685719 60.7376822,84.946719 59.5271253,84.0133741 C58.3809678,83.1298383 57.0784116,82.3351925 55.6547231,81.6531918 C54.5583985,81.1290474 53.4314076,80.623294 52.2952167,80.1466597 L52.2952167,69.0905846 C54.3192004,69.7802483 55.6685229,71.2339061 56.3976171,73.4990681 C56.5754823,74.0485002 57.0868449,74.4209186 57.6649069,74.4209186 L61.5825421,74.4209186 C61.9766056,74.4209186 62.3507359,74.2462038 62.6037339,73.9442843 C62.8559652,73.6423649 62.962531,73.2431263 62.8919983,72.855382 C62.5999006,71.2316072 62.0755048,69.7741179 61.3356774,68.5242941 C60.5966167,67.2813669 59.683524,66.2085567 58.6216992,65.3372816 C57.5690743,64.4752019 56.3761506,63.7832394 55.0781944,63.2813175 C54.1758349,62.9318879 53.2435758,62.6728809 52.2952167,62.5065953 L52.2952167,59.5272482 C52.2952167,58.7923732 51.6987548,58.1969635 50.9635274,58.1969635 L47.1593579,58.1969635 C46.4241305,58.1969635 45.829202,58.7923732 45.829202,59.5272482 L45.829202,62.5219211 C44.7321108,62.7257551 43.6794859,63.0430004 42.6866605,63.4705918 C41.3258381,64.056806 40.1214145,64.8253978 39.1055893,65.7549112 C38.0751976,66.7005168 37.2472042,67.8216034 36.6453757,69.0867531 C36.032814,70.3764242 35.7223165,71.7810393 35.7223165,73.2615173 C35.7223165,74.9105798 36.0604137,76.3895253 36.7274084,77.6554413 C37.3691032,78.8746134 38.234663,79.9665809 39.2964878,80.8999258 C40.3192129,81.80032 41.4991034,82.5972647 42.8024263,83.2693037 C43.7799184,83.7727581 44.7942103,84.2647182 45.829202,84.7359884 L45.829202,96.7231096 C45.0050419,96.2886214 44.2989476,95.6901466 43.6940524,94.9161907 C42.6774606,93.6180904 41.9912994,92.037228 41.6547355,90.2165158 C41.5382031,89.5858567 40.9877408,89.1283798 40.3468127,89.1283798 L36.2582122,89.1283798 C35.8695153,89.1283798 35.4999849,89.2977306 35.2469869,89.5927534 C34.9947556,89.8870099 34.8835899,90.2778193 34.9426227,90.6617321 C35.4723851,94.087828 36.8362742,97.0227301 38.9944235,99.3852114 C40.9110748,101.484854 43.2064564,102.900964 45.829202,103.605953 L45.829202,109.073454 C45.829202,109.807562 46.4241305,110.403738 47.1593579,110.403738 L50.9635274,110.403738 C51.6987548,110.403738 52.2952167,109.807562 52.2952167,109.073454 L52.2952167,103.838906 C53.3578082,103.671854 54.4203996,103.402885 55.4653579,103.035065 C56.9411794,102.516285 58.2928019,101.776812 59.4834256,100.838103 C60.7001159,99.8771715 61.7059745,98.6679612 62.470335,97.2457214 C63.253862,95.7897647 63.6509922,94.0403178 63.6509922,92.0471898 C63.6509922,90.2663249 63.2553954,88.6846962 62.4757016,87.3467486 L62.4757016,87.3467486 Z" id="Fill-12" fill="#000000"></path>
            </g>
        </g>
    </g>
</svg>