<?xml version="1.0" encoding="UTF-8"?>
<svg width="93px" height="138px" viewBox="0 0 93 138" version="1.1" xmlns="http://www.w3.org/2000/svg" xmlns:xlink="http://www.w3.org/1999/xlink">
    <!-- Generator: Sketch 45.2 (43514) - http://www.bohemiancoding.com/sketch -->
    <title>Oil_Drum</title>
    <desc>Created with Sketch.</desc>
    <defs>
        <polygon id="path-1" points="92.2177594 0.13318172 92.2177594 35.2148408 0.564645466 35.2148408 0.564645466 0.13318172"></polygon>
        <polygon id="path-3" points="92.2177594 0.230500929 92.2177594 35.31216 0.564645466 35.31216 0.564645466 0.230500929 92.2177594 0.230500929"></polygon>
        <polygon id="path-5" points="92.2177594 0.328126655 92.2177594 35.4097857 0.564645466 35.4097857 0.564645466 0.328126655 92.2177594 0.328126655"></polygon>
    </defs>
    <g id="Recherches" stroke="none" stroke-width="1" fill="none" fill-rule="evenodd">
        <g id="the_good_place-copy-5" transform="translate(-815.000000, -500.000000)">
            <g id="Oil_Drum" transform="translate(815.122158, 500.134812)">
                <g id="Group-28" transform="translate(0.063133, 101.922331)">
                    <mask id="mask-2" fill="white">
                        <use xlink:href="#path-1"></use>
                    </mask>
                    <g id="Clip-27"></g>
                    <path d="M84.4894382,0.13318172 L84.4894382,5.09492879 L84.4894382,12.1601501 C84.5277712,12.4007661 84.5515377,12.6398495 84.5515377,12.8781666 C84.5515377,16.1134556 80.8087011,19.6943427 74.5389514,22.4568289 C67.0839446,25.7426932 57.0874582,27.551911 46.3917774,27.551911 C24.5503862,27.551911 8.23125056,19.8046889 8.23125056,12.8781666 C8.23125056,12.6475124 8.25501704,12.4137931 8.29335007,12.1800737 L8.29335007,5.09492879 L8.29335007,0.13318172 C3.38212284,3.70180814 0.564645466,8.06584668 0.564645466,12.8781666 C0.564645466,25.6124234 20.2655206,35.2148408 46.3917774,35.2148408 C72.5172676,35.2148408 92.2181428,25.6124234 92.2181428,12.8781666 C92.2181428,8.06584668 89.4006654,3.70180814 84.4894382,0.13318172" id="Fill-26" fill="#CC2E2E" mask="url(#mask-2)"></path>
                </g>
                <path d="M84.5525708,114.082787 L84.5525708,107.0168 L84.5525708,102.055819 L84.5525708,96.9913887 C83.3197807,97.8871852 81.9520584,98.7331727 80.4662703,99.5232208 C79.0548483,100.273422 77.5399271,100.97458 75.9207402,101.619032 C74.1160213,102.338581 72.1817368,102.985332 70.1431866,103.561585 C63.3107081,105.491111 55.2492728,106.583078 46.4549101,106.583078 C37.6367809,106.583078 29.5554125,105.485746 22.7114341,103.546259 C20.692817,102.974604 18.777699,102.332451 16.9883134,101.619798 C15.3698931,100.97458 13.8534386,100.273422 12.4427833,99.5232208 C10.9562285,98.7331727 9.5900395,97.8879515 8.35648274,96.9913887 L8.35648274,102.055053 L8.35648274,107.0168 L8.35648274,114.102711 C8.31814971,114.33643 8.29438324,114.569383 8.29438324,114.800804 C8.29438324,121.727326 24.6135188,129.473782 46.4549101,129.473782 C57.1505909,129.473782 67.1470773,127.665331 74.6020841,124.379466 C80.8718337,121.61698 84.6146703,118.036093 84.6146703,114.800804 C84.6146703,114.561721 84.5909039,114.322637 84.5525708,114.082787" id="Fill-29" fill="#F73E39"></path>
                <path d="M80.4662703,68.9691271 C77.481661,70.5553536 74.0094555,71.9147574 70.1431866,73.0074912 C63.3107081,74.9370169 55.2492728,76.0282181 46.4549101,76.0282181 C37.6367809,76.0282181 29.5561792,74.9308866 22.7122008,72.9921653 C18.8666317,71.9024967 15.4128261,70.5476907 12.4427833,68.9691271 C10.9562285,68.1790791 9.5900395,67.3330916 8.35648274,66.4372951 L8.35648274,71.5009592 L8.35648274,83.5478512 L8.35648274,84.2467104 L8.35648274,84.9647269 C8.96521118,88.7839311 14.3617345,92.7586928 22.765867,95.4851632 C25.29738,96.3066293 28.0972242,97.0162166 31.1278332,97.5725453 C35.7684293,98.4238968 40.9341878,98.9196884 46.4549101,98.9196884 C51.8430002,98.9196884 57.0524583,98.4599126 61.8502198,97.5840397 C64.8079961,97.0445695 67.6086069,96.3472429 70.1968528,95.5004891 C71.7447404,94.9939694 73.2174952,94.4353419 74.6020841,93.8253726 C80.4248706,91.2590574 84.0626748,87.9877527 84.5525708,84.9432707 L84.5525708,83.5286938 L84.5525708,71.5009592 L84.5525708,66.4365288 C83.3197807,67.3330916 81.9520584,68.1783128 80.4662703,68.9691271" id="Fill-31" fill="#F73E39"></path>
                <g id="Group-35" transform="translate(0.063133, 71.270611)">
                    <mask id="mask-4" fill="white">
                        <use xlink:href="#path-3"></use>
                    </mask>
                    <g id="Clip-34"></g>
                    <path d="M84.4894382,0.230500929 L84.4894382,12.2582356 C84.5277712,12.4980853 84.5515377,12.7371687 84.5515377,12.9754858 C84.5515377,13.20614 84.5277712,13.4383268 84.4894382,13.6728124 C83.9995421,16.7172945 80.361738,19.9885992 74.5389514,22.5549144 C73.1543625,23.1648836 71.6816077,23.7235112 70.1337201,24.2292646 C67.5454742,25.0760183 64.7448634,25.7733449 61.7870871,26.3135815 C56.9893257,27.1894544 51.7798675,27.6492302 46.3917774,27.6492302 C40.8702885,27.6492302 35.7052966,27.1534386 31.0639339,26.3013208 C28.0340915,25.7457584 25.2342474,25.0361711 22.7027343,24.214705 C14.2986018,21.4882346 8.90207851,17.5134729 8.29335007,13.6942686 C8.25425038,13.4536526 8.23125056,13.2138029 8.23125056,12.9754858 C8.23125056,12.7448316 8.25501704,12.5111123 8.29335007,12.2773929 L8.29335007,0.230500929 C3.38212284,3.79912735 0.564645466,8.16316589 0.564645466,12.9754858 C0.564645466,17.7878058 3.38212284,22.1518443 8.29335007,25.7204707 C9.52690683,26.6170335 10.8930959,27.4622547 12.3796506,28.2523027 C13.7903059,29.0025036 15.3067604,29.7036617 16.9251807,30.3488803 C18.7145664,31.0615328 20.6296843,31.7036863 22.6483015,32.2753409 C29.4922798,34.2148284 37.5736483,35.31216 46.3917774,35.31216 C55.1861402,35.31216 63.2475754,34.2201925 70.0800539,32.2906668 C72.1186042,31.7144144 74.0528886,31.0676632 75.8576075,30.3488803 C77.4767945,29.7036617 78.9917156,29.0025036 80.4031376,28.2523027 C81.8889257,27.4622547 83.2566481,26.6170335 84.4894382,25.7204707 C89.4006654,22.1518443 92.2181428,17.7878058 92.2181428,12.9754858 C92.2181428,8.16316589 89.4006654,3.79912735 84.4894382,0.230500929" id="Fill-33" fill="#CC2E2E" mask="url(#mask-4)"></path>
                </g>
                <path d="M8.35671274,23.1378335 L8.35671274,40.9472487 L8.35671274,52.9941407 L8.35671274,53.6922336 L8.35671274,54.4110164 C8.96544118,58.2302207 14.3619645,62.2042161 22.766097,64.9314528 C29.1753789,67.0104057 37.3295801,68.3652116 46.4543735,68.3652116 C55.1644035,68.3652116 63.4098373,67.1659631 70.1970828,64.9460124 C71.7449704,64.4394927 73.2177252,63.8808651 74.6015474,63.2716622 C80.4251006,60.705347 84.0629048,57.4340422 84.5528008,54.3887939 L84.5528008,52.9749834 L84.5528008,40.9472487 L84.5528008,23.1378335 L8.35671274,23.1378335 Z" id="Fill-36" fill="#F73E39"></path>
                <g id="Group-40" transform="translate(0.063133, 40.618892)">
                    <mask id="mask-6" fill="white">
                        <use xlink:href="#path-5"></use>
                    </mask>
                    <g id="Clip-39"></g>
                    <path d="M84.4894382,0.328126655 L84.4894382,12.3558613 C84.5277712,12.595711 84.5515377,12.8347944 84.5515377,13.0731116 C84.5515377,13.3037657 84.5277712,13.5359525 84.4894382,13.7704382 C83.9995421,16.8149202 80.361738,20.0862249 74.5389514,22.6525401 C73.1543625,23.2625094 71.6816077,23.8211369 70.1337201,24.3268903 C63.3464746,26.5468411 55.1010408,27.7468559 46.3917774,27.7468559 C37.2662174,27.7468559 29.1127829,26.3920499 22.7027343,24.3123307 C14.2986018,21.5858603 8.90207851,17.6110986 8.29335007,13.7918944 C8.25425038,13.5512784 8.23125056,13.3114287 8.23125056,13.0731116 C8.23125056,12.8424574 8.25501704,12.608738 8.29335007,12.3750186 L8.29335007,0.328126655 C3.38212284,3.89675308 0.564645466,8.26079162 0.564645466,13.0731116 C0.564645466,17.8854315 3.38212284,22.24947 8.29335007,25.8180965 C9.52690683,26.7146592 10.8930959,27.5598804 12.3796506,28.3499285 C15.3496934,29.928492 18.803499,31.283298 22.6490681,32.3729666 C29.4930465,34.3124542 37.5736483,35.4097857 46.3917774,35.4097857 C55.1861402,35.4097857 63.2475754,34.3178182 70.0800539,32.3882925 C73.9463228,31.296325 77.4185283,29.9361549 80.4031376,28.3499285 C81.8889257,27.5598804 83.2566481,26.7146592 84.4894382,25.8180965 C89.4006654,22.24947 92.2181428,17.8854315 92.2181428,13.0731116 C92.2181428,8.26079162 89.4006654,3.89675308 84.4894382,0.328126655" id="Fill-38" fill="#CC2E2E" mask="url(#mask-6)"></path>
                </g>
                <path d="M46.4546801,8.46416578 C35.7589993,8.46416578 25.762513,10.2733835 18.3075062,13.5584815 C12.0369898,16.321734 8.2949199,19.9026211 8.2949199,23.1379101 C8.2949199,30.0644324 24.6140555,37.8116544 46.4546801,37.8116544 C57.1503609,37.8116544 67.1468473,36.0024367 74.6018541,32.7173387 C80.8723704,29.9540862 84.6144403,26.3731991 84.6144403,23.1379101 C84.6144403,16.2113878 68.2953047,8.46416578 46.4546801,8.46416578" id="Fill-41" fill="#000000"></path>
                <g id="Group-45" transform="translate(0.063133, 0.771657)" fill="#CC2E2E">
                    <path d="M74.5385681,31.945605 C67.0835613,35.2307031 57.0870749,37.0399208 46.3913941,37.0399208 C24.5507695,37.0399208 8.23163389,29.2926987 8.23163389,22.3661764 C8.23163389,19.1308875 11.9744705,15.5500004 18.2442202,12.7875142 C25.699227,9.50164985 35.6957133,7.69243211 46.3913941,7.69243211 C68.2320187,7.69243211 84.551921,15.4396542 84.551921,22.3661764 C84.551921,25.6014654 80.8090844,29.1831188 74.5385681,31.945605 M46.3913941,0.0295022799 C20.2659039,0.0295022799 0.565028796,9.63191965 0.565028796,22.3661764 C0.565028796,35.1004332 20.2659039,44.7028506 46.3913941,44.7028506 C72.5168843,44.7028506 92.2185261,35.1004332 92.2185261,22.3661764 C92.2185261,9.63191965 72.5168843,0.0295022799 46.3913941,0.0295022799" id="Fill-43"></path>
                </g>
                <path d="M76.1200719,20.6952746 C76.1200719,22.3765214 73.7173578,23.7405229 70.7534483,23.7405229 C67.7903054,23.7405229 65.3868247,22.3765214 65.3868247,20.6952746 C65.3868247,19.0140278 67.7903054,17.6507926 70.7534483,17.6507926 C73.7173578,17.6507926 76.1200719,19.0140278 76.1200719,20.6952746" id="Fill-46" fill="#FFFFFF"></path>
            </g>
        </g>
    </g>
</svg>