<?xml version="1.0" encoding="UTF-8"?>
<svg width="103px" height="142px" viewBox="0 0 103 142" version="1.1" xmlns="http://www.w3.org/2000/svg" xmlns:xlink="http://www.w3.org/1999/xlink">
    <!-- Generator: Sketch 45.2 (43514) - http://www.bohemiancoding.com/sketch -->
    <title>Poultry_Leg</title>
    <desc>Created with Sketch.</desc>
    <defs></defs>
    <g id="Recherches" stroke="none" stroke-width="1" fill="none" fill-rule="evenodd">
        <g id="the_good_place-copy-5" transform="translate(-613.000000, -313.000000)">
            <g id="Poultry_Leg" transform="translate(613.000000, 312.843750)">
                <path d="M93.306994,10.2213466 C88.4353384,8.37038765 83.1994894,9.23913101 79.2651098,12.0723056 C78.2061332,7.34278317 74.8684498,3.21784082 69.9967942,1.36688187 C62.2887888,-1.56160934 53.6643964,2.31097079 50.7345006,10.015281 C47.8046048,17.7204991 51.6790423,26.3398494 59.3870477,29.2674328 C60.6485558,29.7467395 61.9336775,30.0399517 63.2133499,30.1679484 L48.6292624,68.5270074 L64.6546842,74.6145654 L79.2405881,36.2555063 C80.2823086,37.0098697 81.4375558,37.6434986 82.6981557,38.1228053 C90.4070693,41.0503887 99.0305535,37.1787164 101.959541,29.4734983 C104.889437,21.7691881 101.014999,13.1498378 93.306994,10.2213466" id="Fill-14" fill="#FFFFFF"></path>
                <path d="M75.9719288,58.0871087 C74.9438315,57.2664776 73.8058403,56.4994053 72.5070955,56.2906164 C68.4046965,55.6324775 64.7400562,62.8329711 61.0418121,60.2703144 L61.05816,60.2258332 C61.0236479,60.2240177 60.9936768,60.2167555 60.9600729,60.2140321 C60.9328265,60.194061 60.9055801,60.1786288 60.8783337,60.1577499 L60.8610777,60.2013232 C56.393577,59.6621032 58.4379649,51.8470441 54.9349866,49.6157262 C53.8242419,48.9094751 52.4646467,48.7270118 51.1504622,48.6580206 C24.7995647,47.2791061 -3.12526636,76.2971315 1.10337426,102.896837 C3.81257422,119.936734 16.3059549,132.686473 31.152516,138.336482 L31.1516077,138.338298 C31.182487,138.350099 31.212458,138.360085 31.2424291,138.370978 C31.2724001,138.382779 31.3014629,138.395488 31.3323422,138.406381 L31.3332504,138.404566 C46.1861689,144.037327 63.9980461,142.799118 77.3460554,131.85858 C98.1822824,114.779648 96.5883683,74.5487515 75.9719288,58.0871087" id="Fill-16" fill="#F7C046"></path>
            </g>
        </g>
    </g>
</svg>