{
  "accessors": [
    {
      "name": "Panty-Mesh_positions",
      "componentType": 5126,
      "count": 1179,
      "min": [
        -0.3418367803096771,
        -0.13118460774421692,
        -1.9278466701507568
      ],
      "max": [
        0.3975209593772888,
        1.698554515838623,
        1.9265698194503784
      ],
      "type": "VEC3",
      "bufferView": 0,
      "byteOffset": 0
    },
    {
      "name": "Panty-Mesh_normals",
      "componentType": 5126,
      "count": 1179,
      "min": [
        -0.9999781847000122,
        -0.9998895525932312,
        -0.9940142631530762
      ],
      "max": [
        0.9991601705551147,
        0.41717928647994995,
        0.9897191524505615
      ],
      "type": "VEC3",
      "bufferView": 0,
      "byteOffset": 14148
    },
    {
      "name": "Panty-Mesh_texcoords",
      "componentType": 5126,
      "count": 1179,
      "min": [
        0.10869999974966049,
        0.4812999963760376
      ],
      "max": [
        0.6523000001907349,
        0.6215999126434326
      ],
      "type": "VEC2",
      "bufferView": 1,
      "byteOffset": 0
    },
    {
      "name": "Panty-Mesh_0_indices",
      "componentType": 5123,
      "count": 4080,
      "min": [
        0
      ],
      "max": [
        804
      ],
      "type": "SCALAR",
      "bufferView": 2,
      "byteOffset": 0
    },
    {
      "name": "Panty-Mesh_1_indices",
      "componentType": 5123,
      "count": 2256,
      "min": [
        0
      ],
      "max": [
        1178
      ],
      "type": "SCALAR",
      "bufferView": 2,
      "byteOffset": 8160
    }
  ],
  "asset": {
    "generator": "obj2gltf",
    "version": "2.0"
  },
  "buffers": [
    {
      "name": "panty2",
      "byteLength": 50400,
      "uri": "data:application/octet-stream;base64,"
    }
  ],
  "bufferViews": [
    {
      "name": "bufferView_0",
      "buffer": 0,
      "byteLength": 28296,
      "byteOffset": 0,
      "byteStride": 12,
      "target": 34962
    },
    {
      "name": "bufferView_1",
      "buffer": 0,
      "byteLength": 9432,
      "byteOffset": 28296,
      "byteStride": 8,
      "target": 34962
    },
    {
      "name": "bufferView_2",
      "buffer": 0,
      "byteLength": 12672,
      "byteOffset": 37728,
      "target": 34963
    }
  ],
  "materials": [
    {
      "name": "fabric_semitransparent_15h",
      "pbrMetallicRoughness": {
        "baseColorFactor": [
          0.96862745285034,
          0.29058822989464,
          0.50530064105988,
          1
        ],
        "metallicFactor": 0,
        "roughnessFactor": 0.95
      },
      "emissiveFactor": [
        0,
        0,
        0
      ],
      "alphaMode": "OPAQUE",
      "doubleSided": false
    },
    {
      "name": "Material",
      "pbrMetallicRoughness": {
        "baseColorFactor": [
          0.839215695858,
          0.18823529779911,
          0.18823529779911,
          1
        ],
        "metallicFactor": 0,
        "roughnessFactor": 1
      },
      "emissiveFactor": [
        0,
        0,
        0
      ],
      "alphaMode": "OPAQUE",
      "doubleSided": false
    }
  ],
  "meshes": [
    {
      "name": "Panty-Mesh",
      "primitives": [
        {
          "attributes": {
            "POSITION": 0,
            "NORMAL": 1,
            "TEXCOORD_0": 2
          },
          "indices": 3,
          "material": 0,
          "mode": 4
        },
        {
          "attributes": {
            "POSITION": 0,
            "NORMAL": 1,
            "TEXCOORD_0": 2
          },
          "indices": 4,
          "material": 1,
          "mode": 4
        }
      ]
    }
  ],
  "nodes": [
    {
      "name": "Panty",
      "mesh": 0
    }
  ],
  "scene": 0,
  "scenes": [
    {
      "nodes": [
        0
      ]
    }
  ]
}
