{
  "accessors": [
    {
      "name": "8-Mesh_positions",
      "componentType": 5126,
      "count": 428,
      "min": [
        12.884380340576172,
        11.586373329162598,
        -11.438267707824707
      ],
      "max": [
        21.314380645751953,
        12.586373329162598,
        -7.378267288208008
      ],
      "type": "VEC3",
      "bufferView": 0,
      "byteOffset": 0
    },
    {
      "name": "8-Mesh_normals",
      "componentType": 5126,
      "count": 428,
      "min": [
        -0.999995231628418,
        0,
        -0.9999993443489075
      ],
      "max": [
        0.9999933838844299,
        0,
        0.9999914169311523
      ],
      "type": "VEC3",
      "bufferView": 0,
      "byteOffset": 81636
    },
    {
      "name": "8-Mesh_texcoords",
      "componentType": 5126,
      "count": 428,
      "min": [
        0,
        0
      ],
      "max": [
        1,
        1
      ],
      "type": "VEC2",
      "bufferView": 1,
      "byteOffset": 0
    },
    {
      "name": "8-Mesh_0_indices",
      "componentType": 5123,
      "count": 1242,
      "min": [
        0
      ],
      "max": [
        427
      ],
      "type": "SCALAR",
      "bufferView": 2,
      "byteOffset": 0
    },
    {
      "name": "Couvercle_1-Mesh_positions",
      "componentType": 5126,
      "count": 207,
      "min": [
        12.884380340576172,
        12.586373329162598,
        -11.438267707824707
      ],
      "max": [
        21.314380645751953,
        12.586373329162598,
        -7.378267288208008
      ],
      "type": "VEC3",
      "bufferView": 0,
      "byteOffset": 5136
    },
    {
      "name": "Couvercle_1-Mesh_normals",
      "componentType": 5126,
      "count": 207,
      "min": [
        0,
        1,
        0
      ],
      "max": [
        0,
        1,
        0
      ],
      "type": "VEC3",
      "bufferView": 0,
      "byteOffset": 86772
    },
    {
      "name": "Couvercle_1-Mesh_texcoords",
      "componentType": 5126,
      "count": 207,
      "min": [
        0,
        0
      ],
      "max": [
        0.48161327838897705,
        1
      ],
      "type": "VEC2",
      "bufferView": 1,
      "byteOffset": 3424
    },
    {
      "name": "Couvercle_1-Mesh_0_indices",
      "componentType": 5123,
      "count": 627,
      "min": [
        0
      ],
      "max": [
        206
      ],
      "type": "SCALAR",
      "bufferView": 2,
      "byteOffset": 2484
    },
    {
      "name": "Couvercle_2-Mesh_positions",
      "componentType": 5126,
      "count": 207,
      "min": [
        12.884380340576172,
        11.586373329162598,
        -11.438267707824707
      ],
      "max": [
        21.314380645751953,
        11.586373329162598,
        -7.378267288208008
      ],
      "type": "VEC3",
      "bufferView": 0,
      "byteOffset": 7620
    },
    {
      "name": "Couvercle_2-Mesh_normals",
      "componentType": 5126,
      "count": 207,
      "min": [
        0,
        -1,
        0
      ],
      "max": [
        0,
        -1,
        0
      ],
      "type": "VEC3",
      "bufferView": 0,
      "byteOffset": 89256
    },
    {
      "name": "Couvercle_2-Mesh_texcoords",
      "componentType": 5126,
      "count": 207,
      "min": [
        0,
        0
      ],
      "max": [
        0.48161327838897705,
        1
      ],
      "type": "VEC2",
      "bufferView": 1,
      "byteOffset": 5080
    },
    {
      "name": "Couvercle_2-Mesh_0_indices",
      "componentType": 5123,
      "count": 627,
      "min": [
        0
      ],
      "max": [
        206
      ],
      "type": "SCALAR",
      "bufferView": 2,
      "byteOffset": 3740
    },
    {
      "name": "Cassette-Mesh_positions",
      "componentType": 5126,
      "count": 5961,
      "min": [
        -37.785911560058594,
        -0.895894467830658,
        -62.17536926269531
      ],
      "max": [
        26.486127853393555,
        11.673693656921387,
        38.13667678833008
      ],
      "type": "VEC3",
      "bufferView": 0,
      "byteOffset": 10104
    },
    {
      "name": "Cassette-Mesh_normals",
      "componentType": 5126,
      "count": 5961,
      "min": [
        -1,
        -1,
        -1
      ],
      "max": [
        1,
        1,
        1
      ],
      "type": "VEC3",
      "bufferView": 0,
      "byteOffset": 91740
    },
    {
      "name": "Cassette-Mesh_texcoords",
      "componentType": 5126,
      "count": 5961,
      "min": [
        0,
        0
      ],
      "max": [
        1,
        1
      ],
      "type": "VEC2",
      "bufferView": 1,
      "byteOffset": 6736
    },
    {
      "name": "Cassette-Mesh_0_indices",
      "componentType": 5123,
      "count": 9,
      "min": [
        5916
      ],
      "max": [
        5920
      ],
      "type": "SCALAR",
      "bufferView": 2,
      "byteOffset": 4996
    },
    {
      "name": "Cassette-Mesh_1_indices",
      "componentType": 5123,
      "count": 18939,
      "min": [
        0
      ],
      "max": [
        4462
      ],
      "type": "SCALAR",
      "bufferView": 2,
      "byteOffset": 5016
    },
    {
      "name": "Cassette-Mesh_2_indices",
      "componentType": 5123,
      "count": 6852,
      "min": [
        4463
      ],
      "max": [
        5915
      ],
      "type": "SCALAR",
      "bufferView": 2,
      "byteOffset": 42896
    },
    {
      "name": "Cassette-Mesh_3_indices",
      "componentType": 5123,
      "count": 126,
      "min": [
        5921
      ],
      "max": [
        5960
      ],
      "type": "SCALAR",
      "bufferView": 2,
      "byteOffset": 56600
    }
  ],
  "asset": {
    "generator": "obj2gltf",
    "version": "2.0"
  },
  "buffers": [
    {
      "name": "WalkMan-Cassette",
      "byteLength": 274548,
      "uri": "data:application/octet-stream;base64,"
    }
  ],
  "bufferViews": [
    {
      "name": "bufferView_0",
      "buffer": 0,
      "byteLength": 163272,
      "byteOffset": 0,
      "byteStride": 12,
      "target": 34962
    },
    {
      "name": "bufferView_1",
      "buffer": 0,
      "byteLength": 54424,
      "byteOffset": 163272,
      "byteStride": 8,
      "target": 34962
    },
    {
      "name": "bufferView_2",
      "buffer": 0,
      "byteLength": 56852,
      "byteOffset": 217696,
      "target": 34963
    }
  ],
  "materials": [
    {
      "name": "default",
      "pbrMetallicRoughness": {
        "baseColorFactor": [
          0.5,
          0.5,
          0.5,
          1
        ],
        "metallicFactor": 0,
        "roughnessFactor": 1
      },
      "emissiveFactor": [
        0,
        0,
        0
      ],
      "alphaMode": "OPAQUE",
      "doubleSided": false
    },
    {
      "name": "Mat.1",
      "pbrMetallicRoughness": {
        "baseColorFactor": [
          0.5,
          0.5,
          0.5,
          1
        ],
        "metallicFactor": 0,
        "roughnessFactor": 1
      },
      "emissiveFactor": [
        0,
        0,
        0
      ],
      "alphaMode": "OPAQUE",
      "doubleSided": false
    },
    {
      "name": "Mat.3",
      "pbrMetallicRoughness": {
        "baseColorFactor": [
          0.5,
          0.5,
          0.5,
          1
        ],
        "metallicFactor": 0,
        "roughnessFactor": 1
      },
      "emissiveFactor": [
        0,
        0,
        0
      ],
      "alphaMode": "OPAQUE",
      "doubleSided": false
    },
    {
      "name": "Mat.2",
      "pbrMetallicRoughness": {
        "baseColorFactor": [
          0.5,
          0.5,
          0.5,
          1
        ],
        "metallicFactor": 0,
        "roughnessFactor": 1
      },
      "emissiveFactor": [
        0,
        0,
        0
      ],
      "alphaMode": "OPAQUE",
      "doubleSided": false
    }
  ],
  "meshes": [
    {
      "name": "8-Mesh",
      "primitives": [
        {
          "attributes": {
            "POSITION": 0,
            "NORMAL": 1,
            "TEXCOORD_0": 2
          },
          "indices": 3,
          "material": 0,
          "mode": 4
        }
      ]
    },
    {
      "name": "Couvercle_1-Mesh",
      "primitives": [
        {
          "attributes": {
            "POSITION": 4,
            "NORMAL": 5,
            "TEXCOORD_0": 6
          },
          "indices": 7,
          "material": 0,
          "mode": 4
        }
      ]
    },
    {
      "name": "Couvercle_2-Mesh",
      "primitives": [
        {
          "attributes": {
            "POSITION": 8,
            "NORMAL": 9,
            "TEXCOORD_0": 10
          },
          "indices": 11,
          "material": 0,
          "mode": 4
        }
      ]
    },
    {
      "name": "Cassette-Mesh",
      "primitives": [
        {
          "attributes": {
            "POSITION": 12,
            "NORMAL": 13,
            "TEXCOORD_0": 14
          },
          "indices": 15,
          "material": 0,
          "mode": 4
        },
        {
          "attributes": {
            "POSITION": 12,
            "NORMAL": 13,
            "TEXCOORD_0": 14
          },
          "indices": 16,
          "material": 1,
          "mode": 4
        },
        {
          "attributes": {
            "POSITION": 12,
            "NORMAL": 13,
            "TEXCOORD_0": 14
          },
          "indices": 17,
          "material": 2,
          "mode": 4
        },
        {
          "attributes": {
            "POSITION": 12,
            "NORMAL": 13,
            "TEXCOORD_0": 14
          },
          "indices": 18,
          "material": 3,
          "mode": 4
        }
      ]
    }
  ],
  "nodes": [
    {
      "name": "8",
      "mesh": 0
    },
    {
      "name": "Couvercle_1",
      "mesh": 1
    },
    {
      "name": "Couvercle_2",
      "mesh": 2
    },
    {
      "name": "Cassette",
      "mesh": 3
    }
  ],
  "scene": 0,
  "scenes": [
    {
      "nodes": [
        0,
        1,
        2,
        3
      ]
    }
  ]
}
