{
  "accessors": [
    {
      "name": "Walkman-Porte-Mesh_positions",
      "componentType": 5126,
      "count": 143,
      "min": [
        -40.78269958496094,
        10.288493156433105,
        -66
      ],
      "max": [
        20.001310348510742,
        45.45288848876953,
        42.97792434692383
      ],
      "type": "VEC3",
      "bufferView": 0,
      "byteOffset": 0
    },
    {
      "name": "Walkman-Porte-Mesh_normals",
      "componentType": 5126,
      "count": 143,
      "min": [
        -0.9998676776885986,
        -0.7183656692504883,
        -0.9851001501083374
      ],
      "max": [
        0.7624905705451965,
        0.9780631065368652,
        0.9795774221420288
      ],
      "type": "VEC3",
      "bufferView": 0,
      "byteOffset": 1764
    },
    {
      "name": "Walkman-Porte-Mesh_texcoords",
      "componentType": 5126,
      "count": 143,
      "min": [
        0,
        0
      ],
      "max": [
        1,
        0.5
      ],
      "type": "VEC2",
      "bufferView": 1,
      "byteOffset": 0
    },
    {
      "name": "Walkman-Porte-Mesh_0_indices",
      "componentType": 5123,
      "count": 477,
      "min": [
        0
      ],
      "max": [
        142
      ],
      "type": "SCALAR",
      "bufferView": 2,
      "byteOffset": 0
    },
    {
      "name": "Vitre-Mesh_positions",
      "componentType": 5126,
      "count": 4,
      "min": [
        -21.37305450439453,
        23.382654190063477,
        -43.041893005371094
      ],
      "max": [
        0.8341272473335266,
        35.54903030395508,
        22.326231002807617
      ],
      "type": "VEC3",
      "bufferView": 0,
      "byteOffset": 1716
    },
    {
      "name": "Vitre-Mesh_normals",
      "componentType": 5126,
      "count": 4,
      "min": [
        -0.48047560453414917,
        0.8770080804824829,
        0
      ],
      "max": [
        -0.48047560453414917,
        0.8770080804824829,
        0
      ],
      "type": "VEC3",
      "bufferView": 0,
      "byteOffset": 3480
    },
    {
      "name": "Vitre-Mesh_texcoords",
      "componentType": 5126,
      "count": 4,
      "min": [
        0,
        0
      ],
      "max": [
        0.5,
        0.5
      ],
      "type": "VEC2",
      "bufferView": 1,
      "byteOffset": 1144
    },
    {
      "name": "Vitre-Mesh_0_indices",
      "componentType": 5123,
      "count": 6,
      "min": [
        0
      ],
      "max": [
        3
      ],
      "type": "SCALAR",
      "bufferView": 2,
      "byteOffset": 956
    }
  ],
  "asset": {
    "generator": "obj2gltf",
    "version": "2.0"
  },
  "buffers": [
    {
      "name": "Vitre",
      "byteLength": 5672,
      "uri": "data:application/octet-stream;base64,"
    }
  ],
  "bufferViews": [
    {
      "name": "bufferView_0",
      "buffer": 0,
      "byteLength": 3528,
      "byteOffset": 0,
      "byteStride": 12,
      "target": 34962
    },
    {
      "name": "bufferView_1",
      "buffer": 0,
      "byteLength": 1176,
      "byteOffset": 3528,
      "byteStride": 8,
      "target": 34962
    },
    {
      "name": "bufferView_2",
      "buffer": 0,
      "byteLength": 968,
      "byteOffset": 4704,
      "target": 34963
    }
  ],
  "materials": [
    {
      "name": "Mat.2",
      "pbrMetallicRoughness": {
        "baseColorFactor": [
          0.5,
          0.5,
          0.5,
          1
        ],
        "metallicFactor": 0,
        "roughnessFactor": 1
      },
      "emissiveFactor": [
        0,
        0,
        0
      ],
      "alphaMode": "OPAQUE",
      "doubleSided": false
    },
    {
      "name": "Glas 001",
      "pbrMetallicRoughness": {
        "baseColorFactor": [
          0.5,
          0.5,
          0.5,
          1
        ],
        "metallicFactor": 0,
        "roughnessFactor": 1
      },
      "emissiveFactor": [
        0,
        0,
        0
      ],
      "alphaMode": "OPAQUE",
      "doubleSided": false
    }
  ],
  "meshes": [
    {
      "name": "Walkman-Porte-Mesh",
      "primitives": [
        {
          "attributes": {
            "POSITION": 0,
            "NORMAL": 1,
            "TEXCOORD_0": 2
          },
          "indices": 3,
          "material": 0,
          "mode": 4
        }
      ]
    },
    {
      "name": "Vitre-Mesh",
      "primitives": [
        {
          "attributes": {
            "POSITION": 4,
            "NORMAL": 5,
            "TEXCOORD_0": 6
          },
          "indices": 7,
          "material": 1,
          "mode": 4
        }
      ]
    }
  ],
  "nodes": [
    {
      "name": "Walkman-Porte",
      "mesh": 0
    },
    {
      "name": "Vitre",
      "mesh": 1
    }
  ],
  "scene": 0,
  "scenes": [
    {
      "nodes": [
        0,
        1
      ]
    }
  ]
}
