{
  "accessors": [
    {
      "name": "Casque.1-Mesh_positions",
      "componentType": 5126,
      "count": 6067,
      "min": [
        -222.82594299316406,
        -15.408575057983398,
        61.63505554199219
      ],
      "max": [
        -27.22616195678711,
        31.22566795349121,
        342.32843017578125
      ],
      "type": "VEC3",
      "bufferView": 0,
      "byteOffset": 0
    },
    {
      "name": "Casque.1-Mesh_normals",
      "componentType": 5126,
      "count": 6067,
      "min": [
        -1,
        -0.9994408488273621,
        -1
      ],
      "max": [
        1,
        0.9996698498725891,
        1
      ],
      "type": "VEC3",
      "bufferView": 0,
      "byteOffset": 114612
    },
    {
      "name": "Casque.1-Mesh_texcoords",
      "componentType": 5126,
      "count": 6067,
      "min": [
        0,
        0
      ],
      "max": [
        1,
        1
      ],
      "type": "VEC2",
      "bufferView": 1,
      "byteOffset": 0
    },
    {
      "name": "Casque.1-Mesh_0_indices",
      "componentType": 5123,
      "count": 2970,
      "min": [
        0
      ],
      "max": [
        575
      ],
      "type": "SCALAR",
      "bufferView": 2,
      "byteOffset": 0
    },
    {
      "name": "Casque.1-Mesh_1_indices",
      "componentType": 5123,
      "count": 14061,
      "min": [
        576
      ],
      "max": [
        3750
      ],
      "type": "SCALAR",
      "bufferView": 2,
      "byteOffset": 5940
    },
    {
      "name": "Casque.1-Mesh_2_indices",
      "componentType": 5123,
      "count": 4692,
      "min": [
        3751
      ],
      "max": [
        5236
      ],
      "type": "SCALAR",
      "bufferView": 2,
      "byteOffset": 34064
    },
    {
      "name": "Casque.1-Mesh_3_indices",
      "componentType": 5123,
      "count": 4488,
      "min": [
        5237
      ],
      "max": [
        6066
      ],
      "type": "SCALAR",
      "bufferView": 2,
      "byteOffset": 43448
    },
    {
      "name": "Bouton-Play-Mesh_positions",
      "componentType": 5126,
      "count": 231,
      "min": [
        29.771841049194336,
        6.986226558685303,
        -9.27820873260498
      ],
      "max": [
        38.25436782836914,
        16.7711124420166,
        5
      ],
      "type": "VEC3",
      "bufferView": 0,
      "byteOffset": 72804
    },
    {
      "name": "Bouton-Play-Mesh_normals",
      "componentType": 5126,
      "count": 231,
      "min": [
        -1,
        0,
        -0.9990628957748413
      ],
      "max": [
        1,
        0.9953852295875549,
        0.9990628957748413
      ],
      "type": "VEC3",
      "bufferView": 0,
      "byteOffset": 187416
    },
    {
      "name": "Bouton-Play-Mesh_texcoords",
      "componentType": 5126,
      "count": 231,
      "min": [
        0,
        0
      ],
      "max": [
        1,
        1
      ],
      "type": "VEC2",
      "bufferView": 1,
      "byteOffset": 48536
    },
    {
      "name": "Bouton-Play-Mesh_0_indices",
      "componentType": 5123,
      "count": 966,
      "min": [
        0
      ],
      "max": [
        230
      ],
      "type": "SCALAR",
      "bufferView": 2,
      "byteOffset": 52424
    },
    {
      "name": "WalkmanBoitier-Mesh_positions",
      "componentType": 5126,
      "count": 3253,
      "min": [
        -41,
        -13.154783248901367,
        -66
      ],
      "max": [
        48.43354034423828,
        15.996844291687012,
        68.48748016357422
      ],
      "type": "VEC3",
      "bufferView": 0,
      "byteOffset": 75576
    },
    {
      "name": "WalkmanBoitier-Mesh_normals",
      "componentType": 5126,
      "count": 3253,
      "min": [
        -1,
        -1,
        -1
      ],
      "max": [
        1,
        1,
        1
      ],
      "type": "VEC3",
      "bufferView": 0,
      "byteOffset": 190188
    },
    {
      "name": "WalkmanBoitier-Mesh_texcoords",
      "componentType": 5126,
      "count": 3253,
      "min": [
        0,
        0
      ],
      "max": [
        1,
        1
      ],
      "type": "VEC2",
      "bufferView": 1,
      "byteOffset": 50384
    },
    {
      "name": "WalkmanBoitier-Mesh_0_indices",
      "componentType": 5123,
      "count": 3543,
      "min": [
        315
      ],
      "max": [
        1200
      ],
      "type": "SCALAR",
      "bufferView": 2,
      "byteOffset": 54356
    },
    {
      "name": "WalkmanBoitier-Mesh_1_indices",
      "componentType": 5123,
      "count": 930,
      "min": [
        0
      ],
      "max": [
        314
      ],
      "type": "SCALAR",
      "bufferView": 2,
      "byteOffset": 61444
    },
    {
      "name": "WalkmanBoitier-Mesh_2_indices",
      "componentType": 5123,
      "count": 8262,
      "min": [
        23
      ],
      "max": [
        2985
      ],
      "type": "SCALAR",
      "bufferView": 2,
      "byteOffset": 63304
    },
    {
      "name": "WalkmanBoitier-Mesh_3_indices",
      "componentType": 5123,
      "count": 717,
      "min": [
        2986
      ],
      "max": [
        3252
      ],
      "type": "SCALAR",
      "bufferView": 2,
      "byteOffset": 79828
    }
  ],
  "asset": {
    "generator": "obj2gltf",
    "version": "2.0"
  },
  "buffers": [
    {
      "name": "WalkMan-Boitier",
      "byteLength": 386896,
      "uri": "data:application/octet-stream;base64,"
    }
  ],
  "bufferViews": [
    {
      "name": "bufferView_0",
      "buffer": 0,
      "byteLength": 229224,
      "byteOffset": 0,
      "byteStride": 12,
      "target": 34962
    },
    {
      "name": "bufferView_1",
      "buffer": 0,
      "byteLength": 76408,
      "byteOffset": 229224,
      "byteStride": 8,
      "target": 34962
    },
    {
      "name": "bufferView_2",
      "buffer": 0,
      "byteLength": 81264,
      "byteOffset": 305632,
      "target": 34963
    }
  ],
  "materials": [
    {
      "name": "default",
      "pbrMetallicRoughness": {
        "baseColorFactor": [
          0.5,
          0.5,
          0.5,
          1
        ],
        "metallicFactor": 0,
        "roughnessFactor": 1
      },
      "emissiveFactor": [
        0,
        0,
        0
      ],
      "alphaMode": "OPAQUE",
      "doubleSided": false
    },
    {
      "name": "Mat.2",
      "pbrMetallicRoughness": {
        "baseColorFactor": [
          0.5,
          0.5,
          0.5,
          1
        ],
        "metallicFactor": 0,
        "roughnessFactor": 1
      },
      "emissiveFactor": [
        0,
        0,
        0
      ],
      "alphaMode": "OPAQUE",
      "doubleSided": false
    },
    {
      "name": "Mat.3",
      "pbrMetallicRoughness": {
        "baseColorFactor": [
          0.5,
          0.5,
          0.5,
          1
        ],
        "metallicFactor": 0,
        "roughnessFactor": 1
      },
      "emissiveFactor": [
        0,
        0,
        0
      ],
      "alphaMode": "OPAQUE",
      "doubleSided": false
    },
    {
      "name": "Mat.1",
      "pbrMetallicRoughness": {
        "baseColorFactor": [
          0.5,
          0.5,
          0.5,
          1
        ],
        "metallicFactor": 0,
        "roughnessFactor": 1
      },
      "emissiveFactor": [
        0,
        0,
        0
      ],
      "alphaMode": "OPAQUE",
      "doubleSided": false
    }
  ],
  "meshes": [
    {
      "name": "Casque.1-Mesh",
      "primitives": [
        {
          "attributes": {
            "POSITION": 0,
            "NORMAL": 1,
            "TEXCOORD_0": 2
          },
          "indices": 3,
          "material": 0,
          "mode": 4
        },
        {
          "attributes": {
            "POSITION": 0,
            "NORMAL": 1,
            "TEXCOORD_0": 2
          },
          "indices": 4,
          "material": 1,
          "mode": 4
        },
        {
          "attributes": {
            "POSITION": 0,
            "NORMAL": 1,
            "TEXCOORD_0": 2
          },
          "indices": 5,
          "material": 2,
          "mode": 4
        },
        {
          "attributes": {
            "POSITION": 0,
            "NORMAL": 1,
            "TEXCOORD_0": 2
          },
          "indices": 6,
          "material": 3,
          "mode": 4
        }
      ]
    },
    {
      "name": "Bouton-Play-Mesh",
      "primitives": [
        {
          "attributes": {
            "POSITION": 7,
            "NORMAL": 8,
            "TEXCOORD_0": 9
          },
          "indices": 10,
          "material": 3,
          "mode": 4
        }
      ]
    },
    {
      "name": "WalkmanBoitier-Mesh",
      "primitives": [
        {
          "attributes": {
            "POSITION": 11,
            "NORMAL": 12,
            "TEXCOORD_0": 13
          },
          "indices": 14,
          "material": 3,
          "mode": 4
        },
        {
          "attributes": {
            "POSITION": 11,
            "NORMAL": 12,
            "TEXCOORD_0": 13
          },
          "indices": 15,
          "material": 0,
          "mode": 4
        },
        {
          "attributes": {
            "POSITION": 11,
            "NORMAL": 12,
            "TEXCOORD_0": 13
          },
          "indices": 16,
          "material": 1,
          "mode": 4
        },
        {
          "attributes": {
            "POSITION": 11,
            "NORMAL": 12,
            "TEXCOORD_0": 13
          },
          "indices": 17,
          "material": 2,
          "mode": 4
        }
      ]
    }
  ],
  "nodes": [
    {
      "name": "Casque.1",
      "mesh": 0
    },
    {
      "name": "Bouton-Play",
      "mesh": 1
    },
    {
      "name": "WalkmanBoitier",
      "mesh": 2
    }
  ],
  "scene": 0,
  "scenes": [
    {
      "nodes": [
        0,
        1,
        2
      ]
    }
  ]
}
