<svg id="Calque_1" xmlns="http://www.w3.org/2000/svg" viewBox="0 0 4081.9 2551.2"><style>.st0{fill:none;stroke:#fff;stroke-width:10;stroke-miterlimit:10}</style><path class="st0" d="M19.9 79h4042v2393.2H19.9zM19.9 2173h4042M19.9 1873.9h4042M19.9 1574.7h4042M19.9 1275.6h4042M19.9 976.4h4042M19.9 677.3h4042M19.9 378.2h4042M3751 79v2393.2M3440.1 79v2393.2M3129.2 79v2393.2M2818.3 79v2393.2M2507.3 79v2393.2M2196.4 79v2393.2M1885.5 79v2393.2M1574.6 79v2393.2M1263.6 79v2393.2M952.7 79v2393.2M641.8 79v2393.2M330.9 79v2393.2"/></svg>