<svg width="620" height="159" xmlns="http://www.w3.org/2000/svg"><path d="M94.875 132.95c-18.3 0-29.25-5.55-35.1-15.45l-1.95 13.5h-31.65V16.25h35.25V58.4c6.6-10.65 18.45-16.35 34.35-16.35 9 0 16.65 1.8 23.55 5.25 13.5 7.05 21.3 20.7 21.3 40.8 0 9.6-2.1 17.55-6.3 24.45-8.7 13.2-23.1 20.4-39.45 20.4zm-12.6-27.3c15.3 0 21.9-6.15 21.9-17.4 0-12.6-7.05-18.9-21.75-18.9-13.8 0-21.75 6.6-21.75 18.9 0 11.7 7.2 17.4 21.6 17.4zm70.65 25.35h37.65v-27.45c0-12.6 2.25-19.65 9.45-22.8 3.6-1.35 8.7-2.25 15.6-2.25h15.15V42.65h-9.45c-19.95 0-30.15 8.7-33.6 26.4L183.375 44h-30.45v87zm164.55-17.55c-6.6 12-21 20.4-43.95 20.4-23.25 0-34.95-7.95-34.95-24.3v-.15c0-10.2 4.35-17.85 13.8-22.2 2.85-1.35 5.85-2.55 9-3.3 6.45-1.8 15.3-3 30-4.05 7.05-.6 12.15-1.05 15.75-1.65 7.5-1.05 9.45-2.55 9.45-5.4 0-4.05-3.6-7.5-16.65-7.5-15.9 0-21.3 3.75-21.9 10.35h-36.9c2.55-23.25 22.8-34.05 57.15-34.05 36 0 53.1 9.75 53.1 37.95V131h-30.6l-3.3-17.55zm-29.85-1.95c5.25 0 10.2-.9 14.55-2.85 8.85-3.6 14.55-9.9 14.55-16.8v-.9c-2.4 2.4-8.25 4.05-17.7 5.25-11.1 1.05-16.05 1.95-18.9 3.6-2.4 1.35-3.75 3.15-3.75 5.55v.15c0 3.75 3.15 6 11.25 6zm111 19.5h36.3l44.7-87h-38.85l-23.4 48.15-22.5-48.15h-38.85l42.6 87zm140.85 2.85c-13.8 0-25.05-1.8-33.45-5.55-17.1-7.5-24.45-21.15-24.45-40.05 0-9.45 2.4-17.55 7.05-24.6 9.45-14.1 27.15-22.2 51.3-22.2 12.3 0 22.5 1.95 31.35 5.7 17.55 7.8 26.85 22.05 26.85 41.1 0 9.3-2.25 17.1-6.45 24-8.85 13.65-25.8 21.6-52.2 21.6zm.3-28.2c15.3 0 21.9-6.15 21.9-17.4 0-12.6-7.05-18.9-21.75-18.9-14.4 0-21.75 6.3-21.75 18.9 0 11.7 7.2 17.4 21.6 17.4z" stroke="#F73E39" stroke-width="3" fill="#5934A5" fill-rule="evenodd" fill-opacity="0"/></svg>