<svg width="620" height="159" xmlns="http://www.w3.org/2000/svg"><path d="M91.4,90.4 L91.4,140.35 L57.5,140.35 L57.5,90.4 L38,90.4 L38,61.15 L57.5,61.15 L57.5,55.75 C57.5,46.45 58.85,39.55 61.25,34.3 C66.35,23.65 77.75,19.75 98.6,19.75 L118.1,19.75 L118.1,46.75 L103.25,46.75 C93.8,46.75 91.4,49 91.4,59.2 L91.4,61.15 L117.95,61.15 L117.95,90.4 L91.4,90.4 Z M147.8,47.5 C132.8,47.5 126.8,43.45 126.8,31.75 C126.8,20.05 134.15,16 147.8,16 C161.45,16 168.95,20.05 168.95,31.75 C168.95,43 162.05,47.5 147.8,47.5 Z M129.05,53.65 C129.65,54.25 131.15,54.85 133.4,55.3 C137.75,56.05 143.6,56.65 147.65,56.65 C149.9,56.65 152.15,56.5 154.7,56.35 C159.95,55.75 164.75,54.85 166.1,53.65 L166.1,140.35 L129.05,140.35 L129.05,53.65 Z M218.15,140.35 L181.85,140.35 L181.85,53.35 L212.75,53.35 L216.2,72.85 C221.6,59.65 233,50.8 251.3,50.8 C276.5,50.8 290.15,65.35 290.15,90.55 L290.15,140.35 L254.15,140.35 L254.15,100.9 C254.15,87.25 249.95,80.65 236.9,80.65 C223.4,80.65 218.15,87.4 218.15,102.85 L218.15,140.35 Z M324.2,47.5 C309.2,47.5 303.2,43.45 303.2,31.75 C303.2,20.05 310.55,16 324.2,16 C337.85,16 345.35,20.05 345.35,31.75 C345.35,43 338.45,47.5 324.2,47.5 Z M305.45,53.65 C306.05,54.25 307.55,54.85 309.8,55.3 C314.15,56.05 320,56.65 324.05,56.65 C326.3,56.65 328.55,56.5 331.1,56.35 C336.35,55.75 341.15,54.85 342.5,53.65 L342.5,140.35 L305.45,140.35 L305.45,53.65 Z M409.1,143.2 C376.1,143.2 355.1,134.65 350.75,111.7 L389,111.7 C391.55,118 397.7,120.25 412.55,120.25 C425,120.25 428.9,117.55 428.9,113.8 C428.9,112.6 428.15,111.55 426.8,110.8 C424.25,109.15 416.9,108.4 401.45,107.8 C389.75,107.2 380.75,106 373.7,104.2 C359.6,100.6 353.9,93.7 353.9,81.85 C353.9,62.8 370.7,50.8 404.6,50.8 C437.9,50.8 455.75,59.95 462.65,81.1 L426.2,81.1 C423.8,74.65 415.55,72.7 403.7,72.7 C391.1,72.7 387.8,75.4 387.8,78.85 C387.8,80.05 388.55,81.25 390.2,82 C393.35,83.65 400.7,84.55 414.35,85.15 C426.8,85.75 436.55,86.95 443.75,88.9 C458,92.65 463.25,99.7 463.25,111.55 C463.25,117.85 461.3,123.25 457.55,128.05 C450.05,137.5 434.6,143.2 409.1,143.2 Z M509.15,140.35 L473.6,140.35 L473.6,25.6 L509,25.6 L509,68.95 C515.6,57.7 527,50.8 542.45,50.8 C567.65,50.8 581.15,65.35 581.15,90.55 L581.15,140.35 L545.3,140.35 L545.3,101.5 C545.3,88 541.25,80.5 528.2,80.5 C514.7,80.5 509.15,87.25 509.15,102.7 L509.15,140.35 Z" stroke="#F73E39" stroke-width="3" fill="#5934A5" fill-rule="evenodd" fill-opacity="0"/></svg>
