<svg width="620" height="159" xmlns="http://www.w3.org/2000/svg"><path d="M79.35,125.4 C46.35,125.4 25.35,116.85 21,93.9 L59.25,93.9 C61.8,100.2 67.95,102.45 82.8,102.45 C95.25,102.45 99.15,99.75 99.15,96 C99.15,94.8 98.4,93.75 97.05,93 C94.5,91.35 87.15,90.6 71.7,90 C60,89.4 51,88.2 43.95,86.4 C29.85,82.8 24.15,75.9 24.15,64.05 C24.15,45 40.95,33 74.85,33 C108.15,33 126,42.15 132.9,63.3 L96.45,63.3 C94.05,56.85 85.8,54.9 73.95,54.9 C61.35,54.9 58.05,57.6 58.05,61.05 C58.05,62.25 58.8,63.45 60.45,64.2 C63.6,65.85 70.95,66.75 84.6,67.35 C97.05,67.95 106.8,69.15 114,71.1 C128.25,74.85 133.5,81.9 133.5,93.75 C133.5,100.05 131.55,105.45 127.8,110.25 C120.3,119.7 104.85,125.4 79.35,125.4 Z M258,83.55 C256.35,109.05 236.85,125.4 198.45,125.4 C184.65,125.4 173.4,123.6 165,119.85 C147.9,112.35 140.55,98.7 140.55,79.8 C140.55,70.35 142.95,62.25 147.6,55.2 C157.05,41.1 174.75,33 198.9,33 C234.9,33 255.45,48.9 258,74.4 L219.9,74.4 C218.1,65.4 211.8,60.9 198.9,60.9 C184.5,60.9 177.15,67.2 177.15,79.8 C177.15,91.5 184.35,97.2 198.75,97.2 C212.25,97.2 218.25,92.4 219.9,83.55 L258,83.55 Z M323.1,125.4 C309.3,125.4 298.05,123.6 289.65,119.85 C272.55,112.35 265.2,98.7 265.2,79.8 C265.2,70.35 267.6,62.25 272.25,55.2 C281.7,41.1 299.4,33 323.55,33 C335.85,33 346.05,34.95 354.9,38.7 C372.45,46.5 381.75,60.75 381.75,79.8 C381.75,89.1 379.5,96.9 375.3,103.8 C366.45,117.45 349.5,125.4 323.1,125.4 Z M323.4,97.2 C338.7,97.2 345.3,91.05 345.3,79.8 C345.3,67.2 338.25,60.9 323.55,60.9 C309.15,60.9 301.8,67.2 301.8,79.8 C301.8,91.5 309,97.2 323.4,97.2 Z M394.05,122.55 L394.05,35.55 L424.5,35.55 L428.85,60.6 C432.3,42.9 442.5,34.2 462.45,34.2 L471.9,34.2 L471.9,70.05 L456.75,70.05 C449.85,70.05 444.75,70.95 441.15,72.3 C433.95,75.45 431.7,82.5 431.7,95.1 L431.7,122.55 L394.05,122.55 Z M597.45,94.8 C589.95,116.55 571.05,125.4 537.9,125.4 C516,125.4 501.75,120.9 492.9,112.8 C484.05,104.7 480.6,93.9 480.6,81.3 C480.6,72 482.85,64.2 487.05,56.7 C495.9,42 513.3,33 540.6,33 C553.8,33 564.6,34.95 573,39 C590.1,46.8 598.2,61.05 598.2,79.35 L598.2,87.9 L515.85,87.9 C518.1,96.6 525.3,100.8 540.15,100.8 C551.4,100.8 556.05,98.55 558.9,94.8 L597.45,94.8 Z M540.15,57.9 C526.65,57.9 519.3,62.25 516.45,70.35 L562.35,70.35 C560.1,61.35 553.2,57.9 540.15,57.9 Z" stroke="#F73E39" stroke-width="3" fill="#5934A5" fill-rule="evenodd" fill-opacity="0"/></svg>
